SplineFontDB: 3.0
FontName: Laksaman-BoldItalic
FullName: Laksaman Bold Italic
FamilyName: Laksaman
Weight: Bold
Copyright: Laksaman, based on TH Sarabun New.\n\nCopyright (c) 2014 Theppitak Karoonboonyanan.\n\nTH Sarabun New:\n\nCopyright (c) 2010-2011 by Software Industry Promotion Agency (Public Organization) (SIPA). All rights reserved.\nCreated by : Suppakit CHALERMLARP.
Version: 3.0: 2014-04-30
ItalicAngle: -12
UnderlinePosition: -20
UnderlineWidth: 30
Ascent: 800
Descent: 200
LayerCount: 2
Layer: 0 1 "Back"  1
Layer: 1 1 "Fore"  0
XUID: [1021 373 914837695 15431195]
FSType: 0
OS2Version: 3
OS2_WeightWidthSlopeOnly: 0
OS2_UseTypoMetrics: 1
CreationTime: 1308745585
ModificationTime: 1398913472
PfmFamily: 33
TTFWeight: 700
TTFWidth: 5
LineGap: 30
VLineGap: 0
Panose: 2 11 5 0 4 2 0 2 0 3
OS2TypoAscent: 1279
OS2TypoAOffset: 0
OS2TypoDescent: -376
OS2TypoDOffset: 0
OS2TypoLinegap: 60
OS2WinAscent: 1270
OS2WinAOffset: 0
OS2WinDescent: 687
OS2WinDOffset: 0
HheadAscent: 1270
HheadAOffset: 0
HheadDescent: -687
HheadDOffset: 0
OS2SubXSize: 700
OS2SubYSize: 650
OS2SubXOff: 0
OS2SubYOff: 140
OS2SupXSize: 700
OS2SupYSize: 650
OS2SupXOff: 0
OS2SupYOff: 477
OS2StrikeYSize: 30
OS2StrikeYPos: 250
OS2FamilyClass: 2053
OS2Vendor: 'psk '
OS2CodePages: 60010183.80000000
OS2UnicodeRanges: a100006f.5000205a.00000000.00000000
Lookup: 4 0 0 "'frac' Diagonal Fractions in Latin lookup 0"  {"'frac' Diagonal Fractions in Latin lookup 0 subtable"  } ['frac' ('latn' <'dflt' > ) ]
Lookup: 4 0 1 "'rlig' Required Ligatures in Latin lookup 1"  {"'rlig' Required Ligatures in Latin lookup 1 subtable"  } ['rlig' ('latn' <'dflt' > ) ]
Lookup: 4 0 1 "'rlig' Required Ligatures in Latin lookup 2"  {"'rlig' Required Ligatures in Latin lookup 2 subtable"  } ['rlig' ('latn' <'dflt' > ) ]
Lookup: 6 0 0 "'rlig' Required Ligatures in Latin lookup 3"  {"'rlig' Required Ligatures in Latin lookup 3 subtable"  } ['rlig' ('latn' <'dflt' > ) ]

StartChar: .notdef
Encoding: 65536 -1 0
Width: 1049
VWidth: 1504
Flags: W
LayerCount: 2
Fore
SplineSet
970 0 m 1,0,-1
 80 0 l 1,1,-1
 80 1217 l 1,2,-1
 970 1217 l 1,3,-1
 970 0 l 1,0,-1
916 47 m 1,4,-1
 916 1170 l 1,5,-1
 134 1170 l 1,6,-1
 134 47 l 1,7,-1
 916 47 l 1,4,-1
EndSplineSet
EndChar

StartChar: exclam
Encoding: 33 33 2
Width: 252
VWidth: 1504
Flags: W
LayerCount: 2
Fore
SplineSet
144 209 m 1,0,-1
 60 209 l 1,1,-1
 158 716 l 1,2,-1
 266 716 l 1,3,-1
 144 209 l 1,0,-1
144 59 m 256,4,5
 138 29 138 29 112.5 7.5 c 128,-1,6
 87 -14 87 -14 57 -14 c 256,7,8
 27 -14 27 -14 11 7.5 c 128,-1,9
 -5 29 -5 29 0 59 c 0,10,11
 6 89 6 89 31.5 110 c 128,-1,12
 57 131 57 131 87 131 c 256,13,14
 117 131 117 131 133.5 110 c 128,-1,15
 150 89 150 89 144 59 c 256,4,5
EndSplineSet
EndChar

StartChar: quotedbl
Encoding: 34 34 3
Width: 437
VWidth: 1504
Flags: W
LayerCount: 2
Fore
SplineSet
384 501 m 1,0,-1
 314 501 l 1,1,-1
 356 791 l 1,2,-1
 463 791 l 1,3,-1
 384 501 l 1,0,-1
200 501 m 1,4,-1
 132 501 l 1,5,-1
 174 791 l 1,6,-1
 281 791 l 1,7,-1
 200 501 l 1,4,-1
EndSplineSet
EndChar

StartChar: numbersign
Encoding: 35 35 4
Width: 694
VWidth: 1504
Flags: W
LayerCount: 2
Fore
SplineSet
418 0 m 1,0,-1
 329 0 l 1,1,-1
 405 214 l 1,2,-1
 211 214 l 1,3,-1
 140 0 l 1,4,-1
 51 0 l 1,5,-1
 122 214 l 1,6,-1
 29 214 l 1,7,-1
 45 293 l 1,8,-1
 149 293 l 1,9,-1
 196 427 l 1,10,-1
 93 427 l 1,11,-1
 110 508 l 1,12,-1
 221 508 l 1,13,-1
 293 714 l 1,14,-1
 379 714 l 1,15,-1
 310 508 l 1,16,-1
 501 508 l 1,17,-1
 570 714 l 1,18,-1
 659 714 l 1,19,-1
 590 508 l 1,20,-1
 684 508 l 1,21,-1
 668 427 l 1,22,-1
 561 427 l 1,23,-1
 516 293 l 1,24,-1
 617 293 l 1,25,-1
 600 214 l 1,26,-1
 492 214 l 1,27,-1
 418 0 l 1,0,-1
429 293 m 1,28,-1
 475 427 l 1,29,-1
 283 427 l 1,30,-1
 238 293 l 1,31,-1
 429 293 l 1,28,-1
EndSplineSet
EndChar

StartChar: dollar
Encoding: 36 36 5
Width: 552
VWidth: 1504
Flags: W
LayerCount: 2
Fore
SplineSet
465 208 m 0,0,1
 451 145 451 145 394.5 93.5 c 128,-1,2
 338 42 338 42 259 26 c 1,3,-1
 236 -83 l 1,4,-1
 147 -83 l 1,5,-1
 170 23 l 1,6,7
 72 32 72 32 15 84 c 1,8,-1
 72 156 l 1,9,10
 126 103 126 103 218 104 c 0,11,12
 278 104 278 104 320.5 131.5 c 128,-1,13
 363 159 363 159 372 205 c 0,14,15
 387 276 387 276 277 326 c 0,16,17
 103 407 103 407 126 517 c 0,18,19
 140 582 140 582 192.5 628.5 c 128,-1,20
 245 675 245 675 323 690 c 1,21,-1
 347 802 l 1,22,-1
 435 802 l 1,23,-1
 411 692 l 1,24,25
 480 683 480 683 545 642 c 1,26,-1
 484 569 l 1,27,28
 442 613 442 613 353 612 c 0,29,30
 303 612 303 612 265 589 c 128,-1,31
 227 566 227 566 220 525 c 0,32,33
 208 468 208 468 326 409 c 0,34,35
 416 365 416 365 447.5 320.5 c 128,-1,36
 479 276 479 276 465 208 c 0,0,1
EndSplineSet
EndChar

StartChar: percent
Encoding: 37 37 6
Width: 1034
VWidth: 1504
Flags: W
LayerCount: 2
Fore
SplineSet
257 -14 m 1,0,-1
 165 -14 l 1,1,-1
 779 716 l 1,2,-1
 871 716 l 1,3,-1
 257 -14 l 1,0,-1
456 508 m 0,4,5
 409 288 409 288 230 289 c 0,6,7
 53 289 53 289 99 508 c 0,8,9
 147 729 147 729 325 730 c 0,10,11
 504 729 504 729 456 508 c 0,4,5
367 508 m 0,12,13
 397 649 397 649 307 650 c 0,14,15
 220 650 220 650 190 508 c 0,16,17
 161 370 161 370 248 370 c 0,18,19
 338 370 338 370 367 508 c 0,12,13
954 209 m 0,20,21
 907 -12 907 -12 727 -12 c 0,22,23
 548 -12 548 -12 594 209 c 0,24,25
 641 429 641 429 820 429 c 0,26,27
 1001 429 1001 429 954 209 c 0,20,21
863 209 m 0,28,29
 893 350 893 350 803 350 c 0,30,31
 714 350 714 350 684 209 c 0,32,33
 654 69 654 69 743 69 c 0,34,35
 833 69 833 69 863 209 c 0,28,29
EndSplineSet
EndChar

StartChar: ampersand
Encoding: 38 38 7
Width: 731
VWidth: 1504
Flags: W
LayerCount: 2
Fore
SplineSet
561 -21 m 1,0,-1
 478 72 l 1,1,2
 341 -14 341 -14 220 -14 c 0,3,4
 118 -14 118 -14 63.5 49.5 c 128,-1,5
 9 113 9 113 29 202 c 0,6,7
 58 336 58 336 217 414 c 1,8,9
 176 486 176 486 191 554 c 0,10,11
 208 632 208 632 274 686 c 128,-1,12
 340 740 340 740 426 740 c 0,13,14
 500 740 500 740 538 695.5 c 128,-1,15
 576 651 576 651 561 582 c 0,16,17
 535 463 535 463 347 384 c 1,18,19
 398 309 398 309 496 190 c 1,20,21
 591 286 591 286 626 400 c 1,22,-1
 705 400 l 1,23,24
 649 238 649 238 548 134 c 1,25,26
 605 69 605 69 650 21 c 1,27,-1
 561 -21 l 1,0,-1
472 578 m 0,28,29
 490 664 490 664 405 663 c 0,30,31
 360 663 360 663 326.5 633 c 128,-1,32
 293 603 293 603 284 560 c 0,33,34
 273 516 273 516 316 448 c 1,35,36
 458 513 458 513 472 578 c 0,28,29
430 128 m 1,37,38
 259 350 l 1,39,40
 143 291 143 291 125 208 c 0,41,42
 111 146 111 146 146.5 107 c 128,-1,43
 182 68 182 68 248 68 c 0,44,45
 347 68 347 68 430 128 c 1,37,38
EndSplineSet
EndChar

StartChar: quotesingle
Encoding: 39 39 8
Width: 254
VWidth: 1504
Flags: W
LayerCount: 2
Fore
SplineSet
200 501 m 1,0,-1
 132 501 l 1,1,-1
 174 791 l 1,2,-1
 281 791 l 1,3,-1
 200 501 l 1,0,-1
EndSplineSet
EndChar

StartChar: parenleft
Encoding: 40 40 9
Width: 367
VWidth: 1504
Flags: W
LayerCount: 2
Fore
SplineSet
159 -83 m 1,0,1
 21 101 21 101 74 353 c 1,2,3
 125 589 125 589 341 797 c 1,4,-1
 453 797 l 1,5,6
 218 588 218 588 167 353 c 1,7,8
 120 130 120 130 265 -83 c 1,9,-1
 159 -83 l 1,0,1
EndSplineSet
EndChar

StartChar: parenright
Encoding: 41 41 10
Width: 367
VWidth: 1504
Flags: W
LayerCount: 2
Fore
SplineSet
308 358 m 0,0,1
 255 111 255 111 38 -83 c 1,2,-1
 -65 -83 l 1,3,4
 168 141 168 141 215 358 c 0,5,6
 262 576 262 576 119 797 c 1,7,-1
 223 797 l 1,8,9
 361 606 361 606 308 358 c 0,0,1
EndSplineSet
EndChar

StartChar: asterisk
Encoding: 42 42 11
Width: 515
VWidth: 1504
Flags: W
LayerCount: 2
Fore
SplineSet
421 417 m 1,0,-1
 335 372 l 1,1,-1
 296 501 l 1,2,-1
 203 372 l 1,3,-1
 135 417 l 1,4,-1
 254 532 l 1,5,-1
 102 519 l 1,6,-1
 119 597 l 1,7,-1
 265 585 l 1,8,-1
 197 701 l 1,9,-1
 283 746 l 1,10,-1
 322 617 l 1,11,-1
 415 746 l 1,12,-1
 483 701 l 1,13,-1
 364 585 l 1,14,-1
 516 597 l 1,15,-1
 499 520 l 1,16,-1
 353 532 l 1,17,-1
 421 417 l 1,0,-1
EndSplineSet
EndChar

StartChar: plus
Encoding: 43 43 12
Width: 627
VWidth: 1504
Flags: W
LayerCount: 2
Fore
SplineSet
295 0 m 1,0,-1
 200 0 l 1,1,-1
 250 236 l 1,2,-1
 27 236 l 1,3,-1
 45 319 l 1,4,-1
 268 319 l 1,5,-1
 316 546 l 1,6,-1
 411 546 l 1,7,-1
 363 319 l 1,8,-1
 585 319 l 1,9,-1
 567 236 l 1,10,-1
 344 236 l 1,11,-1
 295 0 l 1,0,-1
EndSplineSet
EndChar

StartChar: comma
Encoding: 44 44 13
Width: 258
VWidth: 1504
Flags: W
LayerCount: 2
Fore
SplineSet
150 56 m 0,0,1
 118 -93 118 -93 -30 -161 c 1,2,-1
 -53 -117 l 1,3,4
 36 -69 36 -69 60 -12 c 1,5,6
 -11 -7 -11 -7 3 63 c 0,7,8
 11 95 11 95 37 116.5 c 128,-1,9
 63 138 63 138 93 138 c 0,10,11
 125 138 125 138 141.5 115 c 128,-1,12
 158 92 158 92 150 56 c 0,0,1
EndSplineSet
EndChar

StartChar: hyphen
Encoding: 45 45 14
AltUni2: 0000ad.ffffffff.0
Width: 339
VWidth: 1504
Flags: W
LayerCount: 2
Fore
SplineSet
287 236 m 1,0,-1
 -11 236 l 1,1,-1
 21 317 l 1,2,-1
 320 317 l 1,3,-1
 287 236 l 1,0,-1
EndSplineSet
EndChar

StartChar: period
Encoding: 46 46 15
Width: 258
VWidth: 1504
Flags: W
LayerCount: 2
Fore
SplineSet
147 59 m 256,0,1
 141 29 141 29 115.5 7.5 c 128,-1,2
 90 -14 90 -14 60 -14 c 256,3,4
 30 -14 30 -14 14 7.5 c 128,-1,5
 -2 29 -2 29 3 59 c 0,6,7
 9 89 9 89 34.5 110 c 128,-1,8
 60 131 60 131 90 131 c 256,9,10
 120 131 120 131 136.5 110 c 128,-1,11
 153 89 153 89 147 59 c 256,0,1
EndSplineSet
EndChar

StartChar: slash
Encoding: 47 47 16
Width: 415
VWidth: 1504
Flags: W
LayerCount: 2
Fore
SplineSet
-23 -42 m 1,0,-1
 -119 -42 l 1,1,-1
 447 740 l 1,2,-1
 543 740 l 1,3,-1
 -23 -42 l 1,0,-1
EndSplineSet
EndChar

StartChar: zero
Encoding: 48 48 17
Width: 568
VWidth: 1504
Flags: W
LayerCount: 2
Fore
SplineSet
532 353 m 0,0,1
 500 201 500 201 414.5 93.5 c 128,-1,2
 329 -14 329 -14 212 -14 c 0,3,4
 99 -14 99 -14 58.5 94 c 128,-1,5
 18 202 18 202 50 353 c 0,6,7
 83 505 83 505 168.5 613 c 128,-1,8
 254 721 254 721 367 721 c 0,9,10
 484 721 484 721 524.5 613 c 128,-1,11
 565 505 565 505 532 353 c 0,0,1
436 353 m 0,12,13
 463 479 463 479 444.5 558.5 c 128,-1,14
 426 638 426 638 353 638 c 0,15,16
 279 638 279 638 226 559 c 128,-1,17
 173 480 173 480 146 353 c 0,18,19
 120 227 120 227 139 148 c 128,-1,20
 158 69 158 69 230 69 c 0,21,22
 304 69 304 69 357 148 c 128,-1,23
 410 227 410 227 436 353 c 0,12,13
EndSplineSet
EndChar

StartChar: one
Encoding: 49 49 18
Width: 568
VWidth: 1504
Flags: W
LayerCount: 2
Fore
SplineSet
396 0 m 1,0,-1
 78 0 l 1,1,-1
 93 77 l 1,2,-1
 205 77 l 1,3,-1
 311 576 l 1,4,-1
 200 496 l 1,5,-1
 156 558 l 1,6,-1
 382 719 l 1,7,8
 438 719 438 719 423 647 c 2,9,-1
 301 77 l 1,10,-1
 411 77 l 1,11,-1
 396 0 l 1,0,-1
EndSplineSet
EndChar

StartChar: two
Encoding: 50 50 19
Width: 568
VWidth: 1504
Flags: W
LayerCount: 2
Fore
SplineSet
457 0 m 1,0,-1
 -30 0 l 1,1,2
 -3 66 -3 66 18 108 c 1,3,4
 68 156 68 156 307 343 c 0,5,6
 454 459 454 459 471 532 c 0,7,8
 492 631 492 631 375 632 c 0,9,10
 259 632 259 632 208 498 c 1,11,-1
 123 520 l 1,12,13
 155 616 155 616 230 669 c 0,14,15
 301 719 301 719 394 719 c 0,16,17
 486 719 486 719 535 665 c 128,-1,18
 584 611 584 611 566 528 c 0,19,20
 551 454 551 454 453 361 c 0,21,22
 393 305 393 305 259 206 c 0,23,24
 139 117 139 117 108 84 c 1,25,-1
 492 84 l 1,26,-1
 457 0 l 1,0,-1
EndSplineSet
EndChar

StartChar: three
Encoding: 51 51 20
Width: 568
VWidth: 1504
Flags: W
LayerCount: 2
Fore
SplineSet
505 248 m 0,0,1
 479 131 479 131 381 59.5 c 128,-1,2
 283 -12 283 -12 147 -12 c 0,3,4
 45 -12 45 -12 -15 51 c 1,5,-1
 42 128 l 1,6,7
 99 80 99 80 182 80 c 0,8,9
 260 80 260 80 328 129.5 c 128,-1,10
 396 179 396 179 409 245 c 0,11,12
 420 293 420 293 396 326.5 c 128,-1,13
 372 360 372 360 325 360 c 0,14,15
 269 360 269 360 209 316 c 1,16,-1
 182 382 l 1,17,18
 265 424 265 424 334 477 c 0,19,20
 415 540 415 540 423 579 c 0,21,22
 437 638 437 638 353 638 c 0,23,24
 299 638 299 638 246 603.5 c 128,-1,25
 193 569 193 569 162 522 c 1,26,-1
 102 557 l 1,27,28
 147 632 147 632 220 675.5 c 128,-1,29
 293 719 293 719 375 719 c 0,30,31
 447 719 447 719 486.5 681.5 c 128,-1,32
 526 644 526 644 514 581 c 1,33,34
 500 519 500 519 391 439 c 1,35,36
 459 425 459 425 489.5 374 c 128,-1,37
 520 323 520 323 505 248 c 0,0,1
EndSplineSet
EndChar

StartChar: four
Encoding: 52 52 21
Width: 568
VWidth: 1504
Flags: W
LayerCount: 2
Fore
SplineSet
329 241 m 1,0,-1
 406 608 l 1,1,2
 325 561 325 561 244.5 455.5 c 128,-1,3
 164 350 164 350 122 241 c 1,4,-1
 329 241 l 1,0,-1
375 0 m 1,5,-1
 278 0 l 1,6,-1
 311 159 l 1,7,-1
 9 159 l 1,8,9
 50 347 50 347 208.5 534.5 c 128,-1,10
 367 722 367 722 529 736 c 1,11,-1
 426 241 l 1,12,-1
 522 241 l 1,13,-1
 493 159 l 1,14,-1
 408 159 l 1,15,-1
 375 0 l 1,5,-1
EndSplineSet
EndChar

StartChar: five
Encoding: 53 53 22
Width: 568
VWidth: 1504
Flags: W
LayerCount: 2
Fore
SplineSet
507 253 m 0,0,1
 483 136 483 136 384.5 62 c 128,-1,2
 286 -12 286 -12 155 -12 c 0,3,4
 44 -12 44 -12 -15 53 c 1,5,-1
 39 122 l 1,6,7
 111 69 111 69 182 69 c 0,8,9
 260 69 260 69 327 121 c 128,-1,10
 394 173 394 173 411 251 c 0,11,12
 425 316 425 316 390 351.5 c 128,-1,13
 355 387 355 387 284 387 c 256,14,15
 213 387 213 387 182 337 c 1,16,-1
 122 334 l 1,17,-1
 229 716 l 1,18,-1
 587 716 l 1,19,-1
 552 635 l 1,20,-1
 302 635 l 1,21,-1
 256 460 l 1,22,23
 285 472 285 472 322 472 c 0,24,25
 421 472 421 472 474.5 410.5 c 128,-1,26
 528 349 528 349 507 253 c 0,0,1
EndSplineSet
EndChar

StartChar: six
Encoding: 54 54 23
Width: 568
VWidth: 1504
Flags: W
LayerCount: 2
Fore
SplineSet
493 226 m 0,0,1
 472 125 472 125 397 56.5 c 128,-1,2
 322 -12 322 -12 227 -12 c 0,3,4
 122 -12 122 -12 69.5 61.5 c 128,-1,5
 17 135 17 135 42 257 c 0,6,7
 78 430 78 430 221 562.5 c 128,-1,8
 364 695 364 695 555 731 c 1,9,-1
 548 656 l 1,10,11
 449 630 449 630 348.5 563 c 128,-1,12
 248 496 248 496 193 414 c 1,13,14
 250 461 250 461 331 460 c 0,15,16
 421 460 421 460 467.5 392.5 c 128,-1,17
 514 325 514 325 493 226 c 0,0,1
406 226 m 0,18,19
 420 286 420 286 390.5 332.5 c 128,-1,20
 361 379 361 379 307 379 c 0,21,22
 250 379 250 379 201 334.5 c 128,-1,23
 152 290 152 290 137 226 c 0,24,25
 123 163 123 163 154 117.5 c 128,-1,26
 185 72 185 72 242 72 c 0,27,28
 296 72 296 72 345 119 c 128,-1,29
 394 166 394 166 406 226 c 0,18,19
EndSplineSet
EndChar

StartChar: seven
Encoding: 55 55 24
Width: 568
VWidth: 1504
Flags: W
LayerCount: 2
Fore
SplineSet
230 0 m 1,0,-1
 132 0 l 1,1,2
 233 420 233 420 478 635 c 1,3,-1
 110 635 l 1,4,-1
 150 716 l 1,5,-1
 618 716 l 1,6,-1
 587 635 l 1,7,8
 441 491 441 491 363 358 c 0,9,10
 274 206 274 206 230 0 c 1,0,-1
EndSplineSet
EndChar

StartChar: eight
Encoding: 56 56 25
Width: 568
VWidth: 1504
Flags: W
LayerCount: 2
Fore
SplineSet
405 197 m 0,0,1
 417 253 417 253 389 298 c 128,-1,2
 361 343 361 343 292 347 c 1,3,4
 220 342 220 342 172.5 297.5 c 128,-1,5
 125 253 125 253 113 197 c 0,6,7
 101 138 101 138 134 103.5 c 128,-1,8
 167 69 167 69 232 69 c 256,9,10
 297 69 297 69 345 103.5 c 128,-1,11
 393 138 393 138 405 197 c 0,0,1
456 534 m 0,12,13
 465 579 465 579 437 609 c 128,-1,14
 409 639 409 639 353 639 c 256,15,16
 297 639 297 639 256 609 c 128,-1,17
 215 579 215 579 206 534 c 0,18,19
 191 460 191 460 307 426 c 1,20,21
 441 460 441 460 456 534 c 0,12,13
498 202 m 0,22,23
 477 103 477 103 400 45.5 c 128,-1,24
 323 -12 323 -12 214 -12 c 0,25,26
 106 -12 106 -12 54 45 c 128,-1,27
 2 102 2 102 23 202 c 0,28,29
 35 262 35 262 80 313 c 128,-1,30
 125 364 125 364 182 388 c 1,31,32
 96 441 96 441 114 529 c 0,33,34
 132 612 132 612 204.5 666.5 c 128,-1,35
 277 721 277 721 370 721 c 256,36,37
 463 721 463 721 513 666.5 c 128,-1,38
 563 612 563 612 545 529 c 0,39,40
 527 440 527 440 417 388 c 1,41,42
 465 364 465 364 487.5 313 c 128,-1,43
 510 262 510 262 498 202 c 0,22,23
EndSplineSet
EndChar

StartChar: nine
Encoding: 57 57 26
Width: 568
VWidth: 1504
Flags: W
LayerCount: 2
Fore
SplineSet
542 450 m 0,0,1
 506 277 506 277 363 144.5 c 128,-1,2
 220 12 220 12 29 -24 c 1,3,-1
 36 51 l 1,4,5
 132 75 132 75 239 147.5 c 128,-1,6
 346 220 346 220 397 295 c 1,7,8
 343 247 343 247 253 247 c 256,9,10
 163 247 163 247 115.5 314.5 c 128,-1,11
 68 382 68 382 90 481 c 1,12,13
 111 582 111 582 186.5 650.5 c 128,-1,14
 262 719 262 719 356 719 c 0,15,16
 461 719 461 719 514.5 645.5 c 128,-1,17
 568 572 568 572 542 450 c 0,0,1
447 481 m 1,18,19
 459 544 459 544 429 589.5 c 128,-1,20
 399 635 399 635 341 635 c 0,21,22
 287 635 287 635 238.5 588.5 c 128,-1,23
 190 542 190 542 177 481 c 0,24,25
 163 421 163 421 193 374.5 c 128,-1,26
 223 328 223 328 277 328 c 0,27,28
 334 328 334 328 383 372 c 128,-1,29
 432 416 432 416 447 481 c 1,18,19
EndSplineSet
EndChar

StartChar: colon
Encoding: 58 58 27
Width: 258
VWidth: 1504
Flags: W
LayerCount: 2
Fore
SplineSet
147 59 m 256,0,1
 141 29 141 29 115.5 7.5 c 128,-1,2
 90 -14 90 -14 60 -14 c 256,3,4
 30 -14 30 -14 14 7.5 c 128,-1,5
 -2 29 -2 29 3 59 c 0,6,7
 9 89 9 89 34.5 110 c 128,-1,8
 60 131 60 131 90 131 c 256,9,10
 120 131 120 131 136.5 110 c 128,-1,11
 153 89 153 89 147 59 c 256,0,1
226 429 m 256,12,13
 220 399 220 399 194 377.5 c 128,-1,14
 168 356 168 356 138 356 c 256,15,16
 108 356 108 356 91.5 377.5 c 128,-1,17
 75 399 75 399 81 429 c 256,18,19
 87 459 87 459 112.5 480 c 128,-1,20
 138 501 138 501 168 501 c 256,21,22
 198 501 198 501 215 480 c 128,-1,23
 232 459 232 459 226 429 c 256,12,13
EndSplineSet
EndChar

StartChar: semicolon
Encoding: 59 59 28
Width: 258
VWidth: 1504
Flags: W
LayerCount: 2
Fore
SplineSet
226 429 m 256,0,1
 220 399 220 399 194 377.5 c 128,-1,2
 168 356 168 356 138 356 c 256,3,4
 108 356 108 356 91.5 377.5 c 128,-1,5
 75 399 75 399 81 429 c 256,6,7
 87 459 87 459 112.5 480 c 128,-1,8
 138 501 138 501 168 501 c 256,9,10
 198 501 198 501 215 480 c 128,-1,11
 232 459 232 459 226 429 c 256,0,1
150 56 m 0,12,13
 118 -93 118 -93 -30 -161 c 1,14,-1
 -53 -117 l 1,15,16
 36 -69 36 -69 60 -12 c 1,17,18
 -11 -7 -11 -7 3 63 c 0,19,20
 11 95 11 95 37 116.5 c 128,-1,21
 63 138 63 138 93 138 c 0,22,23
 125 138 125 138 141.5 115 c 128,-1,24
 158 92 158 92 150 56 c 0,12,13
EndSplineSet
EndChar

StartChar: less
Encoding: 60 60 29
Width: 627
VWidth: 1504
Flags: W
LayerCount: 2
Fore
SplineSet
502 -15 m 1,0,-1
 42 256 l 1,1,-1
 54 317 l 1,2,-1
 630 587 l 1,3,-1
 611 492 l 1,4,-1
 168 286 l 1,5,-1
 523 80 l 1,6,-1
 502 -15 l 1,0,-1
EndSplineSet
EndChar

StartChar: equal
Encoding: 61 61 30
Width: 627
VWidth: 1504
Flags: W
LayerCount: 2
Fore
SplineSet
563 335 m 1,0,-1
 74 335 l 1,1,-1
 90 414 l 1,2,-1
 579 414 l 1,3,-1
 563 335 l 1,0,-1
522 146 m 1,4,-1
 33 146 l 1,5,-1
 50 226 l 1,6,-1
 539 226 l 1,7,-1
 522 146 l 1,4,-1
EndSplineSet
EndChar

StartChar: greater
Encoding: 62 62 31
Width: 627
VWidth: 1504
Flags: W
LayerCount: 2
Fore
SplineSet
561 256 m 1,0,-1
 -15 -15 l 1,1,-1
 5 80 l 1,2,-1
 448 287 l 1,3,-1
 92 492 l 1,4,-1
 111 587 l 1,5,-1
 573 317 l 1,6,-1
 561 256 l 1,0,-1
EndSplineSet
EndChar

StartChar: question
Encoding: 63 63 32
Width: 434
VWidth: 1504
Flags: W
LayerCount: 2
Fore
SplineSet
450 558 m 0,0,1
 433 477 433 477 313 376 c 0,2,3
 230 308 230 308 214 239 c 0,4,5
 209 216 209 216 211 176 c 1,6,-1
 125 176 l 1,7,8
 120 221 120 221 125 244 c 0,9,10
 140 318 140 318 242 412.5 c 128,-1,11
 344 507 344 507 355 555 c 0,12,13
 373 641 373 641 268 641 c 0,14,15
 203 641 203 641 134 597 c 1,16,-1
 111 671 l 1,17,18
 212 727 212 727 296 727 c 0,19,20
 382 727 382 727 424.5 681 c 128,-1,21
 467 635 467 635 450 558 c 0,0,1
221 59 m 256,22,23
 215 29 215 29 189.5 7.5 c 128,-1,24
 164 -14 164 -14 134 -14 c 256,25,26
 104 -14 104 -14 87.5 7.5 c 128,-1,27
 71 29 71 29 77 59 c 256,28,29
 83 89 83 89 108.5 110 c 128,-1,30
 134 131 134 131 164 131 c 256,31,32
 194 131 194 131 210.5 110 c 128,-1,33
 227 89 227 89 221 59 c 256,22,23
EndSplineSet
EndChar

StartChar: at
Encoding: 64 64 33
Width: 860
VWidth: 1504
Flags: W
LayerCount: 2
Fore
SplineSet
802 266 m 0,0,1
 776 146 776 146 674 74 c 0,2,3
 584 11 584 11 478 11 c 1,4,-1
 481 65 l 1,5,6
 397 2 397 2 307 2 c 0,7,8
 242 2 242 2 203.5 38.5 c 128,-1,9
 165 75 165 75 177 131 c 0,10,11
 212 295 212 295 513 302 c 1,12,13
 537 416 537 416 429 417 c 0,14,15
 370 417 370 417 314 385 c 1,16,-1
 299 438 l 1,17,18
 380 480 380 480 466 480 c 0,19,20
 546 480 546 480 577.5 427.5 c 128,-1,21
 609 375 609 375 591 284 c 2,22,-1
 558 128 l 2,23,24
 550 93 550 93 549 80 c 1,25,-1
 567 80 l 1,26,27
 623 95 623 95 670.5 148.5 c 128,-1,28
 718 202 718 202 731 263 c 0,29,30
 755 379 755 379 693.5 456.5 c 128,-1,31
 632 534 632 534 501 534 c 0,32,33
 354 534 354 534 241 440 c 128,-1,34
 128 346 128 346 98 205 c 0,35,36
 72 82 72 82 137 0.5 c 128,-1,37
 202 -81 202 -81 322 -81 c 0,38,39
 414 -81 414 -81 516 -33 c 1,40,-1
 531 -93 l 1,41,42
 415 -143 415 -143 304 -143 c 0,43,44
 157 -143 157 -143 75 -47 c 0,45,46
 -9 51 -9 51 21 200 c 1,47,48
 57 370 57 370 200 483 c 128,-1,49
 343 596 343 596 522 596 c 0,50,51
 675 596 675 596 754.5 503 c 128,-1,52
 834 410 834 410 802 266 c 0,0,1
487 161 m 2,53,-1
 505 245 l 1,54,55
 275 236 275 236 254 138 c 0,56,57
 239 67 239 67 322 68 c 0,58,59
 378 68 378 68 424 92 c 0,60,61
 478 119 478 119 487 161 c 2,53,-1
EndSplineSet
EndChar

StartChar: A
Encoding: 65 65 34
Width: 678
VWidth: 1504
Flags: W
LayerCount: 2
Fore
SplineSet
614 0 m 1,0,-1
 510 0 l 1,1,-1
 465 239 l 1,2,-1
 177 239 l 1,3,-1
 35 0 l 1,4,-1
 -68 0 l 1,5,-1
 387 727 l 1,6,-1
 468 727 l 1,7,-1
 614 0 l 1,0,-1
447 320 m 1,8,-1
 405 618 l 1,9,-1
 230 320 l 1,10,-1
 447 320 l 1,8,-1
EndSplineSet
EndChar

StartChar: B
Encoding: 66 66 35
Width: 595
VWidth: 1504
Flags: W
LayerCount: 2
Fore
SplineSet
528 208 m 0,0,1
 481 -9 481 -9 162 -9 c 0,2,3
 94 -9 94 -9 11 11 c 1,4,-1
 158 702 l 1,5,6
 256 725 256 725 334 725 c 0,7,8
 609 725 609 725 569 535 c 0,9,10
 549 439 549 439 447 384 c 1,11,12
 554 328 554 328 528 208 c 0,0,1
474 534 m 0,13,14
 497 642 497 642 316 642 c 0,15,16
 284 642 284 642 239 638 c 1,17,-1
 193 418 l 1,18,-1
 299 418 l 2,19,20
 365 418 365 418 413.5 449 c 128,-1,21
 462 480 462 480 474 534 c 0,13,14
435 206 m 1,22,23
 450 278 450 278 388 313 c 0,24,25
 340 339 340 339 262 338 c 2,26,-1
 174 338 l 1,27,-1
 119 77 l 1,28,29
 145 72 145 72 194 72 c 0,30,31
 292 72 292 72 356 106.5 c 128,-1,32
 420 141 420 141 435 206 c 1,22,23
EndSplineSet
EndChar

StartChar: C
Encoding: 67 67 36
Width: 649
VWidth: 1504
Flags: W
LayerCount: 2
Fore
SplineSet
558 38 m 1,0,1
 438 -10 438 -10 286 -11 c 0,2,3
 143 -11 143 -11 78.5 91 c 128,-1,4
 14 193 14 193 48 356 c 0,5,6
 83 518 83 518 188 618 c 0,7,8
 304 726 304 726 471 727 c 0,9,10
 599 727 599 727 695 683 c 1,11,-1
 648 608 l 1,12,13
 567 646 567 646 457 645 c 0,14,15
 319 645 319 645 232 543 c 0,16,17
 169 468 169 468 143 353 c 1,18,19
 122 248 122 248 158 170 c 1,20,21
 202 71 202 71 322 71 c 0,22,23
 447 71 447 71 549 116 c 1,24,-1
 558 38 l 1,0,1
EndSplineSet
EndChar

StartChar: D
Encoding: 68 68 37
Width: 690
VWidth: 1504
Flags: W
LayerCount: 2
Fore
SplineSet
663 373 m 0,0,1
 628 211 628 211 529 113 c 0,2,3
 409 -6 409 -6 209 -6 c 0,4,5
 147 -6 147 -6 11 9 c 1,6,-1
 158 704 l 1,7,8
 334 724 334 724 394 724 c 0,9,10
 578 724 578 724 642 614 c 1,11,12
 696 525 696 525 663 373 c 0,0,1
567 373 m 0,13,14
 624 642 624 642 372 642 c 0,15,16
 330 642 330 642 238 633 c 1,17,-1
 120 80 l 1,18,19
 168 75 168 75 244 75 c 0,20,21
 390 75 390 75 478 179 c 0,22,23
 543 256 543 256 567 373 c 0,13,14
EndSplineSet
EndChar

StartChar: E
Encoding: 69 69 38
Width: 538
VWidth: 1504
Flags: W
LayerCount: 2
Fore
SplineSet
435 0 m 1,0,-1
 9 0 l 1,1,-1
 161 716 l 1,2,-1
 587 716 l 1,3,-1
 569 635 l 1,4,-1
 238 635 l 1,5,-1
 193 418 l 1,6,-1
 487 418 l 1,7,-1
 469 337 l 1,8,-1
 174 337 l 1,9,-1
 120 81 l 1,10,-1
 451 81 l 1,11,-1
 435 0 l 1,0,-1
EndSplineSet
EndChar

StartChar: F
Encoding: 70 70 39
Width: 538
VWidth: 1504
Flags: W
LayerCount: 2
Fore
SplineSet
104 0 m 1,0,-1
 9 0 l 1,1,-1
 161 716 l 1,2,-1
 602 716 l 1,3,-1
 584 635 l 1,4,-1
 238 635 l 1,5,-1
 190 409 l 1,6,-1
 514 409 l 1,7,-1
 498 329 l 1,8,-1
 173 329 l 1,9,-1
 104 0 l 1,0,-1
EndSplineSet
EndChar

StartChar: G
Encoding: 71 71 40
Width: 682
VWidth: 1504
Flags: W
LayerCount: 2
Fore
SplineSet
560 17 m 1,0,-1
 514 29 l 1,1,2
 418 -10 418 -10 286 -11 c 0,3,4
 143 -11 143 -11 78.5 91 c 128,-1,5
 14 193 14 193 48 356 c 0,6,7
 83 518 83 518 188 618 c 0,8,9
 304 726 304 726 471 727 c 0,10,11
 599 727 599 727 695 683 c 1,12,-1
 648 608 l 1,13,14
 567 646 567 646 457 645 c 0,15,16
 319 645 319 645 232 543 c 0,17,18
 169 468 169 468 143 353 c 1,19,20
 122 248 122 248 158 170 c 1,21,22
 202 71 202 71 322 71 c 0,23,24
 411 71 411 71 481 95 c 1,25,-1
 525 298 l 1,26,-1
 344 298 l 1,27,-1
 361 378 l 1,28,-1
 636 378 l 1,29,-1
 560 17 l 1,0,-1
EndSplineSet
EndChar

StartChar: H
Encoding: 72 72 41
Width: 709
VWidth: 1504
Flags: W
LayerCount: 2
Fore
SplineSet
569 0 m 1,0,-1
 474 0 l 1,1,-1
 546 340 l 1,2,-1
 176 340 l 1,3,-1
 104 0 l 1,4,-1
 9 0 l 1,5,-1
 161 716 l 1,6,-1
 256 716 l 1,7,-1
 193 421 l 1,8,-1
 563 421 l 1,9,-1
 626 716 l 1,10,-1
 721 716 l 1,11,-1
 569 0 l 1,0,-1
EndSplineSet
EndChar

StartChar: I
Encoding: 73 73 42
Width: 245
VWidth: 1504
Flags: W
LayerCount: 2
Fore
SplineSet
104 0 m 1,0,-1
 9 0 l 1,1,-1
 161 716 l 1,2,-1
 256 716 l 1,3,-1
 104 0 l 1,0,-1
EndSplineSet
EndChar

StartChar: J
Encoding: 74 74 43
Width: 424
VWidth: 1504
Flags: W
LayerCount: 2
Fore
SplineSet
334 241 m 2,0,1
 280 -13 280 -13 50 -14 c 0,2,3
 -7 -14 -7 -14 -71 15 c 1,4,-1
 -29 93 l 1,5,6
 7 67 7 67 66 68 c 0,7,8
 137 68 137 68 178.5 110 c 128,-1,9
 220 152 220 152 242 256 c 2,10,-1
 340 716 l 1,11,-1
 435 716 l 1,12,-1
 334 241 l 2,0,1
EndSplineSet
EndChar

StartChar: K
Encoding: 75 75 44
Width: 618
VWidth: 1504
Flags: W
LayerCount: 2
Fore
SplineSet
567 23 m 1,0,-1
 469 -11 l 1,1,-1
 235 344 l 1,2,-1
 164 287 l 1,3,-1
 104 0 l 1,4,-1
 9 0 l 1,5,-1
 161 716 l 1,6,-1
 256 716 l 1,7,-1
 188 400 l 1,8,-1
 599 728 l 1,9,-1
 686 704 l 1,10,-1
 313 408 l 1,11,-1
 567 23 l 1,0,-1
EndSplineSet
EndChar

StartChar: L
Encoding: 76 76 45
Width: 540
VWidth: 1504
Flags: W
LayerCount: 2
Fore
SplineSet
454 0 m 1,0,-1
 9 0 l 1,1,-1
 161 716 l 1,2,-1
 256 716 l 1,3,-1
 120 81 l 1,4,-1
 471 81 l 1,5,-1
 454 0 l 1,0,-1
EndSplineSet
EndChar

StartChar: M
Encoding: 77 77 46
Width: 863
VWidth: 1504
Flags: W
LayerCount: 2
Fore
SplineSet
754 0 m 1,0,-1
 662 0 l 1,1,-1
 740 555 l 1,2,-1
 397 0 l 1,3,-1
 334 0 l 1,4,-1
 226 555 l 1,5,-1
 69 0 l 1,6,-1
 -23 0 l 1,7,-1
 181 716 l 1,8,-1
 280 716 l 1,9,-1
 391 120 l 1,10,-1
 755 716 l 1,11,-1
 854 716 l 1,12,-1
 754 0 l 1,0,-1
EndSplineSet
EndChar

StartChar: N
Encoding: 78 78 47
Width: 709
VWidth: 1504
Flags: W
LayerCount: 2
Fore
SplineSet
569 0 m 1,0,-1
 478 0 l 1,1,-1
 227 581 l 1,2,-1
 104 0 l 1,3,-1
 9 0 l 1,4,-1
 161 716 l 1,5,-1
 256 716 l 1,6,-1
 505 150 l 1,7,-1
 626 716 l 1,8,-1
 721 716 l 1,9,-1
 569 0 l 1,0,-1
EndSplineSet
EndChar

StartChar: O
Encoding: 79 79 48
Width: 779
VWidth: 1504
Flags: W
LayerCount: 2
Fore
SplineSet
656 358 m 0,0,1
 683 481 683 481 629.5 564.5 c 128,-1,2
 576 648 576 648 460 648 c 256,3,4
 344 648 344 648 256 564.5 c 128,-1,5
 168 481 168 481 141 358 c 0,6,7
 115 235 115 235 168 151.5 c 128,-1,8
 221 68 221 68 337 68 c 256,9,10
 453 68 453 68 541.5 151.5 c 128,-1,11
 630 235 630 235 656 358 c 0,0,1
749 356 m 256,12,13
 716 198 716 198 595 91.5 c 128,-1,14
 474 -15 474 -15 319 -15 c 256,15,16
 164 -15 164 -15 89.5 92 c 128,-1,17
 15 199 15 199 48 356 c 256,18,19
 81 514 81 514 202 622 c 128,-1,20
 323 730 323 730 478 730 c 256,21,22
 633 730 633 730 707.5 622 c 128,-1,23
 782 514 782 514 749 356 c 256,12,13
EndSplineSet
EndChar

StartChar: P
Encoding: 80 80 49
Width: 586
VWidth: 1504
Flags: W
LayerCount: 2
Fore
SplineSet
591 510 m 0,0,1
 568 406 568 406 471.5 342 c 128,-1,2
 375 278 375 278 238 278 c 0,3,4
 203 278 203 278 162 283 c 1,5,-1
 104 0 l 1,6,-1
 9 0 l 1,7,-1
 158 705 l 1,8,9
 271 723 271 723 353 724 c 0,10,11
 485 724 485 724 548 664.5 c 128,-1,12
 611 605 611 605 591 510 c 0,0,1
495 505 m 0,13,14
 524 642 524 642 334 642 c 0,15,16
 283 642 283 642 239 638 c 1,17,-1
 182 369 l 1,18,19
 230 360 230 360 265 360 c 0,20,21
 463 359 463 359 495 505 c 0,13,14
EndSplineSet
EndChar

StartChar: Q
Encoding: 81 81 50
Width: 779
VWidth: 1504
Flags: W
LayerCount: 2
Fore
SplineSet
656 358 m 0,0,1
 683 481 683 481 629.5 564.5 c 128,-1,2
 576 648 576 648 460 648 c 256,3,4
 344 648 344 648 256 564.5 c 128,-1,5
 168 481 168 481 141 358 c 0,6,7
 115 235 115 235 168 151.5 c 128,-1,8
 221 68 221 68 337 68 c 256,9,10
 453 68 453 68 541.5 151.5 c 128,-1,11
 630 235 630 235 656 358 c 0,0,1
749 356 m 0,12,13
 723 236 723 236 648 148 c 128,-1,14
 573 60 573 60 466 26 c 1,15,-1
 465 20 l 1,16,17
 579 -10 579 -10 674 -26 c 1,18,-1
 626 -107 l 1,19,20
 519 -77 519 -77 358 -21 c 0,21,22
 350 -18 350 -18 319 -15 c 1,23,24
 164 -15 164 -15 89.5 92 c 128,-1,25
 15 199 15 199 48 356 c 256,26,27
 81 514 81 514 202 622 c 128,-1,28
 323 730 323 730 478 730 c 256,29,30
 633 730 633 730 707.5 622 c 128,-1,31
 782 514 782 514 749 356 c 0,12,13
EndSplineSet
EndChar

StartChar: R
Encoding: 82 82 51
Width: 594
VWidth: 1504
Flags: W
LayerCount: 2
Fore
SplineSet
505 0 m 1,0,-1
 411 0 l 1,1,2
 435 311 435 311 289 311 c 2,3,-1
 168 311 l 1,4,-1
 104 0 l 1,5,-1
 9 0 l 1,6,-1
 158 704 l 1,7,8
 271 724 271 724 356 724 c 0,9,10
 484 724 484 724 547.5 669.5 c 128,-1,11
 611 615 611 615 591 522 c 0,12,13
 565 399 565 399 436 344 c 1,14,15
 484 306 484 306 499 234 c 128,-1,16
 514 162 514 162 505 0 c 1,0,-1
498 516 m 1,17,18
 525 641 525 641 338 641 c 0,19,20
 278 641 278 641 238 636 c 1,21,-1
 187 390 l 1,22,-1
 302 390 l 2,23,24
 472 390 472 390 498 516 c 1,17,18
EndSplineSet
EndChar

StartChar: S
Encoding: 83 83 52
Width: 549
VWidth: 1504
Flags: W
LayerCount: 2
Fore
SplineSet
484 196 m 0,0,1
 464 103 464 103 378 44.5 c 128,-1,2
 292 -14 292 -14 181 -14 c 0,3,4
 62 -14 62 -14 -26 51 c 1,5,-1
 32 137 l 1,6,7
 104 72 104 72 205 72 c 0,8,9
 279 72 279 72 327.5 104.5 c 128,-1,10
 376 137 376 137 387 191 c 0,11,12
 407 281 407 281 272 328 c 0,13,14
 73 396 73 396 104 535 c 0,15,16
 122 619 122 619 201 674.5 c 128,-1,17
 280 730 280 730 387 730 c 256,18,19
 494 730 494 730 561 681 c 1,20,-1
 504 606 l 1,21,22
 436 644 436 644 366 644 c 0,23,24
 301 644 301 644 255 614.5 c 128,-1,25
 209 585 209 585 200 543 c 0,26,27
 183 460 183 460 317 414 c 0,28,29
 427 376 427 376 464.5 326.5 c 128,-1,30
 502 277 502 277 484 196 c 0,0,1
EndSplineSet
EndChar

StartChar: T
Encoding: 84 84 53
Width: 633
VWidth: 1504
Flags: W
LayerCount: 2
Fore
SplineSet
299 0 m 1,0,-1
 205 0 l 1,1,-1
 338 635 l 1,2,-1
 74 635 l 1,3,-1
 92 716 l 1,4,-1
 713 716 l 1,5,-1
 695 635 l 1,6,-1
 433 635 l 1,7,-1
 299 0 l 1,0,-1
EndSplineSet
EndChar

StartChar: U
Encoding: 85 85 54
Width: 725
VWidth: 1504
Flags: W
LayerCount: 2
Fore
SplineSet
648 305 m 2,0,1
 580 -14 580 -14 293 -14 c 256,2,3
 6 -14 6 -14 74 305 c 2,4,-1
 161 716 l 1,5,-1
 257 716 l 1,6,-1
 170 305 l 2,7,8
 119 67 119 67 310 68 c 256,9,10
 501 68 501 68 552 305 c 2,11,-1
 639 716 l 1,12,-1
 736 716 l 1,13,-1
 648 305 l 2,0,1
EndSplineSet
EndChar

StartChar: V
Encoding: 86 86 55
Width: 634
VWidth: 1504
Flags: W
LayerCount: 2
Fore
SplineSet
295 0 m 1,0,-1
 208 0 l 1,1,-1
 84 716 l 1,2,-1
 187 716 l 1,3,-1
 278 129 l 1,4,-1
 620 716 l 1,5,-1
 722 716 l 1,6,-1
 295 0 l 1,0,-1
EndSplineSet
EndChar

StartChar: W
Encoding: 87 87 56
Width: 920
VWidth: 1504
Flags: W
LayerCount: 2
Fore
SplineSet
662 0 m 1,0,-1
 575 0 l 1,1,-1
 517 585 l 1,2,-1
 214 0 l 1,3,-1
 126 0 l 1,4,-1
 80 716 l 1,5,-1
 184 716 l 1,6,-1
 202 144 l 1,7,-1
 501 716 l 1,8,-1
 591 716 l 1,9,-1
 647 144 l 1,10,-1
 909 716 l 1,11,-1
 1012 716 l 1,12,-1
 662 0 l 1,0,-1
EndSplineSet
EndChar

StartChar: X
Encoding: 88 88 57
Width: 640
VWidth: 1504
Flags: W
LayerCount: 2
Fore
SplineSet
578 0 m 1,0,-1
 465 0 l 1,1,-1
 319 290 l 1,2,-1
 47 0 l 1,3,-1
 -68 0 l 1,4,-1
 275 367 l 1,5,-1
 95 716 l 1,6,-1
 211 716 l 1,7,-1
 349 436 l 1,8,-1
 603 716 l 1,9,-1
 721 716 l 1,10,-1
 390 367 l 1,11,-1
 578 0 l 1,0,-1
EndSplineSet
EndChar

StartChar: Y
Encoding: 89 89 58
Width: 595
VWidth: 1504
Flags: W
LayerCount: 2
Fore
SplineSet
280 0 m 1,0,-1
 187 0 l 1,1,-1
 253 313 l 1,2,-1
 77 716 l 1,3,-1
 187 716 l 1,4,-1
 316 394 l 1,5,-1
 582 716 l 1,6,-1
 690 716 l 1,7,-1
 346 314 l 1,8,-1
 280 0 l 1,0,-1
EndSplineSet
EndChar

StartChar: Z
Encoding: 90 90 59
Width: 678
VWidth: 1504
Flags: W
LayerCount: 2
Fore
SplineSet
575 0 m 1,0,-1
 -26 0 l 1,1,-1
 -12 60 l 1,2,-1
 573 635 l 1,3,-1
 132 635 l 1,4,-1
 167 716 l 1,5,-1
 722 716 l 1,6,-1
 708 654 l 1,7,-1
 122 81 l 1,8,-1
 609 81 l 1,9,-1
 575 0 l 1,0,-1
EndSplineSet
EndChar

StartChar: bracketleft
Encoding: 91 91 60
Width: 351
VWidth: 1504
Flags: W
LayerCount: 2
Fore
SplineSet
215 -116 m 1,0,-1
 -21 -116 l 1,1,-1
 171 794 l 1,2,-1
 409 794 l 1,3,-1
 393 716 l 1,4,-1
 244 716 l 1,5,-1
 83 -39 l 1,6,-1
 232 -39 l 1,7,-1
 215 -116 l 1,0,-1
EndSplineSet
EndChar

StartChar: backslash
Encoding: 92 92 61
Width: 403
VWidth: 1504
Flags: W
LayerCount: 2
Fore
SplineSet
379 -41 m 1,0,-1
 283 -41 l 1,1,-1
 54 727 l 1,2,-1
 152 727 l 1,3,-1
 379 -41 l 1,0,-1
EndSplineSet
EndChar

StartChar: bracketright
Encoding: 93 93 62
Width: 351
VWidth: 1504
Flags: W
LayerCount: 2
Fore
SplineSet
191 -116 m 1,0,-1
 -45 -116 l 1,1,-1
 -29 -39 l 1,2,-1
 119 -39 l 1,3,-1
 280 716 l 1,4,-1
 131 716 l 1,5,-1
 147 794 l 1,6,-1
 385 794 l 1,7,-1
 191 -116 l 1,0,-1
EndSplineSet
EndChar

StartChar: asciicircum
Encoding: 94 94 63
Width: 628
VWidth: 1504
Flags: W
LayerCount: 2
Fore
SplineSet
575 229 m 1,0,-1
 477 229 l 1,1,-1
 384 609 l 1,2,-1
 128 229 l 1,3,-1
 30 229 l 1,4,-1
 370 722 l 1,5,-1
 447 722 l 1,6,-1
 575 229 l 1,0,-1
EndSplineSet
EndChar

StartChar: underscore
Encoding: 95 95 64
Width: 565
VWidth: 1504
Flags: W
LayerCount: 2
Fore
SplineSet
442 -263 m 1,0,-1
 -122 -263 l 1,1,-1
 -104 -184 l 1,2,-1
 460 -184 l 1,3,-1
 442 -263 l 1,0,-1
EndSplineSet
EndChar

StartChar: grave
Encoding: 96 96 65
Width: 315
VWidth: 1504
Flags: W
LayerCount: 2
Fore
SplineSet
302 564 m 1,0,-1
 230 564 l 1,1,-1
 135 710 l 1,2,-1
 227 737 l 1,3,-1
 302 564 l 1,0,-1
EndSplineSet
EndChar

StartChar: a
Encoding: 97 97 66
Width: 648
VWidth: 1504
Flags: W
LayerCount: 2
Fore
SplineSet
551 6 m 1,0,-1
 456 -12 l 1,1,2
 438 12 438 12 433 75 c 1,3,4
 359 -14 359 -14 238 -14 c 0,5,6
 143 -14 143 -14 82 43.5 c 128,-1,7
 21 101 21 101 21 196 c 0,8,9
 21 331 21 331 113.5 431 c 128,-1,10
 206 531 206 531 341 531 c 0,11,12
 508 531 508 531 597 436 c 1,13,-1
 534 137 l 1,14,15
 522 65 522 65 551 6 c 1,0,-1
457 214 m 2,16,-1
 495 394 l 1,17,18
 436 453 436 453 332 453 c 0,19,20
 243 453 243 453 178 380 c 128,-1,21
 113 307 113 307 113 209 c 0,22,23
 113 69 113 69 257 69 c 0,24,25
 328 69 328 69 386.5 112 c 128,-1,26
 445 155 445 155 457 214 c 2,16,-1
EndSplineSet
Substitution2: "Single Substitution lookup 58 subtable" uni0E38
EndChar

StartChar: b
Encoding: 98 98 67
Width: 654
VWidth: 1504
Flags: W
LayerCount: 2
Fore
SplineSet
611 323 m 0,0,1
 611 188 611 188 516 88 c 128,-1,2
 421 -12 421 -12 290 -12 c 0,3,4
 54 -12 54 -12 54 156 c 0,5,6
 54 180 54 180 60 209 c 2,7,-1
 171 734 l 1,8,-1
 266 734 l 1,9,-1
 211 471 l 1,10,11
 291 533 291 533 394 532 c 0,12,13
 490 532 490 532 550.5 474 c 128,-1,14
 611 416 611 416 611 323 c 0,0,1
519 310 m 0,15,16
 519 450 519 450 375 450 c 0,17,18
 307 450 307 450 245.5 410 c 128,-1,19
 184 370 184 370 174 305 c 1,20,-1
 149 196 l 2,21,22
 144 176 144 176 144 158 c 0,23,24
 144 119 144 119 185 92.5 c 128,-1,25
 226 66 226 66 299 66 c 0,26,27
 388 66 388 66 453.5 140 c 128,-1,28
 519 214 519 214 519 310 c 0,15,16
EndSplineSet
Substitution2: "Single Substitution lookup 58 subtable" uni0E39
EndChar

StartChar: c
Encoding: 99 99 68
Width: 521
VWidth: 1504
Flags: W
LayerCount: 2
Fore
SplineSet
424 32 m 1,0,1
 343 -13 343 -13 239 -14 c 0,2,3
 117 -14 117 -14 59.5 62 c 128,-1,4
 2 138 2 138 27 259 c 0,5,6
 53 381 53 381 143 456 c 128,-1,7
 233 531 233 531 355 531 c 0,8,9
 457 531 457 531 520 486 c 1,10,-1
 471 408 l 1,11,12
 409 452 409 452 334 451 c 0,13,14
 257 451 257 451 199 397.5 c 128,-1,15
 141 344 141 344 123 259 c 0,16,17
 105 172 105 172 140.5 119 c 128,-1,18
 176 66 176 66 253 66 c 0,19,20
 328 66 328 66 408 110 c 1,21,-1
 424 32 l 1,0,1
EndSplineSet
Substitution2: "Single Substitution lookup 58 subtable" uni0E3A
EndChar

StartChar: d
Encoding: 100 100 69
Width: 654
VWidth: 1504
Flags: W
LayerCount: 2
Fore
SplineSet
535 137 m 1,0,1
 527 68 527 68 552 6 c 1,2,-1
 457 -12 l 1,3,4
 439 12 439 12 435 75 c 1,5,6
 345 -14 345 -14 233 -14 c 256,7,8
 122 -14 122 -14 62.5 65 c 128,-1,9
 3 144 3 144 29 266 c 0,10,11
 53 379 53 379 142.5 455 c 128,-1,12
 232 531 232 531 341 531 c 0,13,14
 454 531 454 531 510 460 c 1,15,-1
 573 758 l 1,16,-1
 668 758 l 1,17,-1
 535 137 l 1,0,1
453 194 m 2,18,-1
 477 311 l 1,19,20
 491 368 491 368 443.5 410.5 c 128,-1,21
 396 453 396 453 332 453 c 0,22,23
 254 453 254 453 197 400 c 128,-1,24
 140 347 140 347 122 266 c 0,25,26
 102 174 102 174 137.5 121.5 c 128,-1,27
 173 69 173 69 257 69 c 0,28,29
 332 69 332 69 386.5 103 c 128,-1,30
 441 137 441 137 453 194 c 2,18,-1
EndSplineSet
EndChar

StartChar: e
Encoding: 101 101 70
Width: 588
VWidth: 1504
Flags: W
LayerCount: 2
Fore
SplineSet
545 370 m 0,0,1
 545 293 545 293 465 253 c 0,2,3
 397 218 397 218 296 218 c 0,4,5
 204 218 204 218 116 230 c 1,6,7
 114 221 114 221 114 212 c 0,8,9
 114 144 114 144 158 107.5 c 128,-1,10
 202 71 202 71 272 71 c 0,11,12
 353 71 353 71 474 110 c 1,13,-1
 466 27 l 1,14,15
 349 -14 349 -14 250 -14 c 0,16,17
 146 -14 146 -14 82 39.5 c 128,-1,18
 18 93 18 93 18 185 c 0,19,20
 18 329 18 329 120.5 430 c 128,-1,21
 223 531 223 531 360 531 c 0,22,23
 545 531 545 531 545 370 c 0,0,1
463 372 m 0,24,25
 463 453 463 453 346 453 c 0,26,27
 284 453 284 453 220 408 c 128,-1,28
 156 363 156 363 132 298 c 1,29,30
 174 287 174 287 277 287 c 0,31,32
 463 288 463 288 463 372 c 0,24,25
EndSplineSet
EndChar

StartChar: f
Encoding: 102 102 71
Width: 382
VWidth: 1504
Flags: W
LayerCount: 2
Fore
SplineSet
146 32 m 2,0,1
 90 -225 90 -225 -110 -226 c 0,2,3
 -173 -226 -173 -226 -209 -193 c 1,4,-1
 -167 -122 l 1,5,6
 -120 -145 -120 -145 -90 -144 c 0,7,8
 14 -144 14 -144 51 32 c 2,9,-1
 137 433 l 1,10,-1
 51 433 l 1,11,-1
 68 511 l 1,12,-1
 155 511 l 1,13,14
 209 768 209 768 409 769 c 0,15,16
 472 769 472 769 508 736 c 1,17,-1
 466 665 l 1,18,19
 419 688 419 688 390 687 c 0,20,21
 286 687 286 687 248 511 c 1,22,-1
 394 511 l 1,23,-1
 378 433 l 1,24,-1
 232 433 l 1,25,-1
 146 32 l 2,0,1
EndSplineSet
EndChar

StartChar: g
Encoding: 103 103 72
Width: 499
VWidth: 1504
Flags: W
LayerCount: 2
Fore
SplineSet
358 -68 m 0,0,1
 343 -139 343 -139 283 -182.5 c 128,-1,2
 223 -226 223 -226 125 -226 c 0,3,4
 44 -226 44 -226 -30 -174 c 1,5,-1
 17 -99 l 1,6,7
 88 -146 88 -146 147 -146 c 0,8,9
 194 -146 194 -146 229.5 -124 c 128,-1,10
 265 -102 265 -102 271 -72 c 0,11,12
 282 -27 282 -27 205 8 c 0,13,14
 146 34 146 34 94 65 c 128,-1,15
 42 96 42 96 53 147 c 0,16,17
 59 171 59 171 80 209 c 1,18,19
 38 268 38 268 53 334 c 1,20,21
 70 417 70 417 136.5 469.5 c 128,-1,22
 203 522 203 522 281 522 c 2,23,-1
 498 522 l 1,24,-1
 484 457 l 1,25,-1
 409 457 l 1,26,27
 456 422 456 422 442 344 c 1,28,29
 424 255 424 255 364 203.5 c 128,-1,30
 304 152 304 152 212 152 c 0,31,32
 179 152 179 152 149 162 c 1,33,34
 140 154 140 154 138 143 c 0,35,36
 133 120 133 120 235 90 c 0,37,38
 382 46 382 46 358 -68 c 0,0,1
361 337 m 256,39,40
 370 382 370 382 344.5 413.5 c 128,-1,41
 319 445 319 445 274 445 c 256,42,43
 229 445 229 445 189.5 413.5 c 128,-1,44
 150 382 150 382 141 337 c 256,45,46
 132 292 132 292 158 261 c 128,-1,47
 184 230 184 230 229 230 c 0,48,49
 283 230 283 230 317.5 261 c 128,-1,50
 352 292 352 292 361 337 c 256,39,40
EndSplineSet
EndChar

StartChar: h
Encoding: 104 104 73
Width: 636
VWidth: 1504
Flags: W
LayerCount: 2
Fore
SplineSet
555 289 m 2,0,-1
 520 119 l 2,1,2
 514 89 514 89 514 74 c 0,3,4
 514 48 514 48 531 11 c 1,5,-1
 441 -23 l 1,6,7
 417 12 417 12 417 57 c 0,8,9
 417 83 417 83 427 132 c 2,10,-1
 460 287 l 2,11,12
 465 308 465 308 465 331 c 0,13,14
 465 382 465 382 436.5 413 c 128,-1,15
 408 444 408 444 356 444 c 0,16,17
 296 444 296 444 237.5 399.5 c 128,-1,18
 179 355 179 355 167 299 c 2,19,-1
 104 0 l 1,20,-1
 9 0 l 1,21,-1
 170 758 l 1,22,-1
 265 758 l 1,23,-1
 200 456 l 1,24,25
 283 525 283 525 388 525 c 0,26,27
 562 525 562 525 563 358 c 0,28,29
 563 327 563 327 555 289 c 2,0,-1
EndSplineSet
EndChar

StartChar: i
Encoding: 105 105 74
Width: 245
VWidth: 1504
Flags: W
LayerCount: 2
Fore
SplineSet
104 0 m 1,0,-1
 9 0 l 1,1,-1
 117 511 l 1,2,-1
 212 511 l 1,3,-1
 104 0 l 1,0,-1
266 662 m 256,4,5
 260 632 260 632 234.5 611 c 128,-1,6
 209 590 209 590 179 590 c 256,7,8
 149 590 149 590 132.5 611 c 128,-1,9
 116 632 116 632 122 662 c 256,10,11
 128 692 128 692 153.5 713 c 128,-1,12
 179 734 179 734 209 734 c 256,13,14
 239 734 239 734 255.5 713 c 128,-1,15
 272 692 272 692 266 662 c 256,4,5
EndSplineSet
EndChar

StartChar: j
Encoding: 106 106 75
Width: 257
VWidth: 1504
Flags: W
LayerCount: 2
Fore
SplineSet
120 27 m 2,0,1
 70 -206 70 -206 -171 -212 c 1,2,-1
 -167 -135 l 1,3,4
 -63 -127 -63 -127 -27 -90 c 128,-1,5
 9 -53 9 -53 35 66 c 2,6,-1
 129 511 l 1,7,-1
 224 511 l 1,8,-1
 120 27 l 2,0,1
280 662 m 256,9,10
 274 632 274 632 248.5 611 c 128,-1,11
 223 590 223 590 193 590 c 256,12,13
 163 590 163 590 146 611 c 128,-1,14
 129 632 129 632 135 662 c 256,15,16
 141 692 141 692 167 713 c 128,-1,17
 193 734 193 734 223 734 c 256,18,19
 253 734 253 734 269.5 713 c 128,-1,20
 286 692 286 692 280 662 c 256,9,10
EndSplineSet
EndChar

StartChar: k
Encoding: 107 107 76
Width: 511
VWidth: 1504
Flags: W
LayerCount: 2
Fore
SplineSet
474 9 m 1,0,-1
 370 -15 l 1,1,-1
 191 247 l 1,2,-1
 149 217 l 1,3,-1
 104 0 l 1,4,-1
 9 0 l 1,5,-1
 170 758 l 1,6,-1
 265 758 l 1,7,-1
 173 326 l 1,8,-1
 442 522 l 1,9,-1
 543 504 l 1,10,-1
 269 301 l 1,11,-1
 474 9 l 1,0,-1
EndSplineSet
EndChar

StartChar: l
Encoding: 108 108 77
Width: 320
VWidth: 1504
Flags: W
LayerCount: 2
Fore
SplineSet
230 -12 m 1,0,1
 9 0 9 0 65 263 c 2,2,-1
 170 758 l 1,3,-1
 265 758 l 1,4,-1
 164 284 l 2,5,6
 138 168 138 168 165 120 c 0,7,8
 188 79 188 79 259 74 c 1,9,-1
 230 -12 l 1,0,1
EndSplineSet
EndChar

StartChar: m
Encoding: 109 109 78
Width: 956
VWidth: 1504
Flags: W
LayerCount: 2
Fore
SplineSet
839 114 m 1,0,1
 833 76 833 76 836 53 c 128,-1,2
 839 30 839 30 851 11 c 1,3,-1
 761 -23 l 1,4,5
 747 -3 747 -3 742 38.5 c 128,-1,6
 737 80 737 80 748 132 c 2,7,-1
 779 283 l 2,8,9
 794 352 794 352 773 397 c 1,10,11
 747 447 747 447 689 447 c 0,12,13
 639 447 639 447 588 408 c 128,-1,14
 537 369 537 369 526 323 c 2,15,-1
 459 0 l 1,16,-1
 364 0 l 1,17,-1
 429 308 l 2,18,19
 459 446 459 446 343 447 c 0,20,21
 292 447 292 447 235.5 401 c 128,-1,22
 179 355 179 355 168 305 c 2,23,-1
 104 0 l 1,24,-1
 9 0 l 1,25,-1
 89 376 l 2,26,27
 97 414 97 414 101 442 c 0,28,29
 106 474 106 474 92 508 c 1,30,-1
 174 525 l 1,31,32
 194 489 194 489 187 439 c 1,33,34
 220 484 220 484 272.5 505 c 128,-1,35
 325 526 325 526 372 526 c 0,36,37
 471 526 471 526 513 442 c 1,38,39
 611 526 611 526 724 526 c 0,40,41
 813 526 813 526 855.5 459.5 c 128,-1,42
 898 393 898 393 875 284 c 2,43,-1
 839 114 l 1,0,1
EndSplineSet
EndChar

StartChar: n
Encoding: 110 110 79
Width: 636
VWidth: 1504
Flags: W
LayerCount: 2
Fore
SplineSet
519 114 m 1,0,1
 514 76 514 76 517 53 c 128,-1,2
 520 30 520 30 532 11 c 1,3,-1
 442 -23 l 1,4,5
 428 -3 428 -3 423 38.5 c 128,-1,6
 418 80 418 80 429 132 c 2,7,-1
 462 290 l 2,8,9
 495 446 495 446 352 447 c 0,10,11
 299 447 299 447 238 399.5 c 128,-1,12
 177 352 177 352 168 305 c 2,13,-1
 104 0 l 1,14,-1
 9 0 l 1,15,-1
 89 376 l 2,16,17
 97 414 97 414 101 442 c 0,18,19
 106 474 106 474 92 508 c 1,20,-1
 174 525 l 1,21,22
 194 489 194 489 187 439 c 1,23,24
 280 526 280 526 382 526 c 256,25,26
 484 526 484 526 531.5 463 c 128,-1,27
 579 400 579 400 557 290 c 2,28,-1
 519 114 l 1,0,1
EndSplineSet
EndChar

StartChar: o
Encoding: 111 111 80
Width: 619
VWidth: 1504
Flags: W
LayerCount: 2
Fore
SplineSet
569 259 m 256,0,1
 545 145 545 145 451.5 66.5 c 128,-1,2
 358 -12 358 -12 241 -12 c 256,3,4
 124 -12 124 -12 63.5 66 c 128,-1,5
 3 144 3 144 27 259 c 256,6,7
 51 373 51 373 145 452 c 128,-1,8
 239 531 239 531 356 531 c 256,9,10
 473 531 473 531 533 452 c 128,-1,11
 593 373 593 373 569 259 c 256,0,1
475 259 m 0,12,13
 493 340 493 340 455 395 c 128,-1,14
 417 450 417 450 338 450 c 256,15,16
 260 450 260 450 199 395 c 128,-1,17
 138 340 138 340 120 259 c 0,18,19
 103 178 103 178 141 123 c 128,-1,20
 179 68 179 68 257 68 c 256,21,22
 335 68 335 68 396.5 123 c 128,-1,23
 458 178 458 178 475 259 c 0,12,13
EndSplineSet
EndChar

StartChar: p
Encoding: 112 112 81
Width: 648
VWidth: 1504
Flags: W
LayerCount: 2
Fore
SplineSet
507 268 m 0,0,1
 524 346 524 346 486 399.5 c 128,-1,2
 448 453 448 453 373 453 c 0,3,4
 313 453 313 453 246 404.5 c 128,-1,5
 179 356 179 356 167 298 c 2,6,-1
 149 214 l 2,7,8
 135 155 135 155 175 112 c 128,-1,9
 215 69 215 69 286 69 c 0,10,11
 370 69 370 69 428.5 122.5 c 128,-1,12
 487 176 487 176 507 268 c 0,0,1
600 269 m 1,13,14
 573 144 573 144 480 65 c 128,-1,15
 387 -14 387 -14 272 -14 c 0,16,17
 167 -14 167 -14 113 48 c 1,18,-1
 57 -215 l 1,19,-1
 -36 -215 l 1,20,-1
 101 438 l 1,21,22
 106 474 106 474 92 508 c 1,23,-1
 174 525 l 1,24,25
 194 489 194 489 187 439 c 1,26,27
 279 531 279 531 400 531 c 0,28,29
 511 531 511 531 567 455.5 c 128,-1,30
 623 380 623 380 600 269 c 1,13,14
EndSplineSet
EndChar

StartChar: q
Encoding: 113 113 82
Width: 648
VWidth: 1504
Flags: W
LayerCount: 2
Fore
SplineSet
460 -215 m 1,0,-1
 366 -215 l 1,1,-1
 421 48 l 1,2,3
 341 -14 341 -14 238 -14 c 0,4,5
 143 -14 143 -14 82 43.5 c 128,-1,6
 21 101 21 101 21 196 c 0,7,8
 21 331 21 331 113.5 431 c 128,-1,9
 206 531 206 531 341 531 c 0,10,11
 508 531 508 531 597 436 c 1,12,-1
 460 -215 l 1,0,-1
457 214 m 2,13,-1
 495 394 l 1,14,15
 436 453 436 453 332 453 c 0,16,17
 243 453 243 453 178 380 c 128,-1,18
 113 307 113 307 113 209 c 0,19,20
 113 69 113 69 257 69 c 0,21,22
 328 69 328 69 386.5 112 c 128,-1,23
 445 155 445 155 457 214 c 2,13,-1
EndSplineSet
EndChar

StartChar: r
Encoding: 114 114 83
Width: 370
VWidth: 1504
Flags: W
LayerCount: 2
Fore
SplineSet
375 441 m 1,0,1
 363 444 363 444 340 444 c 0,2,3
 197 444 197 444 161 272 c 2,4,-1
 104 0 l 1,5,-1
 9 0 l 1,6,-1
 80 338 l 2,7,8
 92 392 92 392 98 442 c 0,9,10
 103 474 103 474 89 508 c 1,11,-1
 171 525 l 1,12,13
 191 489 191 489 176 430 c 1,14,15
 206 475 206 475 254 500.5 c 128,-1,16
 302 526 302 526 344 526 c 0,17,18
 374 526 374 526 391 522 c 1,19,-1
 375 441 l 1,0,1
EndSplineSet
EndChar

StartChar: s
Encoding: 115 115 84
Width: 445
VWidth: 1504
Flags: W
LayerCount: 2
Fore
SplineSet
372 146 m 0,0,1
 357 75 357 75 293 30.5 c 128,-1,2
 229 -14 229 -14 135 -14 c 0,3,4
 58 -14 58 -14 -18 36 c 1,5,-1
 33 111 l 1,6,7
 86 69 86 69 156 69 c 0,8,9
 261 69 261 69 277 141 c 0,10,11
 289 197 289 197 194 229 c 0,12,13
 53 276 53 276 74 372 c 0,14,15
 88 437 88 437 148 481 c 128,-1,16
 208 525 208 525 293 525 c 0,17,18
 380 525 380 525 432 481 c 1,19,-1
 382 412 l 1,20,21
 337 451 337 451 271 451 c 0,22,23
 232 451 232 451 201.5 431 c 128,-1,24
 171 411 171 411 164 379 c 0,25,26
 156 340 156 340 257 302 c 0,27,28
 395 251 395 251 372 146 c 0,0,1
EndSplineSet
EndChar

StartChar: t
Encoding: 116 116 85
Width: 388
VWidth: 1504
Flags: W
LayerCount: 2
Fore
SplineSet
299 8 m 1,0,1
 245 -13 245 -13 196 -14 c 0,2,3
 127 -14 127 -14 96.5 33 c 128,-1,4
 66 80 66 80 83 161 c 2,5,-1
 141 433 l 1,6,-1
 39 433 l 1,7,-1
 56 511 l 1,8,-1
 158 511 l 1,9,-1
 188 651 l 1,10,-1
 290 692 l 1,11,-1
 253 511 l 1,12,-1
 417 511 l 1,13,-1
 400 433 l 1,14,-1
 236 433 l 1,15,-1
 177 162 l 2,16,17
 157 70 157 70 217 71 c 0,18,19
 255 71 255 71 305 87 c 1,20,-1
 299 8 l 1,0,1
EndSplineSet
EndChar

StartChar: u
Encoding: 117 117 86
Width: 628
VWidth: 1504
Flags: W
LayerCount: 2
Fore
SplineSet
532 6 m 1,0,-1
 438 -12 l 1,1,2
 420 12 420 12 415 75 c 1,3,4
 305 -14 305 -14 218 -14 c 0,5,6
 47 -14 47 -14 47 144 c 0,7,8
 47 183 47 183 57 232 c 2,9,-1
 93 399 l 2,10,11
 98 420 98 420 98 442 c 0,12,13
 98 475 98 475 89 508 c 1,14,-1
 179 526 l 1,15,16
 193 485 193 485 193 445 c 0,17,18
 193 416 193 416 187 388 c 2,19,-1
 155 241 l 2,20,21
 146 199 146 199 146 173 c 0,22,23
 146 71 146 71 247 71 c 0,24,25
 303 71 303 71 363.5 113.5 c 128,-1,26
 424 156 424 156 436 209 c 2,27,-1
 501 511 l 1,28,-1
 596 511 l 1,29,-1
 516 137 l 2,30,31
 513 123 513 123 513 105 c 0,32,33
 512 60 512 60 532 6 c 1,0,-1
EndSplineSet
EndChar

StartChar: v
Encoding: 118 118 87
Width: 538
VWidth: 1504
Flags: W
LayerCount: 2
Fore
SplineSet
241 0 m 1,0,-1
 165 0 l 1,1,-1
 36 511 l 1,2,-1
 135 511 l 1,3,-1
 227 117 l 1,4,-1
 487 511 l 1,5,-1
 587 511 l 1,6,-1
 241 0 l 1,0,-1
EndSplineSet
EndChar

StartChar: w
Encoding: 119 119 88
Width: 722
VWidth: 1504
Flags: W
LayerCount: 2
Fore
SplineSet
534 0 m 1,0,-1
 454 0 l 1,1,-1
 382 411 l 1,2,-1
 135 0 l 1,3,-1
 56 0 l 1,4,-1
 36 511 l 1,5,-1
 134 511 l 1,6,-1
 128 125 l 1,7,-1
 364 511 l 1,8,-1
 442 511 l 1,9,-1
 513 125 l 1,10,-1
 672 511 l 1,11,-1
 770 511 l 1,12,-1
 534 0 l 1,0,-1
EndSplineSet
EndChar

StartChar: x
Encoding: 120 120 89
Width: 524
VWidth: 1504
Flags: W
LayerCount: 2
Fore
SplineSet
475 0 m 1,0,-1
 360 0 l 1,1,-1
 236 197 l 1,2,-1
 33 0 l 1,3,-1
 -83 0 l 1,4,-1
 194 262 l 1,5,-1
 39 511 l 1,6,-1
 153 511 l 1,7,-1
 266 331 l 1,8,-1
 456 511 l 1,9,-1
 570 511 l 1,10,-1
 307 262 l 1,11,-1
 475 0 l 1,0,-1
EndSplineSet
EndChar

StartChar: y
Encoding: 121 121 90
Width: 543
VWidth: 1504
Flags: W
LayerCount: 2
Fore
SplineSet
248 11 m 2,0,1
 111 -189 111 -189 -66 -227 c 1,2,-1
 -74 -149 l 1,3,4
 66 -119 66 -119 162 38 c 1,5,-1
 36 511 l 1,6,-1
 140 511 l 1,7,-1
 236 132 l 1,8,-1
 486 511 l 1,9,-1
 590 511 l 1,10,-1
 248 11 l 2,0,1
EndSplineSet
EndChar

StartChar: z
Encoding: 122 122 91
Width: 538
VWidth: 1504
Flags: W
LayerCount: 2
Fore
SplineSet
430 0 m 1,0,-1
 -36 0 l 1,1,-1
 -23 57 l 1,2,-1
 396 432 l 1,3,-1
 71 432 l 1,4,-1
 105 511 l 1,5,-1
 542 511 l 1,6,-1
 528 450 l 1,7,-1
 111 80 l 1,8,-1
 460 80 l 1,9,-1
 430 0 l 1,0,-1
EndSplineSet
EndChar

StartChar: braceleft
Encoding: 123 123 92
Width: 383
VWidth: 1504
Flags: W
LayerCount: 2
Fore
SplineSet
238 -132 m 1,0,-1
 203 -132 l 2,1,2
 22 -132 22 -132 54 21 c 0,3,4
 62 51 62 51 86.5 118 c 128,-1,5
 111 185 111 185 116 212 c 0,6,7
 128 266 128 266 36 269 c 1,8,-1
 53 347 l 1,9,10
 146 350 146 350 156 403 c 0,11,12
 164 435 164 435 167.5 502 c 128,-1,13
 171 569 171 569 177 596 c 0,14,15
 209 749 209 749 390 749 c 2,16,-1
 424 749 l 1,17,-1
 408 671 l 1,18,-1
 369 671 l 2,19,20
 286 671 286 671 265 593 c 1,21,22
 259 465 259 465 247 408 c 0,23,24
 239 375 239 375 214.5 345.5 c 128,-1,25
 190 316 190 316 162 308 c 1,26,27
 219 282 219 282 205 208 c 0,28,29
 193 152 193 152 144 24 c 1,30,31
 130 -56 130 -56 215 -56 c 2,32,-1
 254 -56 l 1,33,-1
 238 -132 l 1,0,-1
EndSplineSet
EndChar

StartChar: bar
Encoding: 124 124 93
Width: 266
VWidth: 1504
Flags: W
LayerCount: 2
Fore
SplineSet
56 -250 m 1,0,-1
 -29 -250 l 1,1,-1
 191 791 l 1,2,-1
 277 791 l 1,3,-1
 56 -250 l 1,0,-1
EndSplineSet
EndChar

StartChar: braceright
Encoding: 125 125 94
Width: 383
VWidth: 1504
Flags: W
LayerCount: 2
Fore
SplineSet
334 269 m 1,0,1
 239 266 239 266 227 212 c 0,2,3
 222 185 222 185 218.5 118 c 128,-1,4
 215 51 215 51 208 21 c 0,5,6
 176 -132 176 -132 -3 -132 c 2,7,-1
 -38 -132 l 1,8,-1
 -21 -56 l 1,9,-1
 17 -56 l 2,10,11
 104 -56 104 -56 119 18 c 0,12,13
 127 53 127 53 129.5 115 c 128,-1,14
 132 177 132 177 138 208 c 0,15,16
 153 283 153 283 223 308 c 1,17,18
 199 316 199 316 186 345.5 c 128,-1,19
 173 375 173 375 181 408 c 256,20,21
 189 441 189 441 212.5 504 c 128,-1,22
 236 567 236 567 242 599 c 0,23,24
 257 671 257 671 170 671 c 2,25,-1
 131 671 l 1,26,-1
 147 749 l 1,27,-1
 182 749 l 2,28,29
 363 749 363 749 331 596 c 0,30,31
 325 569 325 569 300 502 c 128,-1,32
 275 435 275 435 268 403 c 0,33,34
 257 350 257 350 350 347 c 1,35,-1
 334 269 l 1,0,1
EndSplineSet
EndChar

StartChar: asciitilde
Encoding: 126 126 95
Width: 634
VWidth: 1504
Flags: W
LayerCount: 2
Fore
SplineSet
624 366 m 1,0,1
 609 297 609 297 563 257 c 128,-1,2
 517 217 517 217 457 217 c 0,3,4
 421 217 421 217 308.5 263.5 c 128,-1,5
 196 310 196 310 170 310 c 0,6,7
 117 310 117 310 95 217 c 1,8,-1
 12 217 l 1,9,-1
 18 245 l 2,10,11
 32 311 32 311 80.5 350.5 c 128,-1,12
 129 390 129 390 188 390 c 0,13,14
 229 390 229 390 339.5 345.5 c 128,-1,15
 450 301 450 301 478 301 c 0,16,17
 525 301 525 301 549 390 c 1,18,-1
 630 390 l 1,19,-1
 624 366 l 1,0,1
EndSplineSet
EndChar

StartChar: uni0E33.alt1
Encoding: 65537 -1 96
Width: 515
VWidth: 1504
Flags: W
LayerCount: 2
Fore
SplineSet
-126 826 m 0,0,1
 -137 773 -137 773 -182 736 c 128,-1,2
 -227 699 -227 699 -280 699 c 0,3,4
 -334 699 -334 699 -362.5 736 c 128,-1,5
 -391 773 -391 773 -381 826 c 0,6,7
 -369 879 -369 879 -323.5 916.5 c 128,-1,8
 -278 954 -278 954 -226 954 c 256,9,10
 -173 954 -173 954 -143.5 917 c 128,-1,11
 -114 880 -114 880 -126 826 c 0,0,1
-193 826 m 0,12,13
 -187 852 -187 852 -200.5 869.5 c 128,-1,14
 -214 887 -214 887 -239 887 c 256,15,16
 -265 887 -265 887 -286.5 869 c 128,-1,17
 -308 851 -308 851 -314 826 c 0,18,19
 -319 800 -319 800 -304.5 783 c 128,-1,20
 -290 766 -290 766 -265 766 c 256,21,22
 -239 766 -239 766 -218.5 783 c 128,-1,23
 -198 800 -198 800 -193 826 c 0,12,13
388 71 m 2,24,25
 370 -15 370 -15 317 -41 c 1,26,-1
 244 0 l 1,27,28
 288 26 288 26 302 105 c 1,29,-1
 372 438 l 2,30,31
 381 480 381 480 358 506 c 128,-1,32
 335 532 335 532 286 532 c 256,33,34
 236 532 236 532 197 499 c 128,-1,35
 158 466 158 466 146 415 c 1,36,-1
 56 415 l 1,37,38
 80 505 80 505 146 558.5 c 128,-1,39
 212 612 212 612 302 612 c 0,40,41
 386 612 386 612 435 569 c 128,-1,42
 484 526 484 526 466 439 c 2,43,-1
 388 71 l 2,24,25
EndSplineSet
EndChar

StartChar: uni0E4E.alt1
Encoding: 65540 -1 99
Width: 0
VWidth: 1504
Flags: W
LayerCount: 2
Fore
SplineSet
-184 999 m 1,0,-1
 -197 961 l 1,1,2
 -223 969 -223 969 -253 969 c 0,3,4
 -322 969 -322 969 -322 922 c 0,5,6
 -322 872 -322 872 -247 863 c 1,7,-1
 -260 829 l 1,8,9
 -278 835 -278 835 -296 835 c 0,10,11
 -338 835 -338 835 -364.5 816 c 128,-1,12
 -391 797 -391 797 -391 775 c 0,13,14
 -391 734 -391 734 -323 734 c 0,15,16
 -303 734 -303 734 -275 746 c 1,17,-1
 -274 708 l 1,18,19
 -303 696 -303 696 -343 696 c 0,20,21
 -381 696 -381 696 -408 718 c 128,-1,22
 -435 740 -435 740 -435 776 c 0,23,24
 -435 814 -435 814 -405 839.5 c 128,-1,25
 -375 865 -375 865 -337 865 c 1,26,27
 -367 885 -367 885 -367 922 c 0,28,29
 -367 1009 -367 1009 -251 1009 c 0,30,31
 -211 1010 -211 1010 -184 999 c 1,0,-1
EndSplineSet
EndChar

StartChar: exclamdown
Encoding: 161 161 100
Width: 252
VWidth: 1504
Flags: W
LayerCount: 2
Fore
SplineSet
69 -212 m 1,0,-1
 -38 -212 l 1,1,-1
 78 295 l 1,2,-1
 162 295 l 1,3,-1
 69 -212 l 1,0,-1
226 445 m 0,4,5
 220 415 220 415 194 394 c 128,-1,6
 168 373 168 373 138 373 c 256,7,8
 108 373 108 373 91.5 394 c 128,-1,9
 75 415 75 415 81 445 c 0,10,11
 89 475 89 475 114.5 496 c 128,-1,12
 140 517 140 517 170 517 c 256,13,14
 200 517 200 517 217 496 c 128,-1,15
 234 475 234 475 226 445 c 0,4,5
EndSplineSet
EndChar

StartChar: cent
Encoding: 162 162 101
Width: 722
VWidth: 1504
Flags: W
LayerCount: 2
Fore
SplineSet
579 78 m 1,0,1
 489 34 489 34 369 32 c 1,2,-1
 344 -84 l 1,3,-1
 262 -84 l 1,4,-1
 287 36 l 1,5,6
 174 57 174 57 123 139 c 128,-1,7
 72 221 72 221 98 344 c 0,8,9
 125 467 125 467 210.5 549.5 c 128,-1,10
 296 632 296 632 418 653 c 1,11,-1
 444 773 l 1,12,-1
 526 773 l 1,13,-1
 501 657 l 1,14,15
 621 654 621 654 692 611 c 1,16,-1
 645 539 l 1,17,18
 610 556 610 556 571 564.5 c 128,-1,19
 532 573 532 573 489 573 c 0,20,21
 370 573 370 573 290.5 513 c 128,-1,22
 211 453 211 453 188 344 c 256,23,24
 165 236 165 236 219.5 176 c 128,-1,25
 274 116 274 116 393 116 c 0,26,27
 437 116 437 116 478.5 125 c 128,-1,28
 520 134 520 134 563 150 c 1,29,-1
 579 78 l 1,0,1
EndSplineSet
EndChar

StartChar: sterling
Encoding: 163 163 102
Width: 722
VWidth: 1504
Flags: W
LayerCount: 2
Fore
SplineSet
522 0 m 1,0,-1
 68 0 l 1,1,-1
 78 56 l 1,2,3
 218 133 218 133 242 242 c 0,4,5
 244 254 244 254 247 273.5 c 128,-1,6
 250 293 250 293 251 314 c 1,7,-1
 135 314 l 1,8,-1
 150 384 l 1,9,-1
 257 384 l 1,10,11
 260 416 260 416 264 442 c 128,-1,12
 268 468 268 468 272 493 c 0,13,14
 317 704 317 704 514 704 c 0,15,16
 574 704 574 704 644 669 c 1,17,-1
 603 606 l 1,18,19
 543 633 543 633 496 633 c 0,20,21
 376 633 376 633 346 493 c 0,22,23
 334 436 334 436 334 384 c 1,24,-1
 501 384 l 1,25,-1
 486 314 l 1,26,-1
 331 314 l 1,27,28
 329 302 329 302 326 285 c 128,-1,29
 323 268 323 268 320 253 c 0,30,31
 297 143 297 143 218 71 c 1,32,-1
 535 71 l 1,33,-1
 522 0 l 1,0,-1
EndSplineSet
EndChar

StartChar: currency
Encoding: 164 164 103
Width: 722
VWidth: 1504
Flags: W
LayerCount: 2
Fore
SplineSet
648 340 m 0,0,1
 628 251 628 251 563 181 c 1,2,-1
 606 122 l 1,3,-1
 526 53 l 1,4,-1
 481 114 l 1,5,6
 403 61 403 61 305 62 c 0,7,8
 210 62 210 62 156 114 c 1,9,-1
 84 53 l 1,10,-1
 35 122 l 1,11,-1
 102 181 l 1,12,13
 66 252 66 252 86 340 c 0,14,15
 104 429 104 429 170 499 c 1,16,-1
 126 558 l 1,17,-1
 206 627 l 1,18,-1
 251 566 l 1,19,20
 329 619 329 619 424 618 c 0,21,22
 522 618 522 618 576 566 c 1,23,-1
 648 627 l 1,24,-1
 698 558 l 1,25,-1
 630 499 l 1,26,27
 666 429 666 429 648 340 c 0,0,1
555 340 m 1,28,29
 570 417 570 417 526.5 472.5 c 128,-1,30
 483 528 483 528 406 528 c 0,31,32
 326 528 326 528 260 472.5 c 128,-1,33
 194 417 194 417 179 340 c 1,34,35
 161 260 161 260 204 206 c 128,-1,36
 247 152 247 152 326 152 c 0,37,38
 403 152 403 152 470 206 c 128,-1,39
 537 260 537 260 555 340 c 1,28,29
EndSplineSet
EndChar

StartChar: yen
Encoding: 165 165 104
Width: 722
VWidth: 1504
Flags: W
LayerCount: 2
Fore
SplineSet
540 137 m 1,0,-1
 367 137 l 1,1,-1
 343 27 l 1,2,-1
 256 27 l 1,3,-1
 280 137 l 1,4,-1
 107 137 l 1,5,-1
 122 212 l 1,6,-1
 295 212 l 1,7,-1
 305 260 l 1,8,-1
 132 260 l 1,9,-1
 149 335 l 1,10,-1
 307 335 l 1,11,-1
 164 693 l 1,12,-1
 269 693 l 1,13,-1
 379 408 l 1,14,-1
 611 693 l 1,15,-1
 718 693 l 1,16,-1
 423 337 l 1,17,-1
 582 337 l 1,18,-1
 566 260 l 1,19,-1
 393 260 l 1,20,-1
 382 212 l 1,21,-1
 555 212 l 1,22,-1
 540 137 l 1,0,-1
EndSplineSet
EndChar

StartChar: brokenbar
Encoding: 166 166 105
Width: 242
VWidth: 1504
Flags: W
LayerCount: 2
Fore
SplineSet
159 331 m 1,0,-1
 87 331 l 1,1,-1
 170 716 l 1,2,-1
 242 716 l 1,3,-1
 159 331 l 1,0,-1
51 -179 m 1,4,-1
 -20 -179 l 1,5,-1
 62 208 l 1,6,-1
 134 208 l 1,7,-1
 51 -179 l 1,4,-1
EndSplineSet
EndChar

StartChar: section
Encoding: 167 167 106
Width: 571
VWidth: 1504
Flags: W
LayerCount: 2
Fore
SplineSet
418 107 m 0,0,1
 401 30 401 30 336.5 -13.5 c 128,-1,2
 272 -57 272 -57 188 -57 c 0,3,4
 93 -57 93 -57 36 0 c 1,5,-1
 83 63 l 1,6,7
 107 34 107 34 137.5 22.5 c 128,-1,8
 168 11 168 11 206 11 c 0,9,10
 260 11 260 11 297.5 35.5 c 128,-1,11
 335 60 335 60 344 99 c 0,12,13
 355 152 355 152 290 188 c 1,14,15
 255 203 255 203 218.5 219 c 128,-1,16
 182 235 182 235 147 251 c 1,17,18
 76 290 76 290 93 375 c 1,19,20
 108 440 108 440 177 492 c 1,21,22
 157 527 157 527 167 570 c 0,23,24
 182 638 182 638 242 680 c 128,-1,25
 302 722 302 722 387 722 c 0,26,27
 426 722 426 722 462.5 710 c 128,-1,28
 499 698 499 698 534 677 c 1,29,-1
 483 612 l 1,30,31
 432 656 432 656 364 656 c 0,32,33
 320 656 320 656 285.5 634 c 128,-1,34
 251 612 251 612 244 579 c 0,35,36
 241 562 241 562 247.5 548.5 c 128,-1,37
 254 535 254 535 268 523 c 0,38,39
 279 515 279 515 303.5 504 c 128,-1,40
 328 493 328 493 363 481 c 0,41,42
 434 454 434 454 467.5 413 c 128,-1,43
 501 372 501 372 490 319 c 0,44,45
 482 284 482 284 460.5 253.5 c 128,-1,46
 439 223 439 223 408 194 c 1,47,48
 429 160 429 160 418 107 c 0,0,1
411 311 m 1,49,50
 417 337 417 337 393.5 363.5 c 128,-1,51
 370 390 370 390 328 406 c 0,52,53
 292 420 292 420 265 432 c 128,-1,54
 238 444 238 444 220 453 c 1,55,56
 176 420 176 420 167 378 c 0,57,58
 162 360 162 360 171.5 345.5 c 128,-1,59
 181 331 181 331 199 316 c 1,60,61
 213 308 213 308 235 297 c 128,-1,62
 257 286 257 286 293 272 c 0,63,64
 319 261 319 261 337 253 c 128,-1,65
 355 245 355 245 367 236 c 1,66,67
 388 256 388 256 398 273.5 c 128,-1,68
 408 291 408 291 411 311 c 1,49,50
EndSplineSet
EndChar

StartChar: dieresis
Encoding: 168 168 107
Width: 512
VWidth: 1504
Flags: W
LayerCount: 2
Fore
SplineSet
280 639 m 0,0,1
 274 610 274 610 250 591.5 c 128,-1,2
 226 573 226 573 200 573 c 0,3,4
 173 573 173 573 158 592 c 128,-1,5
 143 611 143 611 149 639 c 0,6,7
 155 666 155 666 178.5 685.5 c 128,-1,8
 202 705 202 705 229 705 c 0,9,10
 255 705 255 705 270.5 685.5 c 128,-1,11
 286 666 286 666 280 639 c 0,0,1
502 639 m 0,12,13
 496 610 496 610 472 591.5 c 128,-1,14
 448 573 448 573 423 573 c 256,15,16
 397 573 397 573 381.5 592 c 128,-1,17
 366 611 366 611 372 639 c 0,18,19
 378 666 378 666 402 685.5 c 128,-1,20
 426 705 426 705 451 705 c 256,21,22
 477 705 477 705 492.5 685.5 c 128,-1,23
 508 666 508 666 502 639 c 0,12,13
EndSplineSet
EndChar

StartChar: copyright
Encoding: 169 169 108
Width: 812
VWidth: 1504
Flags: W
LayerCount: 2
Fore
SplineSet
579 176 m 1,0,1
 522 132 522 132 424 132 c 0,2,3
 323 132 323 132 264.5 195.5 c 128,-1,4
 206 259 206 259 206 350 c 0,5,6
 206 455 206 455 267.5 516.5 c 128,-1,7
 329 578 329 578 432 578 c 0,8,9
 524 578 524 578 572 542 c 1,10,-1
 554 487 l 1,11,12
 497 520 497 520 432 520 c 0,13,14
 276 520 276 520 275 358 c 0,15,16
 275 194 275 194 433 194 c 0,17,18
 507 194 507 194 560 232 c 1,19,-1
 579 176 l 1,0,1
793 361 m 256,20,21
 793 211 793 211 685.5 103 c 128,-1,22
 578 -5 578 -5 427 -5 c 256,23,24
 277 -5 277 -5 169.5 103 c 128,-1,25
 62 211 62 211 62 361 c 256,26,27
 62 511 62 511 169.5 619 c 128,-1,28
 277 727 277 727 427 727 c 256,29,30
 577 727 577 727 685 619 c 128,-1,31
 793 511 793 511 793 361 c 256,20,21
730 361 m 256,32,33
 730 486 730 486 641 574.5 c 128,-1,34
 552 663 552 663 427 663 c 256,35,36
 302 663 302 663 213.5 574.5 c 128,-1,37
 125 486 125 486 125 361 c 256,38,39
 125 236 125 236 213.5 147.5 c 128,-1,40
 302 59 302 59 427 59 c 256,41,42
 552 59 552 59 641 147.5 c 128,-1,43
 730 236 730 236 730 361 c 256,32,33
EndSplineSet
EndChar

StartChar: ordfeminine
Encoding: 170 170 109
Width: 434
VWidth: 1504
Flags: W
LayerCount: 2
Fore
SplineSet
442 666 m 1,0,-1
 393 442 l 2,1,2
 390 428 390 428 390 412 c 0,3,4
 390 388 390 388 397 375 c 1,5,-1
 346 363 l 1,6,7
 340 380 340 380 340 399 c 0,8,9
 340 414 340 414 341 424 c 1,10,11
 276 362 276 362 205 363 c 0,12,13
 146 363 146 363 112 397.5 c 128,-1,14
 78 432 78 432 78 487 c 0,15,16
 78 576 78 576 137 647.5 c 128,-1,17
 196 719 196 719 284 719 c 0,18,19
 377 719 377 719 442 666 c 1,0,-1
344 519 m 1,20,-1
 370 638 l 1,21,22
 329 664 329 664 286 663 c 0,23,24
 224 663 224 663 185 611.5 c 128,-1,25
 146 560 146 560 146 498 c 0,26,27
 146 418 146 418 223 418 c 0,28,29
 264 418 264 418 298.5 449 c 128,-1,30
 333 480 333 480 344 519 c 1,20,-1
EndSplineSet
EndChar

StartChar: guillemotleft
Encoding: 171 171 110
Width: 535
VWidth: 1504
Flags: W
LayerCount: 2
Fore
SplineSet
438 71 m 1,0,-1
 347 71 l 1,1,-1
 220 269 l 1,2,-1
 433 472 l 1,3,-1
 522 472 l 1,4,-1
 310 271 l 1,5,-1
 438 71 l 1,0,-1
254 71 m 1,6,-1
 162 71 l 1,7,-1
 36 269 l 1,8,-1
 245 474 l 1,9,-1
 338 474 l 1,10,-1
 125 269 l 1,11,-1
 254 71 l 1,6,-1
EndSplineSet
EndChar

StartChar: logicalnot
Encoding: 172 172 111
Width: 673
VWidth: 1504
Flags: W
LayerCount: 2
Fore
SplineSet
606 132 m 1,0,-1
 534 132 l 1,1,-1
 534 352 l 1,2,-1
 51 352 l 1,3,-1
 51 420 l 1,4,-1
 606 420 l 1,5,-1
 606 132 l 1,0,-1
EndSplineSet
EndChar

StartChar: registered
Encoding: 174 174 112
Width: 812
VWidth: 1504
Flags: W
LayerCount: 2
Fore
SplineSet
591 134 m 1,0,-1
 532 134 l 1,1,2
 505 331 505 331 415 331 c 2,3,-1
 340 331 l 1,4,-1
 340 134 l 1,5,-1
 278 134 l 1,6,-1
 278 578 l 1,7,8
 347 590 347 590 402 590 c 0,9,10
 482 590 482 590 529 556 c 128,-1,11
 576 522 576 522 576 463 c 0,12,13
 576 385 576 385 502 352 c 1,14,15
 538 326 538 326 557 281 c 128,-1,16
 576 236 576 236 591 134 c 1,0,-1
520 459 m 256,17,18
 520 537 520 537 402 537 c 0,19,20
 364 537 364 537 340 534 c 1,21,-1
 340 381 l 1,22,-1
 411 381 l 2,23,24
 520 381 520 381 520 459 c 256,17,18
793 361 m 256,25,26
 793 211 793 211 685.5 103 c 128,-1,27
 578 -5 578 -5 427 -5 c 256,28,29
 277 -5 277 -5 169.5 103 c 128,-1,30
 62 211 62 211 62 361 c 256,31,32
 62 511 62 511 169.5 619 c 128,-1,33
 277 727 277 727 427 727 c 256,34,35
 577 727 577 727 685 619 c 128,-1,36
 793 511 793 511 793 361 c 256,25,26
730 361 m 256,37,38
 730 486 730 486 641 574.5 c 128,-1,39
 552 663 552 663 427 663 c 256,40,41
 302 663 302 663 213.5 574.5 c 128,-1,42
 125 486 125 486 125 361 c 256,43,44
 125 236 125 236 213.5 147.5 c 128,-1,45
 302 59 302 59 427 59 c 256,46,47
 552 59 552 59 641 147.5 c 128,-1,48
 730 236 730 236 730 361 c 256,37,38
EndSplineSet
EndChar

StartChar: macron
Encoding: 175 175 113
Width: 565
VWidth: 1504
Flags: W
LayerCount: 2
Fore
SplineSet
668 794 m 1,0,-1
 102 794 l 1,1,-1
 119 874 l 1,2,-1
 684 874 l 1,3,-1
 668 794 l 1,0,-1
EndSplineSet
EndChar

StartChar: degree
Encoding: 176 176 114
Width: 416
VWidth: 1504
Flags: W
LayerCount: 2
Fore
SplineSet
402 597 m 256,0,1
 390 541 390 541 342.5 502 c 128,-1,2
 295 463 295 463 239 463 c 256,3,4
 183 463 183 463 152.5 502.5 c 128,-1,5
 122 542 122 542 134 597 c 256,6,7
 146 653 146 653 193.5 692 c 128,-1,8
 241 731 241 731 296 731 c 256,9,10
 352 731 352 731 383 692 c 128,-1,11
 414 653 414 653 402 597 c 256,0,1
353 597 m 256,12,13
 361 632 361 632 340.5 657.5 c 128,-1,14
 320 683 320 683 286 683 c 256,15,16
 251 683 251 683 220.5 657.5 c 128,-1,17
 190 632 190 632 182 597 c 256,18,19
 174 562 174 562 194.5 536.5 c 128,-1,20
 215 511 215 511 250 511 c 256,21,22
 285 511 285 511 315 536.5 c 128,-1,23
 345 562 345 562 353 597 c 256,12,13
EndSplineSet
EndChar

StartChar: plusminus
Encoding: 177 177 115
Width: 661
VWidth: 1504
Flags: W
LayerCount: 2
Fore
SplineSet
543 0 m 1,0,-1
 -12 0 l 1,1,-1
 5 83 l 1,2,-1
 560 83 l 1,3,-1
 543 0 l 1,0,-1
605 326 m 1,4,-1
 382 326 l 1,5,-1
 337 117 l 1,6,-1
 242 117 l 1,7,-1
 287 326 l 1,8,-1
 65 326 l 1,9,-1
 81 409 l 1,10,-1
 304 409 l 1,11,-1
 352 636 l 1,12,-1
 447 636 l 1,13,-1
 399 409 l 1,14,-1
 621 409 l 1,15,-1
 605 326 l 1,4,-1
EndSplineSet
EndChar

StartChar: twosuperior
Encoding: 178 178 116
Width: 391
VWidth: 1504
Flags: W
LayerCount: 2
Fore
SplineSet
320 286 m 1,0,-1
 35 286 l 1,1,2
 44 333 44 333 87.5 375.5 c 128,-1,3
 131 418 131 418 179 457 c 128,-1,4
 227 496 227 496 268.5 533 c 128,-1,5
 310 570 310 570 317 605 c 0,6,7
 323 631 323 631 311 644 c 128,-1,8
 299 657 299 657 277 657 c 0,9,10
 248 657 248 657 221 636 c 128,-1,11
 194 615 194 615 184 575 c 1,12,-1
 122 587 l 1,13,14
 145 655 145 655 188.5 690 c 128,-1,15
 232 725 232 725 287 725 c 0,16,17
 344 725 344 725 373 692.5 c 128,-1,18
 402 660 402 660 390 605 c 0,19,20
 382 573 382 573 355 535.5 c 128,-1,21
 328 498 328 498 277 454 c 2,22,-1
 156 353 l 1,23,-1
 343 353 l 1,24,-1
 320 286 l 1,0,-1
EndSplineSet
EndChar

StartChar: threesuperior
Encoding: 179 179 117
Width: 391
VWidth: 1504
Flags: W
LayerCount: 2
Fore
SplineSet
370 442 m 0,0,1
 355 370 355 370 298 326.5 c 128,-1,2
 241 283 241 283 159 281 c 0,3,4
 97 281 97 281 56 319 c 1,5,-1
 98 382 l 1,6,7
 116 364 116 364 135.5 358 c 128,-1,8
 155 352 155 352 176 352 c 0,9,10
 224 352 224 352 257 377 c 128,-1,11
 290 402 290 402 299 441 c 0,12,13
 304 467 304 467 291 480 c 128,-1,14
 278 493 278 493 257 493 c 0,15,16
 239 493 239 493 219.5 486.5 c 128,-1,17
 200 480 200 480 187 471 c 1,18,-1
 171 516 l 1,19,20
 236 543 236 543 272 572.5 c 128,-1,21
 308 602 308 602 313 626 c 0,22,23
 321 659 321 659 278 659 c 0,24,25
 252 659 252 659 224.5 641.5 c 128,-1,26
 197 624 197 624 177 590 c 1,27,-1
 128 618 l 1,28,29
 197 726 197 726 296 727 c 0,30,31
 400 727 400 727 382 638 c 1,32,33
 370 587 370 587 313 545 c 1,34,35
 387 522 387 522 370 442 c 0,0,1
EndSplineSet
EndChar

StartChar: acute
Encoding: 180 180 118
Width: 389
VWidth: 1504
Flags: W
LayerCount: 2
Fore
SplineSet
200 551 m 1,0,-1
 129 551 l 1,1,-1
 280 724 l 1,2,-1
 397 724 l 1,3,-1
 200 551 l 1,0,-1
EndSplineSet
EndChar

StartChar: mu
Encoding: 181 181 119
Width: 622
VWidth: 1504
Flags: W
LayerCount: 2
Fore
SplineSet
514 6 m 1,0,-1
 420 -12 l 1,1,2
 415 5 415 5 413.5 22 c 128,-1,3
 412 39 412 39 412 60 c 1,4,5
 362 27 362 27 314 6.5 c 128,-1,6
 266 -14 266 -14 214 -14 c 0,7,8
 179 -14 179 -14 150.5 -1.5 c 128,-1,9
 122 11 122 11 107 36 c 1,10,-1
 54 -212 l 1,11,-1
 -39 -212 l 1,12,-1
 113 514 l 1,13,-1
 208 514 l 1,14,-1
 150 241 l 1,15,16
 112 71 112 71 242 71 c 0,17,18
 298 71 298 71 358 109 c 128,-1,19
 418 147 418 147 432 209 c 2,20,-1
 496 514 l 1,21,-1
 591 514 l 1,22,-1
 511 137 l 2,23,24
 505 110 505 110 506.5 77 c 128,-1,25
 508 44 508 44 514 6 c 1,0,-1
EndSplineSet
EndChar

StartChar: paragraph
Encoding: 182 182 120
Width: 571
VWidth: 1504
Flags: W
LayerCount: 2
Fore
SplineSet
400 -95 m 1,0,-1
 349 -95 l 1,1,-1
 511 666 l 1,2,-1
 439 666 l 1,3,-1
 277 -95 l 1,4,-1
 224 -95 l 1,5,-1
 302 271 l 1,6,-1
 296 271 l 2,7,8
 206 271 206 271 146.5 327.5 c 128,-1,9
 87 384 87 384 108 483 c 0,10,11
 156 715 156 715 454 714 c 0,12,13
 534 714 534 714 570 707 c 1,14,-1
 400 -95 l 1,0,-1
EndSplineSet
EndChar

StartChar: periodcentered
Encoding: 183 183 121
Width: 258
VWidth: 1504
Flags: W
LayerCount: 2
Fore
SplineSet
193 274 m 256,0,1
 187 244 187 244 161 223 c 128,-1,2
 135 202 135 202 105 202 c 256,3,4
 75 202 75 202 58.5 223 c 128,-1,5
 42 244 42 244 48 274 c 256,6,7
 54 304 54 304 79.5 325 c 128,-1,8
 105 346 105 346 135 346 c 256,9,10
 165 346 165 346 182 325 c 128,-1,11
 199 304 199 304 193 274 c 256,0,1
EndSplineSet
EndChar

StartChar: cedilla
Encoding: 184 184 122
Width: 374
VWidth: 1504
Flags: W
LayerCount: 2
Fore
SplineSet
199 -135 m 0,0,1
 190 -183 190 -183 152 -211 c 128,-1,2
 114 -239 114 -239 57 -239 c 0,3,4
 36 -239 36 -239 12.5 -232.5 c 128,-1,5
 -11 -226 -11 -226 -30 -212 c 1,6,-1
 0 -164 l 1,7,8
 18 -175 18 -175 38.5 -181 c 128,-1,9
 59 -187 59 -187 71 -187 c 0,10,11
 119 -187 119 -187 129 -141 c 1,12,13
 137 -99 137 -99 45 -83 c 1,14,-1
 131 17 l 1,15,-1
 196 17 l 1,16,-1
 141 -42 l 1,17,18
 179 -54 179 -54 193 -77 c 128,-1,19
 207 -100 207 -100 199 -135 c 0,0,1
EndSplineSet
EndChar

StartChar: onesuperior
Encoding: 185 185 123
Width: 391
VWidth: 1504
Flags: W
LayerCount: 2
Fore
SplineSet
311 293 m 1,0,-1
 110 293 l 1,1,-1
 122 352 l 1,2,-1
 187 352 l 1,3,-1
 244 623 l 1,4,-1
 171 566 l 1,5,-1
 146 617 l 1,6,-1
 293 728 l 1,7,8
 316 728 316 728 325 713.5 c 128,-1,9
 334 699 334 699 329 677 c 2,10,-1
 260 352 l 1,11,-1
 323 352 l 1,12,-1
 311 293 l 1,0,-1
EndSplineSet
EndChar

StartChar: ordmasculine
Encoding: 186 186 124
Width: 442
VWidth: 1504
Flags: W
LayerCount: 2
Fore
SplineSet
460 540 m 0,0,1
 442 459 442 459 374.5 404 c 128,-1,2
 307 349 307 349 227 349 c 0,3,4
 146 349 146 349 102.5 404 c 128,-1,5
 59 459 59 459 77 540 c 0,6,7
 94 620 94 620 160.5 676.5 c 128,-1,8
 227 733 227 733 308 733 c 0,9,10
 388 733 388 733 432.5 676.5 c 128,-1,11
 477 620 477 620 460 540 c 0,0,1
394 540 m 256,12,13
 405 591 405 591 375.5 628.5 c 128,-1,14
 346 666 346 666 295 666 c 256,15,16
 244 666 244 666 198.5 628.5 c 128,-1,17
 153 591 153 591 143 540 c 256,18,19
 132 489 132 489 161 452 c 128,-1,20
 190 415 190 415 241 415 c 256,21,22
 292 415 292 415 337.5 452 c 128,-1,23
 383 489 383 489 394 540 c 256,12,13
EndSplineSet
EndChar

StartChar: guillemotright
Encoding: 187 187 125
Width: 535
VWidth: 1504
Flags: W
LayerCount: 2
Fore
SplineSet
83 71 m 1,0,-1
 -6 71 l 1,1,-1
 208 271 l 1,2,-1
 80 472 l 1,3,-1
 168 472 l 1,4,-1
 298 269 l 1,5,-1
 83 71 l 1,0,-1
268 71 m 1,6,-1
 176 71 l 1,7,-1
 393 269 l 1,8,-1
 263 474 l 1,9,-1
 356 474 l 1,10,-1
 481 269 l 1,11,-1
 268 71 l 1,6,-1
EndSplineSet
EndChar

StartChar: onequarter
Encoding: 188 188 126
Width: 815
VWidth: 1504
Flags: W
LayerCount: 2
Fore
SplineSet
587 162 m 1,0,-1
 626 340 l 1,1,2
 588 310 588 310 552.5 259.5 c 128,-1,3
 517 209 517 209 501 162 c 1,4,-1
 587 162 l 1,0,-1
632 0 m 1,5,-1
 554 0 l 1,6,-1
 572 90 l 1,7,-1
 408 90 l 1,8,9
 419 138 419 138 446.5 198.5 c 128,-1,10
 474 259 474 259 515.5 312.5 c 128,-1,11
 557 366 557 366 610 402.5 c 128,-1,12
 663 439 663 439 725 441 c 1,13,-1
 665 162 l 1,14,-1
 728 162 l 1,15,-1
 710 90 l 1,16,-1
 650 90 l 1,17,-1
 632 0 l 1,5,-1
260 265 m 1,18,-1
 59 265 l 1,19,-1
 71 323 l 1,20,-1
 135 323 l 1,21,-1
 191 585 l 1,22,-1
 123 535 l 1,23,-1
 93 590 l 1,24,-1
 244 701 l 1,25,26
 289 698 289 698 278 648 c 2,27,-1
 209 323 l 1,28,-1
 272 323 l 1,29,-1
 260 265 l 1,18,-1
168 -14 m 1,30,-1
 93 -14 l 1,31,-1
 678 713 l 1,32,-1
 754 713 l 1,33,-1
 168 -14 l 1,30,-1
EndSplineSet
Ligature2: "'frac' Diagonal Fractions in Latin lookup 0 subtable" one fraction four
Ligature2: "'frac' Diagonal Fractions in Latin lookup 0 subtable" one slash four
EndChar

StartChar: onehalf
Encoding: 189 189 127
Width: 815
VWidth: 1504
Flags: W
LayerCount: 2
Fore
SplineSet
716 0 m 1,0,-1
 430 0 l 1,1,2
 447 57 447 57 489.5 100.5 c 128,-1,3
 532 144 532 144 578 179 c 1,4,5
 599 197 599 197 621.5 214.5 c 128,-1,6
 644 232 644 232 662.5 250 c 128,-1,7
 681 268 681 268 694.5 285 c 128,-1,8
 708 302 708 302 713 319 c 0,9,10
 718 340 718 340 708 355 c 128,-1,11
 698 370 698 370 672 370 c 0,12,13
 610 370 610 370 582 289 c 1,14,-1
 517 301 l 1,15,16
 538 369 538 369 582.5 404 c 128,-1,17
 627 439 627 439 683 439 c 0,18,19
 740 439 740 439 769.5 407.5 c 128,-1,20
 799 376 799 376 787 319 c 0,21,22
 778 281 778 281 749.5 248 c 128,-1,23
 721 215 721 215 684.5 184 c 128,-1,24
 648 153 648 153 612 124.5 c 128,-1,25
 576 96 576 96 552 69 c 1,26,-1
 739 69 l 1,27,-1
 716 0 l 1,0,-1
168 -14 m 1,28,-1
 93 -14 l 1,29,-1
 678 713 l 1,30,-1
 754 713 l 1,31,-1
 168 -14 l 1,28,-1
260 265 m 1,32,-1
 59 265 l 1,33,-1
 71 323 l 1,34,-1
 135 323 l 1,35,-1
 191 585 l 1,36,-1
 123 535 l 1,37,-1
 93 590 l 1,38,-1
 244 701 l 1,39,40
 289 698 289 698 278 648 c 2,41,-1
 209 323 l 1,42,-1
 272 323 l 1,43,-1
 260 265 l 1,32,-1
EndSplineSet
Ligature2: "'frac' Diagonal Fractions in Latin lookup 0 subtable" one fraction two
Ligature2: "'frac' Diagonal Fractions in Latin lookup 0 subtable" one slash two
EndChar

StartChar: threequarters
Encoding: 190 190 128
Width: 815
VWidth: 1504
Flags: W
LayerCount: 2
Fore
SplineSet
587 162 m 1,0,-1
 626 340 l 1,1,2
 587 302 587 302 552 255.5 c 128,-1,3
 517 209 517 209 501 162 c 1,4,-1
 587 162 l 1,0,-1
632 0 m 1,5,-1
 554 0 l 1,6,-1
 572 90 l 1,7,-1
 408 90 l 1,8,9
 423 146 423 146 450.5 207 c 128,-1,10
 478 268 478 268 519 320 c 128,-1,11
 560 372 560 372 611.5 405.5 c 128,-1,12
 663 439 663 439 725 441 c 1,13,-1
 665 162 l 1,14,-1
 728 162 l 1,15,-1
 710 90 l 1,16,-1
 650 90 l 1,17,-1
 632 0 l 1,5,-1
168 -14 m 1,18,-1
 93 -14 l 1,19,-1
 678 713 l 1,20,-1
 754 713 l 1,21,-1
 168 -14 l 1,18,-1
360 429 m 0,22,23
 352 390 352 390 330 359.5 c 128,-1,24
 308 329 308 329 279.5 309 c 128,-1,25
 251 289 251 289 216.5 278.5 c 128,-1,26
 182 268 182 268 149 268 c 0,27,28
 87 268 87 268 45 305 c 1,29,-1
 89 370 l 1,30,31
 106 353 106 353 125 345 c 128,-1,32
 144 337 144 337 165 337 c 0,33,34
 213 337 213 337 246.5 362.5 c 128,-1,35
 280 388 280 388 289 427 c 0,36,37
 300 480 300 480 250 480 c 0,38,39
 212 480 212 480 174 453 c 1,40,-1
 161 498 l 1,41,42
 235 533 235 533 263.5 560 c 128,-1,43
 292 587 292 587 299 617 c 0,44,45
 301 629 301 629 294 637 c 128,-1,46
 287 645 287 645 268 645 c 0,47,48
 208 645 208 645 165 572 c 1,49,-1
 116 600 l 1,50,51
 185 708 185 708 286 708 c 0,52,53
 339 708 339 708 358.5 684 c 128,-1,54
 378 660 378 660 370 627 c 0,55,56
 359 576 359 576 304 534 c 1,57,58
 343 528 343 528 356 499.5 c 128,-1,59
 369 471 369 471 360 429 c 0,22,23
EndSplineSet
Ligature2: "'frac' Diagonal Fractions in Latin lookup 0 subtable" three fraction four
Ligature2: "'frac' Diagonal Fractions in Latin lookup 0 subtable" three slash four
EndChar

StartChar: questiondown
Encoding: 191 191 129
Width: 434
VWidth: 1504
Flags: W
LayerCount: 2
Fore
SplineSet
295 -171 m 1,0,1
 194 -227 194 -227 110 -227 c 0,2,3
 24 -227 24 -227 -17.5 -181 c 128,-1,4
 -59 -135 -59 -135 -42 -59 c 0,5,6
 -25 21 -25 21 95 123 c 0,7,8
 137 158 137 158 161 193.5 c 128,-1,9
 185 229 185 229 193 260 c 0,10,11
 199 286 199 286 196 323 c 1,12,-1
 281 323 l 1,13,14
 284 302 284 302 284 285 c 128,-1,15
 284 268 284 268 283 256 c 0,16,17
 265 173 265 173 158 81 c 0,18,19
 65 0 65 0 53 -56 c 0,20,21
 35 -142 35 -142 140 -141 c 0,22,23
 205 -141 205 -141 274 -98 c 1,24,-1
 295 -171 l 1,0,1
329 441 m 256,25,26
 323 411 323 411 297.5 390 c 128,-1,27
 272 369 272 369 244 369 c 256,28,29
 215 369 215 369 198.5 390 c 128,-1,30
 182 411 182 411 188 441 c 256,31,32
 194 471 194 471 219.5 492 c 128,-1,33
 245 513 245 513 274 513 c 256,34,35
 303 513 303 513 319 492 c 128,-1,36
 335 471 335 471 329 441 c 256,25,26
EndSplineSet
EndChar

StartChar: AE
Encoding: 198 198 136
Width: 876
VWidth: 1504
Flags: W
LayerCount: 2
Fore
SplineSet
769 0 m 1,0,-1
 424 0 l 1,1,-1
 444 286 l 1,2,-1
 233 286 l 1,3,-1
 21 0 l 1,4,-1
 -81 0 l 1,5,-1
 462 727 l 1,6,-1
 904 727 l 1,7,-1
 886 644 l 1,8,-1
 558 644 l 1,9,-1
 540 423 l 1,10,-1
 824 423 l 1,11,-1
 808 340 l 1,12,-1
 537 340 l 1,13,-1
 520 83 l 1,14,-1
 785 83 l 1,15,-1
 769 0 l 1,0,-1
448 367 m 1,16,-1
 472 609 l 1,17,-1
 290 367 l 1,18,-1
 448 367 l 1,16,-1
EndSplineSet
EndChar

StartChar: Eth
Encoding: 208 208 146
Width: 690
VWidth: 1504
Flags: W
LayerCount: 2
Fore
SplineSet
663 373 m 0,0,1
 628 211 628 211 529 113 c 0,2,3
 409 -6 409 -6 209 -6 c 0,4,5
 147 -6 147 -6 11 9 c 1,6,-1
 74 310 l 1,7,-1
 12 310 l 1,8,-1
 30 391 l 1,9,-1
 92 391 l 1,10,-1
 158 704 l 1,11,12
 334 724 334 724 394 724 c 0,13,14
 578 724 578 724 642 614 c 1,15,16
 696 525 696 525 663 373 c 0,0,1
567 373 m 0,17,18
 624 642 624 642 372 642 c 0,19,20
 330 642 330 642 238 633 c 1,21,-1
 187 391 l 1,22,-1
 427 391 l 1,23,-1
 409 310 l 1,24,-1
 168 310 l 1,25,-1
 120 80 l 1,26,27
 168 75 168 75 244 75 c 0,28,29
 390 75 390 75 478 179 c 0,30,31
 543 256 543 256 567 373 c 0,17,18
EndSplineSet
EndChar

StartChar: multiply
Encoding: 215 215 153
Width: 627
VWidth: 1504
Flags: W
LayerCount: 2
Fore
SplineSet
531 51 m 1,0,-1
 457 -8 l 1,1,-1
 292 215 l 1,2,3
 229 162 229 162 162 103.5 c 128,-1,4
 95 45 95 45 32 -8 c 1,5,-1
 -14 51 l 1,6,-1
 245 274 l 1,7,8
 204 330 204 330 163 387.5 c 128,-1,9
 122 445 122 445 80 501 c 1,10,-1
 153 560 l 1,11,-1
 319 337 l 1,12,13
 382 391 382 391 449.5 449 c 128,-1,14
 517 507 517 507 579 560 c 1,15,-1
 626 501 l 1,16,-1
 363 275 l 1,17,-1
 531 51 l 1,0,-1
EndSplineSet
EndChar

StartChar: Oslash
Encoding: 216 216 154
Width: 779
VWidth: 1504
Flags: W
LayerCount: 2
Fore
SplineSet
749 356 m 256,0,1
 716 198 716 198 595 91.5 c 128,-1,2
 474 -15 474 -15 319 -15 c 0,3,4
 248 -15 248 -15 194 6 c 1,5,-1
 161 -42 l 1,6,-1
 65 -42 l 1,7,-1
 128 47 l 1,8,9
 107 67 107 67 89 92 c 0,10,11
 15 199 15 199 48 356 c 256,12,13
 81 514 81 514 202 622 c 128,-1,14
 323 730 323 730 478 730 c 0,15,16
 552 730 552 730 606 705 c 1,17,-1
 632 740 l 1,18,-1
 728 740 l 1,19,-1
 671 662 l 1,20,21
 691 644 691 644 707 621 c 0,22,23
 782 514 782 514 749 356 c 256,0,1
554 630 m 1,24,25
 513 648 513 648 460 648 c 0,26,27
 344 648 344 648 256 564.5 c 128,-1,28
 168 481 168 481 141 358 c 0,29,30
 115 235 115 235 168 150 c 0,31,32
 176 136 176 136 185 126 c 1,33,-1
 554 630 l 1,24,25
656 358 m 0,34,35
 683 481 683 481 629 564 c 0,36,37
 623 575 623 575 615 584 c 1,38,-1
 250 83 l 1,39,40
 288 68 288 68 337 68 c 0,41,42
 453 68 453 68 541.5 151.5 c 128,-1,43
 630 235 630 235 656 358 c 0,34,35
EndSplineSet
EndChar

StartChar: Thorn
Encoding: 222 222 160
Width: 592
VWidth: 1504
Flags: W
LayerCount: 2
Fore
SplineSet
549 375 m 0,0,1
 525 259 525 259 435.5 198 c 128,-1,2
 346 137 346 137 209 137 c 0,3,4
 161 137 161 137 132 143 c 1,5,-1
 102 0 l 1,6,-1
 14 0 l 1,7,-1
 165 716 l 1,8,-1
 254 716 l 1,9,-1
 230 606 l 1,10,11
 262 612 262 612 310 612 c 0,12,13
 447 612 447 612 511 551.5 c 128,-1,14
 575 491 575 491 549 375 c 0,0,1
462 375 m 0,15,16
 497 534 497 534 296 534 c 0,17,18
 249 534 249 534 212 522 c 1,19,-1
 150 227 l 1,20,21
 182 215 182 215 229 215 c 0,22,23
 429 216 429 216 462 375 c 0,15,16
EndSplineSet
EndChar

StartChar: germandbls
Encoding: 223 223 161
Width: 639
VWidth: 1504
Flags: W
LayerCount: 2
Fore
SplineSet
534 164 m 0,0,1
 516 81 516 81 454.5 33.5 c 128,-1,2
 393 -14 393 -14 305 -14 c 0,3,4
 266 -14 266 -14 232.5 -4 c 128,-1,5
 199 6 199 6 168 24 c 1,6,-1
 215 105 l 1,7,8
 275 69 275 69 323 69 c 256,9,10
 371 69 371 69 403.5 94 c 128,-1,11
 436 119 436 119 444 155 c 0,12,13
 452 188 452 188 434.5 213.5 c 128,-1,14
 417 239 417 239 394.5 264 c 128,-1,15
 372 289 372 289 355 316 c 128,-1,16
 338 343 338 343 346 379 c 0,17,18
 351 399 351 399 370.5 422 c 128,-1,19
 390 445 390 445 414 468.5 c 128,-1,20
 438 492 438 492 457.5 513.5 c 128,-1,21
 477 535 477 535 481 554 c 0,22,23
 502 655 502 655 394 654 c 0,24,25
 268 654 268 654 218 423 c 2,26,-1
 116 -60 l 2,27,28
 107 -99 107 -99 89 -138 c 128,-1,29
 71 -177 71 -177 42 -215 c 1,30,-1
 -38 -193 l 1,31,32
 -9 -155 -9 -155 5.5 -122.5 c 128,-1,33
 20 -90 20 -90 26 -60 c 2,34,-1
 134 447 l 2,35,36
 196 740 196 740 423 740 c 0,37,38
 504 740 504 740 545.5 691 c 128,-1,39
 587 642 587 642 569 557 c 0,40,41
 561 522 561 522 540 494 c 128,-1,42
 519 466 519 466 497 443.5 c 128,-1,43
 475 421 475 421 456.5 404.5 c 128,-1,44
 438 388 438 388 435 375 c 0,45,46
 432 360 432 360 450.5 339.5 c 128,-1,47
 469 319 469 319 489.5 292 c 128,-1,48
 510 265 510 265 526 233.5 c 128,-1,49
 542 202 542 202 534 164 c 0,0,1
EndSplineSet
EndChar

StartChar: ae
Encoding: 230 230 168
Width: 934
VWidth: 1504
Flags: W
LayerCount: 2
Fore
SplineSet
811 27 m 1,0,1
 701 -14 701 -14 593 -14 c 0,2,3
 446 -14 446 -14 388 92 c 1,4,5
 311 -13 311 -13 152 -14 c 0,6,7
 114 -14 114 -14 83.5 -3 c 128,-1,8
 53 8 53 8 32 27.5 c 128,-1,9
 11 47 11 47 3 75.5 c 128,-1,10
 -5 104 -5 104 2 140 c 1,11,12
 44 336 44 336 387 338 c 1,13,14
 396 389 396 389 371 421.5 c 128,-1,15
 346 454 346 454 289 454 c 0,16,17
 241 454 241 454 102 415 c 1,18,-1
 108 501 l 1,19,20
 221 533 221 533 311 532 c 0,21,22
 379 532 379 532 419 512 c 128,-1,23
 459 492 459 492 474 441 c 1,24,25
 566 533 566 533 702 532 c 0,26,27
 934 532 934 532 880 241 c 1,28,-1
 460 241 l 1,29,30
 449 158 449 158 491.5 114.5 c 128,-1,31
 534 71 534 71 615 71 c 0,32,33
 702 71 702 71 821 110 c 1,34,-1
 811 27 l 1,0,1
370 256 m 1,35,36
 241 254 241 254 177.5 228 c 128,-1,37
 114 202 114 202 104 149 c 0,38,39
 95 110 95 110 115 89.5 c 128,-1,40
 135 69 135 69 171 69 c 0,41,42
 243 69 243 69 295 109.5 c 128,-1,43
 347 150 347 150 363 223 c 2,44,-1
 370 256 l 1,35,36
803 320 m 1,45,46
 805 376 805 376 774 415 c 128,-1,47
 743 454 743 454 680 454 c 0,48,49
 614 454 614 454 563.5 419 c 128,-1,50
 513 384 513 384 486 320 c 1,51,-1
 803 320 l 1,45,46
EndSplineSet
EndChar

StartChar: eth
Encoding: 240 240 178
Width: 568
VWidth: 1504
Flags: W
LayerCount: 2
Fore
SplineSet
498 245 m 0,0,1
 472 123 472 123 388 49.5 c 128,-1,2
 304 -24 304 -24 199 -24 c 0,3,4
 104 -24 104 -24 57.5 44.5 c 128,-1,5
 11 113 11 113 33 214 c 0,6,7
 54 313 54 313 130 380.5 c 128,-1,8
 206 448 206 448 296 448 c 256,9,10
 386 448 386 448 420 400 c 1,11,12
 400 475 400 475 323 548 c 0,13,14
 321 550 321 550 320 549 c 2,15,-1
 152 471 l 1,16,-1
 125 537 l 1,17,-1
 259 599 l 1,18,19
 211 629 211 629 161 644 c 1,20,-1
 187 719 l 1,21,22
 288 698 288 698 360 645 c 1,23,-1
 511 716 l 1,24,-1
 529 647 l 1,25,-1
 415 594 l 1,26,27
 540 444 540 444 498 245 c 0,0,1
390 214 m 0,28,29
 404 279 404 279 372.5 323 c 128,-1,30
 341 367 341 367 284 367 c 0,31,32
 230 367 230 367 181 320.5 c 128,-1,33
 132 274 132 274 120 214 c 0,34,35
 106 154 106 154 135.5 107 c 128,-1,36
 165 60 165 60 220 60 c 0,37,38
 277 60 277 60 326.5 105.5 c 128,-1,39
 376 151 376 151 390 214 c 0,28,29
EndSplineSet
EndChar

StartChar: divide
Encoding: 247 247 185
Width: 627
VWidth: 1504
Flags: W
LayerCount: 2
Fore
SplineSet
572 236 m 1,0,-1
 23 236 l 1,1,-1
 39 317 l 1,2,-1
 588 317 l 1,3,-1
 572 236 l 1,0,-1
337 84 m 0,4,5
 331 54 331 54 305.5 33 c 128,-1,6
 280 12 280 12 251 12 c 256,7,8
 222 12 222 12 206 33 c 128,-1,9
 190 54 190 54 196 84 c 0,10,11
 204 114 204 114 229 135 c 128,-1,12
 254 156 254 156 283 156 c 256,13,14
 312 156 312 156 328.5 135 c 128,-1,15
 345 114 345 114 337 84 c 0,4,5
420 471 m 256,16,17
 414 441 414 441 388.5 420 c 128,-1,18
 363 399 363 399 334 399 c 256,19,20
 305 399 305 399 288.5 420 c 128,-1,21
 272 441 272 441 278 471 c 256,22,23
 284 501 284 501 309.5 522 c 128,-1,24
 335 543 335 543 364 543 c 256,25,26
 393 543 393 543 409.5 522 c 128,-1,27
 426 501 426 501 420 471 c 256,16,17
EndSplineSet
EndChar

StartChar: oslash
Encoding: 248 248 186
Width: 619
VWidth: 1504
Flags: W
LayerCount: 2
Fore
SplineSet
569 259 m 256,0,1
 545 145 545 145 451.5 66.5 c 128,-1,2
 358 -12 358 -12 241 -12 c 0,3,4
 191 -12 191 -12 152 2 c 1,5,-1
 120 -42 l 1,6,-1
 24 -42 l 1,7,-1
 84 42 l 1,8,9
 72 53 72 53 63 66 c 0,10,11
 3 144 3 144 27 259 c 256,12,13
 51 373 51 373 145 452 c 128,-1,14
 239 531 239 531 356 531 c 0,15,16
 398 531 398 531 433 520 c 1,17,-1
 469 569 l 1,18,-1
 566 569 l 1,19,-1
 504 483 l 1,20,21
 519 469 519 469 532 451 c 0,22,23
 593 373 593 373 569 259 c 256,0,1
475 259 m 0,24,25
 493 340 493 340 454 394 c 0,26,27
 449 400 449 400 447 405 c 1,28,-1
 205 75 l 1,29,30
 229 67 229 67 257 68 c 0,31,32
 335 68 335 68 396.5 123 c 128,-1,33
 458 178 458 178 475 259 c 0,24,25
378 445 m 1,34,35
 360 450 360 450 338 450 c 0,36,37
 260 450 260 450 199 395 c 128,-1,38
 138 340 138 340 120 259 c 0,39,40
 103 178 103 178 141 122 c 1,41,-1
 143 120 l 1,42,-1
 378 445 l 1,34,35
EndSplineSet
EndChar

StartChar: thorn
Encoding: 254 254 192
Width: 658
VWidth: 1504
Flags: W
LayerCount: 2
Fore
SplineSet
596 269 m 0,0,1
 569 143 569 143 478 64.5 c 128,-1,2
 387 -14 387 -14 269 -14 c 0,3,4
 168 -14 168 -14 114 48 c 1,5,-1
 62 -202 l 1,6,-1
 -26 -202 l 1,7,-1
 168 716 l 1,8,-1
 257 716 l 1,9,-1
 203 462 l 1,10,11
 293 533 293 533 400 532 c 0,12,13
 510 532 510 532 565 457.5 c 128,-1,14
 620 383 620 383 596 269 c 0,0,1
507 268 m 0,15,16
 525 349 525 349 488 401.5 c 128,-1,17
 451 454 451 454 375 454 c 0,18,19
 304 454 304 454 243 410 c 128,-1,20
 182 366 182 366 167 295 c 2,21,-1
 149 209 l 2,22,23
 137 152 137 152 180 110.5 c 128,-1,24
 223 69 223 69 290 69 c 0,25,26
 368 69 368 69 427.5 122 c 128,-1,27
 487 175 487 175 507 268 c 0,15,16
EndSplineSet
EndChar

StartChar: dotlessi
Encoding: 305 305 194
Width: 245
VWidth: 1504
Flags: W
LayerCount: 2
Fore
SplineSet
104 0 m 1,0,-1
 9 0 l 1,1,-1
 117 511 l 1,2,-1
 212 511 l 1,3,-1
 104 0 l 1,0,-1
EndSplineSet
EndChar

StartChar: Lslash
Encoding: 321 321 195
Width: 540
VWidth: 1504
Flags: W
LayerCount: 2
Fore
SplineSet
454 0 m 1,0,-1
 9 0 l 1,1,-1
 56 224 l 1,2,-1
 11 214 l 1,3,-1
 30 307 l 1,4,-1
 75 317 l 1,5,-1
 161 716 l 1,6,-1
 256 716 l 1,7,-1
 176 340 l 1,8,-1
 531 420 l 1,9,-1
 511 326 l 1,10,-1
 155 247 l 1,11,-1
 120 81 l 1,12,-1
 471 81 l 1,13,-1
 454 0 l 1,0,-1
EndSplineSet
EndChar

StartChar: lslash
Encoding: 322 322 196
Width: 326
VWidth: 1504
Flags: W
LayerCount: 2
Fore
SplineSet
260 74 m 1,0,-1
 232 -12 l 1,1,2
 11 0 11 0 66 263 c 2,3,-1
 86 355 l 1,4,-1
 17 337 l 1,5,-1
 35 418 l 1,6,-1
 102 436 l 1,7,-1
 171 758 l 1,8,-1
 266 758 l 1,9,-1
 203 465 l 1,10,-1
 352 507 l 1,11,-1
 335 426 l 1,12,-1
 187 384 l 1,13,-1
 165 284 l 2,14,15
 139 168 139 168 167 120 c 0,16,17
 189 80 189 80 260 74 c 1,0,-1
EndSplineSet
EndChar

StartChar: OE
Encoding: 338 338 197
Width: 1087
VWidth: 1504
Flags: W
LayerCount: 2
Fore
SplineSet
984 0 m 1,0,-1
 558 0 l 1,1,-1
 566 41 l 1,2,3
 464 -15 464 -15 349 -15 c 0,4,5
 182 -15 182 -15 98.5 92 c 128,-1,6
 15 199 15 199 48 358 c 0,7,8
 81 516 81 516 211 623.5 c 128,-1,9
 341 731 341 731 508 731 c 0,10,11
 622 731 622 731 701 674 c 1,12,-1
 710 716 l 1,13,-1
 1136 716 l 1,14,-1
 1118 635 l 1,15,-1
 787 635 l 1,16,-1
 742 418 l 1,17,-1
 1036 418 l 1,18,-1
 1018 337 l 1,19,-1
 724 337 l 1,20,-1
 669 81 l 1,21,-1
 1000 81 l 1,22,-1
 984 0 l 1,0,-1
591 156 m 1,23,-1
 675 555 l 1,24,25
 618 648 618 648 490 648 c 0,26,27
 376 648 376 648 271.5 560 c 128,-1,28
 167 472 167 472 143 358 c 0,29,30
 119 241 119 241 185 153.5 c 128,-1,31
 251 66 251 66 367 66 c 0,32,33
 495 66 495 66 591 156 c 1,23,-1
EndSplineSet
EndChar

StartChar: oe
Encoding: 339 339 198
Width: 1036
VWidth: 1504
Flags: W
LayerCount: 2
Fore
SplineSet
922 110 m 1,0,-1
 915 27 l 1,1,2
 798 -14 798 -14 698 -14 c 0,3,4
 546 -14 546 -14 484 98 c 1,5,6
 382 -12 382 -12 241 -12 c 0,7,8
 124 -12 124 -12 63.5 66 c 128,-1,9
 3 144 3 144 27 259 c 256,10,11
 51 373 51 373 145 452 c 128,-1,12
 239 531 239 531 356 531 c 0,13,14
 502 531 502 531 554 415 c 1,15,16
 670 531 670 531 808 531 c 0,17,18
 1040 531 1040 531 982 241 c 1,19,-1
 566 241 l 1,20,21
 554 161 554 161 596 116 c 128,-1,22
 638 71 638 71 721 71 c 256,23,24
 803 71 803 71 922 110 c 1,0,-1
475 259 m 0,25,26
 493 340 493 340 455 395 c 128,-1,27
 417 450 417 450 338 450 c 256,28,29
 260 450 260 450 199 395 c 128,-1,30
 138 340 138 340 120 259 c 0,31,32
 103 178 103 178 141 123 c 128,-1,33
 179 68 179 68 257 68 c 256,34,35
 335 68 335 68 396.5 123 c 128,-1,36
 458 178 458 178 475 259 c 0,25,26
588 320 m 1,37,-1
 906 320 l 1,38,39
 911 380 911 380 876.5 416.5 c 128,-1,40
 842 453 842 453 781 453 c 0,41,42
 721 453 721 453 666 416 c 128,-1,43
 611 379 611 379 588 320 c 1,37,-1
EndSplineSet
EndChar

StartChar: florin
Encoding: 402 402 204
Width: 607
VWidth: 1504
Flags: W
LayerCount: 2
Fore
SplineSet
505 382 m 1,0,-1
 364 382 l 1,1,-1
 260 140 l 2,2,3
 156 -104 156 -104 -30 -104 c 0,4,5
 -89 -104 -89 -104 -120 -66 c 1,6,-1
 -68 0 l 1,7,8
 -35 -21 -35 -21 2 -21 c 0,9,10
 100 -21 100 -21 171 147 c 2,11,-1
 272 382 l 1,12,-1
 191 382 l 1,13,-1
 224 460 l 1,14,-1
 308 460 l 1,15,-1
 317 484 l 1,16,17
 373 601 373 601 446 664.5 c 128,-1,18
 519 728 519 728 609 728 c 0,19,20
 668 728 668 728 699 690 c 1,21,-1
 647 624 l 1,22,23
 615 645 615 645 578 645 c 0,24,25
 479 645 479 645 406 477 c 1,26,-1
 399 460 l 1,27,-1
 539 460 l 1,28,-1
 505 382 l 1,0,-1
EndSplineSet
EndChar

StartChar: circumflex
Encoding: 710 710 205
Width: 327
VWidth: 1504
Flags: W
LayerCount: 2
Fore
SplineSet
363 579 m 1,0,-1
 281 579 l 1,1,-1
 242 686 l 1,2,-1
 159 579 l 1,3,-1
 77 579 l 1,4,-1
 232 752 l 1,5,-1
 284 752 l 1,6,-1
 363 579 l 1,0,-1
EndSplineSet
EndChar

StartChar: caron
Encoding: 711 711 206
Width: 463
VWidth: 1504
Flags: W
LayerCount: 2
Fore
SplineSet
313 579 m 1,0,-1
 260 579 l 1,1,-1
 182 752 l 1,2,-1
 263 752 l 1,3,-1
 302 645 l 1,4,-1
 385 752 l 1,5,-1
 468 752 l 1,6,-1
 313 579 l 1,0,-1
EndSplineSet
EndChar

StartChar: breve
Encoding: 728 728 207
Width: 514
VWidth: 1504
Flags: W
LayerCount: 2
Fore
SplineSet
525 739 m 1,0,1
 492 653 492 653 438 611.5 c 128,-1,2
 384 570 384 570 311 570 c 256,3,4
 239 570 239 570 203 611.5 c 128,-1,5
 167 653 167 653 170 739 c 1,6,-1
 251 739 l 1,7,8
 251 701 251 701 267.5 671.5 c 128,-1,9
 284 642 284 642 326 642 c 256,10,11
 368 642 368 642 399 671.5 c 128,-1,12
 430 701 430 701 445 739 c 1,13,-1
 525 739 l 1,0,1
EndSplineSet
EndChar

StartChar: dotaccent
Encoding: 729 729 208
Width: 290
VWidth: 1504
Flags: W
LayerCount: 2
Fore
SplineSet
317 820 m 0,0,1
 311 791 311 791 288 772.5 c 128,-1,2
 265 754 265 754 239 754 c 256,3,4
 213 754 213 754 197 772.5 c 128,-1,5
 181 791 181 791 187 820 c 0,6,7
 193 847 193 847 217.5 866.5 c 128,-1,8
 242 886 242 886 268 886 c 256,9,10
 294 886 294 886 308.5 866.5 c 128,-1,11
 323 847 323 847 317 820 c 0,0,1
EndSplineSet
EndChar

StartChar: ring
Encoding: 730 730 209
Width: 400
VWidth: 1504
Flags: W
LayerCount: 2
Fore
SplineSet
402 698 m 256,0,1
 391 648 391 648 348 613 c 128,-1,2
 305 578 305 578 256 578 c 256,3,4
 206 578 206 578 178 613 c 128,-1,5
 150 648 150 648 161 698 c 256,6,7
 172 748 172 748 214.5 783 c 128,-1,8
 257 818 257 818 307 818 c 256,9,10
 357 818 357 818 385 783 c 128,-1,11
 413 748 413 748 402 698 c 256,0,1
338 698 m 0,12,13
 344 722 344 722 330.5 738.5 c 128,-1,14
 317 755 317 755 293 755 c 256,15,16
 269 755 269 755 249 738.5 c 128,-1,17
 229 722 229 722 223 698 c 0,18,19
 218 674 218 674 231.5 656.5 c 128,-1,20
 245 639 245 639 269 639 c 256,21,22
 293 639 293 639 313 656.5 c 128,-1,23
 333 674 333 674 338 698 c 0,12,13
EndSplineSet
EndChar

StartChar: ogonek
Encoding: 731 731 210
Width: 383
VWidth: 1504
Flags: W
LayerCount: 2
Fore
SplineSet
194 -205 m 1,0,1
 126 -231 126 -231 78 -230 c 0,2,3
 19 -230 19 -230 -0.5 -195.5 c 128,-1,4
 -20 -161 -20 -161 -11 -114 c 0,5,6
 -5 -85 -5 -85 11 -49.5 c 128,-1,7
 27 -14 27 -14 48 29 c 1,8,-1
 137 29 l 1,9,10
 87 -51 87 -51 78 -93 c 0,11,12
 69 -141 69 -141 110 -146 c 1,13,14
 127 -146 127 -146 154.5 -137.5 c 128,-1,15
 182 -129 182 -129 212 -117 c 1,16,-1
 194 -205 l 1,0,1
EndSplineSet
EndChar

StartChar: tilde
Encoding: 732 732 211
Width: 389
VWidth: 1504
Flags: W
LayerCount: 2
Fore
SplineSet
418 666 m 1,0,1
 404 613 404 613 376.5 582.5 c 128,-1,2
 349 552 349 552 305 552 c 0,3,4
 293 552 293 552 276.5 559 c 128,-1,5
 260 566 260 566 243.5 574 c 128,-1,6
 227 582 227 582 212 589 c 128,-1,7
 197 596 197 596 187 596 c 0,8,9
 175 596 175 596 168.5 584.5 c 128,-1,10
 162 573 162 573 161 560 c 1,11,-1
 95 560 l 1,12,13
 104 605 104 605 132.5 635.5 c 128,-1,14
 161 666 161 666 202 666 c 0,15,16
 216 666 216 666 231.5 660 c 128,-1,17
 247 654 247 654 262 646 c 128,-1,18
 277 638 277 638 291 632 c 128,-1,19
 305 626 305 626 316 626 c 0,20,21
 345 626 345 626 353 666 c 1,22,-1
 418 666 l 1,0,1
EndSplineSet
EndChar

StartChar: hungarumlaut
Encoding: 733 733 212
Width: 540
VWidth: 1504
Flags: W
LayerCount: 2
Fore
SplineSet
369 481 m 1,0,-1
 305 481 l 1,1,-1
 454 739 l 1,2,-1
 551 739 l 1,3,-1
 369 481 l 1,0,-1
179 481 m 1,4,-1
 116 481 l 1,5,-1
 265 739 l 1,6,-1
 360 739 l 1,7,-1
 179 481 l 1,4,-1
EndSplineSet
EndChar

StartChar: uni0E01
Encoding: 3585 3585 214
Width: 588
VWidth: 1504
Flags: W
LayerCount: 2
Fore
SplineSet
460 71 m 2,0,1
 442 -15 442 -15 390 -41 c 1,2,-1
 316 0 l 1,3,4
 360 26 360 26 375 105 c 1,5,-1
 436 399 l 2,6,7
 450 461 450 461 420 496.5 c 128,-1,8
 390 532 390 532 328 532 c 0,9,10
 238 532 238 532 174 456 c 1,11,12
 242 442 242 442 260 388 c 1,13,14
 174 343 174 343 161 280 c 2,15,-1
 102 0 l 1,16,-1
 9 0 l 1,17,-1
 69 286 l 2,18,19
 83 349 83 349 152 385 c 1,20,21
 120 411 120 411 63 403 c 1,22,23
 87 496 87 496 168 557 c 0,24,25
 243 613 243 613 341 612 c 0,26,27
 449 612 449 612 500 554 c 128,-1,28
 551 496 551 496 529 397 c 2,29,-1
 460 71 l 2,0,1
EndSplineSet
EndChar

StartChar: uni0E02
Encoding: 3586 3586 215
Width: 624
VWidth: 1504
Flags: W
LayerCount: 2
Fore
SplineSet
214 430 m 0,0,1
 219 450 219 450 208 463.5 c 128,-1,2
 197 477 197 477 177 477 c 256,3,4
 157 477 157 477 141 463.5 c 128,-1,5
 125 450 125 450 120 430 c 0,6,7
 117 410 117 410 127.5 397 c 128,-1,8
 138 384 138 384 158 384 c 256,9,10
 178 384 178 384 194.5 397 c 128,-1,11
 211 410 211 410 214 430 c 0,0,1
510 141 m 2,12,13
 495 67 495 67 441 27.5 c 128,-1,14
 387 -12 387 -12 311 -12 c 256,15,16
 236 -12 236 -12 198.5 28 c 128,-1,17
 161 68 161 68 176 141 c 2,18,-1
 197 239 l 2,19,20
 206 283 206 283 261.5 356 c 128,-1,21
 317 429 317 429 326 471 c 0,22,23
 334 506 334 506 314.5 528.5 c 128,-1,24
 295 551 295 551 263 551 c 0,25,26
 215 551 215 551 196 531 c 1,27,28
 240 529 240 529 262 502 c 128,-1,29
 284 475 284 475 275 433 c 0,30,31
 264 388 264 388 227 357 c 128,-1,32
 190 326 190 326 146 326 c 0,33,34
 95 326 95 326 71.5 363 c 128,-1,35
 48 400 48 400 59 453 c 0,36,37
 74 522 74 522 138.5 567 c 128,-1,38
 203 612 203 612 275 612 c 0,39,40
 350 612 350 612 390 576 c 128,-1,41
 430 540 430 540 415 471 c 0,42,43
 406 426 406 426 351 344.5 c 128,-1,44
 296 263 296 263 289 230 c 2,45,-1
 266 120 l 2,46,47
 260 94 260 94 280.5 81 c 128,-1,48
 301 68 301 68 328 68 c 0,49,50
 357 68 357 68 382.5 82 c 128,-1,51
 408 96 408 96 414 120 c 2,52,-1
 502 542 l 2,53,54
 520 626 520 626 573 651 c 1,55,-1
 656 617 l 1,56,57
 606 594 606 594 588 507 c 2,58,-1
 510 141 l 2,12,13
EndSplineSet
EndChar

StartChar: uni0E03
Encoding: 3587 3587 216
Width: 648
VWidth: 1504
Flags: W
LayerCount: 2
Fore
SplineSet
206 366 m 256,0,1
 211 386 211 386 200.5 399 c 128,-1,2
 190 412 190 412 170 412 c 256,3,4
 150 412 150 412 133.5 398.5 c 128,-1,5
 117 385 117 385 113 366 c 256,6,7
 108 346 108 346 119.5 332.5 c 128,-1,8
 131 319 131 319 150 319 c 256,9,10
 170 319 170 319 185.5 332.5 c 128,-1,11
 201 346 201 346 206 366 c 256,0,1
534 141 m 2,12,13
 519 67 519 67 465 27.5 c 128,-1,14
 411 -12 411 -12 335 -12 c 256,15,16
 260 -12 260 -12 222.5 28 c 128,-1,17
 185 68 185 68 200 141 c 2,18,-1
 215 209 l 2,19,20
 226 257 226 257 293 336 c 128,-1,21
 360 415 360 415 370 460 c 1,22,23
 375 517 375 517 338 540 c 1,24,-1
 271 483 l 1,25,-1
 217 543 l 1,26,27
 200 534 200 534 177.5 510.5 c 128,-1,28
 155 487 155 487 150 469 c 1,29,30
 173 474 173 474 182 474 c 0,31,32
 227 474 227 474 252.5 442.5 c 128,-1,33
 278 411 278 411 268 366 c 0,34,35
 259 321 259 321 221.5 289 c 128,-1,36
 184 257 184 257 137 257 c 0,37,38
 84 257 84 257 60 300.5 c 128,-1,39
 36 344 36 344 47 396 c 0,40,41
 65 476 65 476 121 541 c 128,-1,42
 177 606 177 606 247 612 c 1,43,-1
 286 561 l 1,44,-1
 343 614 l 1,45,46
 472 584 472 584 445 454 c 0,47,48
 434 407 434 407 377 335 c 128,-1,49
 320 263 320 263 311 221 c 2,50,-1
 290 120 l 2,51,52
 284 94 284 94 304.5 81 c 128,-1,53
 325 68 325 68 352 68 c 0,54,55
 381 68 381 68 406.5 82 c 128,-1,56
 432 96 432 96 438 120 c 2,57,-1
 526 542 l 2,58,59
 544 626 544 626 597 651 c 1,60,-1
 680 617 l 1,61,62
 630 594 630 594 612 507 c 2,63,-1
 534 141 l 2,12,13
EndSplineSet
EndChar

StartChar: uni0E04
Encoding: 3588 3588 217
Width: 606
VWidth: 1504
Flags: W
LayerCount: 2
Fore
SplineSet
356 358 m 256,0,1
 361 378 361 378 350.5 391.5 c 128,-1,2
 340 405 340 405 320 405 c 256,3,4
 300 405 300 405 284.5 391.5 c 128,-1,5
 269 378 269 378 265 358 c 256,6,7
 260 338 260 338 270.5 325.5 c 128,-1,8
 281 313 281 313 301 313 c 256,9,10
 321 313 321 313 336 325.5 c 128,-1,11
 351 338 351 338 356 358 c 256,0,1
478 71 m 2,12,13
 460 -15 460 -15 408 -41 c 1,14,-1
 334 0 l 1,15,16
 378 26 378 26 393 105 c 1,17,-1
 457 411 l 2,18,19
 468 465 468 465 429 501 c 0,20,21
 393 533 393 533 335 532 c 0,22,23
 267 532 267 532 217 486.5 c 128,-1,24
 167 441 167 441 153 381 c 0,25,26
 150 364 150 364 148.5 325.5 c 128,-1,27
 147 287 147 287 141 259 c 2,28,-1
 132 217 l 2,29,30
 132 219 132 219 144 249.5 c 128,-1,31
 156 280 156 280 161 296 c 1,32,33
 190 359 190 359 230 402 c 0,34,35
 281 456 281 456 332 456 c 0,36,37
 373 456 373 456 397 427.5 c 128,-1,38
 421 399 421 399 412 358 c 0,39,40
 404 319 404 319 367.5 289.5 c 128,-1,41
 331 260 331 260 290 260 c 0,42,43
 252 260 252 260 229 287 c 1,44,45
 155 150 155 150 123 0 c 1,46,-1
 30 0 l 1,47,-1
 50 96 l 2,48,49
 65 167 65 167 58 250.5 c 128,-1,50
 51 334 51 334 60 382 c 0,51,52
 83 486 83 486 171 551 c 0,53,54
 255 613 255 613 360 612 c 0,55,56
 455 612 455 612 508 563 c 0,57,58
 570 506 570 506 549 408 c 2,59,-1
 478 71 l 2,12,13
EndSplineSet
EndChar

StartChar: uni0E05
Encoding: 3589 3589 218
Width: 606
VWidth: 1504
Flags: W
LayerCount: 2
Fore
SplineSet
349 325 m 0,0,1
 354 345 354 345 343 358.5 c 128,-1,2
 332 372 332 372 313 372 c 256,3,4
 293 372 293 372 277.5 358 c 128,-1,5
 262 344 262 344 257 325 c 0,6,7
 254 305 254 305 264 292.5 c 128,-1,8
 274 280 274 280 293 280 c 256,9,10
 313 280 313 280 329.5 292.5 c 128,-1,11
 346 305 346 305 349 325 c 0,0,1
478 71 m 2,12,13
 460 -15 460 -15 408 -41 c 1,14,-1
 334 0 l 1,15,16
 378 26 378 26 393 105 c 1,17,-1
 457 411 l 2,18,19
 475 503 475 503 442 531 c 1,20,-1
 335 472 l 1,21,-1
 245 531 l 1,22,23
 177 490 177 490 156 394 c 0,24,25
 150 365 150 365 147 313.5 c 128,-1,26
 144 262 144 262 135 212 c 1,27,-1
 134 199 l 2,28,29
 134 202 134 202 142 222 c 128,-1,30
 150 242 150 242 158 265 c 0,31,32
 182 328 182 328 221 370 c 0,33,34
 269 424 269 424 325 424 c 0,35,36
 366 424 366 424 389 395.5 c 128,-1,37
 412 367 412 367 405 326 c 0,38,39
 396 285 396 285 360.5 257 c 128,-1,40
 325 229 325 229 284 229 c 0,41,42
 246 229 246 229 221 254 c 1,43,44
 149 120 149 120 123 0 c 1,45,-1
 30 0 l 1,46,-1
 50 96 l 1,47,48
 67 170 67 170 60 258 c 128,-1,49
 53 346 53 346 63 390 c 0,50,51
 80 470 80 470 132.5 530.5 c 128,-1,52
 185 591 185 591 266 617 c 1,53,-1
 353 558 l 1,54,-1
 474 617 l 1,55,56
 584 567 584 567 555 435 c 2,57,-1
 478 71 l 2,12,13
EndSplineSet
EndChar

StartChar: uni0E06
Encoding: 3590 3590 219
Width: 681
VWidth: 1504
Flags: W
LayerCount: 2
Fore
SplineSet
539 0 m 1,0,-1
 453 0 l 1,1,2
 382 92 382 92 311 117 c 1,3,-1
 308 102 l 2,4,5
 297 54 297 54 254.5 21 c 128,-1,6
 212 -12 212 -12 162 -12 c 256,7,8
 112 -12 112 -12 84.5 23.5 c 128,-1,9
 57 59 57 59 68 110 c 0,10,11
 79 160 79 160 121.5 195 c 128,-1,12
 164 230 164 230 214 230 c 0,13,14
 225 230 225 230 232 229 c 1,15,16
 241 271 241 271 302 343 c 0,17,18
 361 411 361 411 370 456 c 0,19,20
 382 515 382 515 340 542 c 1,21,-1
 275 484 l 1,22,-1
 223 543 l 1,23,24
 205 535 205 535 183 511 c 128,-1,25
 161 487 161 487 155 468 c 1,26,27
 167 473 167 473 187 472 c 0,28,29
 232 472 232 472 257.5 440.5 c 128,-1,30
 283 409 283 409 274 366 c 0,31,32
 265 321 265 321 226 289 c 128,-1,33
 187 257 187 257 141 257 c 0,34,35
 88 257 88 257 64.5 296 c 128,-1,36
 41 335 41 335 54 400 c 0,37,38
 71 478 71 478 129 543.5 c 128,-1,39
 187 609 187 609 250 612 c 1,40,-1
 289 561 l 1,41,-1
 347 614 l 1,42,43
 476 581 476 581 451 463 c 0,44,45
 440 410 440 410 381.5 336 c 128,-1,46
 323 262 323 262 316 221 c 2,47,-1
 311 199 l 1,48,49
 392 167 392 167 466 99 c 1,50,-1
 560 542 l 2,51,52
 578 626 578 626 630 651 c 1,53,-1
 713 617 l 1,54,55
 663 594 663 594 645 507 c 2,56,-1
 539 0 l 1,0,-1
238 108 m 0,57,58
 243 129 243 129 231.5 143.5 c 128,-1,59
 220 158 220 158 199 158 c 0,60,61
 179 158 179 158 161 143.5 c 128,-1,62
 143 129 143 129 138 108 c 0,63,64
 133 88 133 88 145.5 73.5 c 128,-1,65
 158 59 158 59 177 59 c 0,66,67
 198 59 198 59 215.5 73.5 c 128,-1,68
 233 88 233 88 238 108 c 0,57,58
212 366 m 256,69,70
 217 386 217 386 206.5 399 c 128,-1,71
 196 412 196 412 176 412 c 256,72,73
 156 412 156 412 139.5 398.5 c 128,-1,74
 123 385 123 385 119 366 c 256,75,76
 114 346 114 346 125.5 332.5 c 128,-1,77
 137 319 137 319 156 319 c 256,78,79
 176 319 176 319 191.5 332.5 c 128,-1,80
 207 346 207 346 212 366 c 256,69,70
EndSplineSet
EndChar

StartChar: uni0E07
Encoding: 3591 3591 220
Width: 469
VWidth: 1504
Flags: W
LayerCount: 2
Fore
SplineSet
326 0 m 1,0,-1
 235 0 l 1,1,-1
 60 245 l 2,2,3
 24 298 24 298 27 341 c 1,4,-1
 87 393 l 1,5,6
 93 352 93 352 114 320 c 2,7,-1
 259 116 l 1,8,-1
 314 388 l 1,9,10
 309 386 309 386 286 387 c 0,11,12
 239 387 239 387 213.5 417.5 c 128,-1,13
 188 448 188 448 199 496 c 0,14,15
 208 544 208 544 248.5 578 c 128,-1,16
 289 612 289 612 334 612 c 0,17,18
 387 612 387 612 414 578.5 c 128,-1,19
 441 545 441 545 430 490 c 2,20,-1
 326 0 l 1,0,-1
361 499 m 256,21,22
 366 520 366 520 353.5 535.5 c 128,-1,23
 341 551 341 551 320 551 c 256,24,25
 299 551 299 551 281 535.5 c 128,-1,26
 263 520 263 520 259 499 c 256,27,28
 254 478 254 478 266 463 c 128,-1,29
 278 448 278 448 299 448 c 256,30,31
 320 448 320 448 338 463 c 128,-1,32
 356 478 356 478 361 499 c 256,21,22
EndSplineSet
EndChar

StartChar: uni0E08
Encoding: 3592 3592 221
Width: 586
VWidth: 1504
Flags: W
LayerCount: 2
Fore
SplineSet
465 105 m 2,0,1
 454 49 454 49 411.5 18.5 c 128,-1,2
 369 -12 369 -12 311 -12 c 0,3,4
 201 -12 201 -12 205 86 c 1,5,-1
 206 205 l 1,6,7
 189 199 189 199 168 199 c 0,8,9
 124 199 124 199 99 230.5 c 128,-1,10
 74 262 74 262 84 305 c 0,11,12
 93 349 93 349 131.5 380.5 c 128,-1,13
 170 412 170 412 214 412 c 0,14,15
 253 412 253 412 277.5 387.5 c 128,-1,16
 302 363 302 363 301 325 c 2,17,-1
 295 95 l 2,18,19
 293 68 293 68 326 68 c 0,20,21
 364 68 364 68 370 98 c 2,22,-1
 442 436 l 2,23,24
 453 486 453 486 412 511 c 0,25,26
 377 532 377 532 320 532 c 0,27,28
 191 532 191 532 149 459 c 1,29,-1
 59 459 l 1,30,31
 112 611 112 611 329 612 c 0,32,33
 430 612 430 612 487 575 c 1,34,35
 555 527 555 527 534 430 c 2,36,-1
 465 105 l 2,0,1
238 305 m 0,37,38
 241 325 241 325 230.5 338.5 c 128,-1,39
 220 352 220 352 200 352 c 256,40,41
 180 352 180 352 163.5 338.5 c 128,-1,42
 147 325 147 325 144 305 c 0,43,44
 139 285 139 285 150 272 c 128,-1,45
 161 259 161 259 181 259 c 256,46,47
 201 259 201 259 217 272 c 128,-1,48
 233 285 233 285 238 305 c 0,37,38
EndSplineSet
EndChar

StartChar: uni0E09
Encoding: 3593 3593 222
Width: 609
VWidth: 1504
Flags: W
LayerCount: 2
Fore
SplineSet
513 102 m 0,0,1
 502 54 502 54 462.5 21 c 128,-1,2
 423 -12 423 -12 375 -12 c 0,3,4
 331 -12 331 -12 304 17.5 c 128,-1,5
 277 47 277 47 283 90 c 1,6,7
 226 70 226 70 159 0 c 1,8,-1
 74 0 l 1,9,-1
 98 117 l 2,10,11
 107 159 107 159 125 174 c 1,12,13
 110 174 110 174 104 176 c 0,14,15
 26 194 26 194 44 277 c 0,16,17
 53 321 53 321 89.5 351 c 128,-1,18
 126 381 126 381 170 381 c 256,19,20
 214 381 214 381 238 350.5 c 128,-1,21
 262 320 262 320 253 277 c 0,22,23
 248 256 248 256 227 220.5 c 128,-1,24
 206 185 206 185 200 162 c 1,25,-1
 188 99 l 1,26,27
 217 123 217 123 290.5 160 c 128,-1,28
 364 197 364 197 397 226 c 1,29,30
 427 256 427 256 435 296 c 2,31,-1
 465 435 l 2,32,33
 476 485 476 485 433 511 c 1,34,35
 397 532 397 532 338 532 c 0,36,37
 275 532 275 532 226 508 c 0,38,39
 167 479 167 479 150 424 c 1,40,-1
 60 424 l 1,41,42
 123 612 123 612 353 612 c 0,43,44
 452 612 452 612 508 573 c 0,45,46
 577 525 577 525 557 429 c 2,47,-1
 526 286 l 2,48,49
 514 229 514 229 475 202 c 1,50,51
 527 168 527 168 513 102 c 0,0,1
193 277 m 0,52,53
 196 297 196 297 186 309.5 c 128,-1,54
 176 322 176 322 156 322 c 256,55,56
 136 322 136 322 120.5 309 c 128,-1,57
 105 296 105 296 102 277 c 0,58,59
 97 257 97 257 107 244.5 c 128,-1,60
 117 232 117 232 137 232 c 256,61,62
 157 232 157 232 172.5 244.5 c 128,-1,63
 188 257 188 257 193 277 c 0,52,53
447 101 m 256,64,65
 452 121 452 121 440.5 134 c 128,-1,66
 429 147 429 147 409 147 c 256,67,68
 389 147 389 147 373.5 133.5 c 128,-1,69
 358 120 358 120 353 101 c 256,70,71
 348 81 348 81 359 67.5 c 128,-1,72
 370 54 370 54 390 54 c 256,73,74
 410 54 410 54 426 67.5 c 128,-1,75
 442 81 442 81 447 101 c 256,64,65
EndSplineSet
EndChar

StartChar: uni0E0A
Encoding: 3594 3594 223
Width: 624
VWidth: 1504
Flags: W
LayerCount: 2
Fore
SplineSet
510 141 m 2,0,1
 495 69 495 69 441.5 28.5 c 128,-1,2
 388 -12 388 -12 311 -12 c 0,3,4
 171 -12 171 -12 171 104 c 0,5,6
 171 124 171 124 197 239 c 0,7,8
 206 280 206 280 269 364 c 0,9,10
 328 442 328 442 328 489 c 0,11,12
 328 551 328 551 263 551 c 0,13,14
 213 551 213 551 196 531 c 1,15,16
 279 528 279 528 278 456 c 0,17,18
 278 405 278 405 237 365.5 c 128,-1,19
 196 326 196 326 146 326 c 0,20,21
 56 326 56 326 56 421 c 0,22,23
 56 502 56 502 129 560 c 0,24,25
 197 613 197 613 275 612 c 0,26,27
 418 612 418 612 418 504 c 0,28,29
 418 447 418 447 361 361 c 1,30,31
 296 268 296 268 289 230 c 2,32,-1
 265 111 l 1,33,34
 265 67 265 67 328 68 c 0,35,36
 358 68 358 68 383.5 83 c 128,-1,37
 409 98 409 98 414 120 c 2,38,-1
 462 349 l 2,39,40
 470 385 470 385 469 400 c 0,41,42
 469 445 469 445 435 457 c 1,43,44
 458 532 458 532 523 600 c 0,45,46
 579 657 579 657 626 672 c 1,47,-1
 693 627 l 1,48,49
 595 588 595 588 529 477 c 1,50,51
 564 459 564 459 564 409 c 0,52,53
 564 392 564 392 555 350 c 2,54,-1
 510 141 l 2,0,1
214 430 m 0,55,56
 219 450 219 450 208 463.5 c 128,-1,57
 197 477 197 477 177 477 c 256,58,59
 157 477 157 477 141 463.5 c 128,-1,60
 125 450 125 450 120 430 c 0,61,62
 117 410 117 410 127.5 397 c 128,-1,63
 138 384 138 384 158 384 c 256,64,65
 178 384 178 384 194.5 397 c 128,-1,66
 211 410 211 410 214 430 c 0,55,56
EndSplineSet
EndChar

StartChar: uni0E0B
Encoding: 3595 3595 224
Width: 648
VWidth: 1504
Flags: W
LayerCount: 2
Fore
SplineSet
579 350 m 2,0,-1
 534 141 l 2,1,2
 519 69 519 69 465.5 28.5 c 128,-1,3
 412 -12 412 -12 335 -12 c 0,4,5
 195 -12 195 -12 196 104 c 0,6,7
 196 124 196 124 215 209 c 0,8,9
 226 257 226 257 292 335 c 0,10,11
 370 428 370 428 370 472 c 0,12,13
 370 520 370 520 338 540 c 1,14,-1
 271 483 l 1,15,-1
 217 543 l 1,16,17
 199 534 199 534 177 510 c 128,-1,18
 155 486 155 486 150 469 c 1,19,20
 173 474 173 474 182 474 c 0,21,22
 221 474 221 474 246 450 c 128,-1,23
 271 426 271 426 271 390 c 0,24,25
 271 337 271 337 229.5 297 c 128,-1,26
 188 257 188 257 137 257 c 0,27,28
 93 257 93 257 68.5 288.5 c 128,-1,29
 44 320 44 320 44 366 c 0,30,31
 44 449 44 449 107 527.5 c 128,-1,32
 170 606 170 606 247 612 c 1,33,-1
 286 561 l 1,34,-1
 343 614 l 1,35,36
 450 588 450 588 450 496 c 0,37,38
 450 428 450 428 378 335 c 0,39,40
 319 260 319 260 311 221 c 2,41,-1
 289 111 l 1,42,43
 289 67 289 67 352 68 c 0,44,45
 382 68 382 68 407.5 83 c 128,-1,46
 433 98 433 98 438 120 c 2,47,-1
 486 349 l 2,48,49
 494 385 494 385 493 400 c 0,50,51
 493 445 493 445 459 457 c 1,52,53
 482 532 482 532 548 600 c 0,54,55
 604 657 604 657 650 672 c 1,56,-1
 718 627 l 1,57,58
 620 588 620 588 554 477 c 1,59,60
 589 459 589 459 588 409 c 0,61,62
 588 392 588 392 579 350 c 2,0,-1
206 366 m 0,63,64
 211 386 211 386 200.5 399 c 128,-1,65
 190 412 190 412 170 412 c 256,66,67
 150 412 150 412 133.5 398.5 c 128,-1,68
 117 385 117 385 113 366 c 0,69,70
 110 346 110 346 120.5 332.5 c 128,-1,71
 131 319 131 319 150 319 c 256,72,73
 170 319 170 319 186.5 332.5 c 128,-1,74
 203 346 203 346 206 366 c 0,63,64
EndSplineSet
EndChar

StartChar: uni0E0C
Encoding: 3596 3596 225
Width: 849
VWidth: 1504
Flags: W
LayerCount: 2
Fore
SplineSet
707 0 m 1,0,-1
 624 0 l 1,1,2
 604 74 604 74 525 117 c 1,3,4
 523 96 523 96 522 92 c 0,5,6
 513 44 513 44 473 16 c 128,-1,7
 433 -12 433 -12 390 -12 c 0,8,9
 343 -12 343 -12 316 21 c 128,-1,10
 289 54 289 54 299 102 c 0,11,12
 314 171 314 171 382 206 c 1,13,-1
 423 399 l 2,14,15
 435 458 435 458 406.5 494.5 c 128,-1,16
 378 531 378 531 323 531 c 0,17,18
 231 531 231 531 176 456 c 1,19,20
 242 442 242 442 260 388 c 1,21,22
 174 346 174 346 161 280 c 2,23,-1
 147 215 l 1,24,25
 195 215 195 215 221.5 182 c 128,-1,26
 248 149 248 149 238 101 c 0,27,28
 227 54 227 54 187 21 c 128,-1,29
 147 -12 147 -12 99 -12 c 0,30,31
 52 -12 52 -12 26 21 c 128,-1,32
 0 54 0 54 11 101 c 0,33,34
 19 140 19 140 44 165 c 1,35,-1
 69 286 l 2,36,37
 83 349 83 349 152 385 c 1,38,39
 120 411 120 411 63 403 c 1,40,41
 87 496 87 496 165 557 c 0,42,43
 239 613 239 613 335 612 c 0,44,45
 436 612 436 612 486.5 555 c 128,-1,46
 537 498 537 498 516 397 c 2,47,-1
 477 214 l 1,48,49
 587 176 587 176 636 108 c 1,50,-1
 728 542 l 2,51,52
 746 626 746 626 799 651 c 1,53,-1
 881 617 l 1,54,55
 831 594 831 594 814 507 c 2,56,-1
 707 0 l 1,0,-1
173 101 m 256,57,58
 178 122 178 122 165.5 137 c 128,-1,59
 153 152 153 152 132 152 c 256,60,61
 111 152 111 152 93 137 c 128,-1,62
 75 122 75 122 71 101 c 256,63,64
 66 80 66 80 78 65 c 128,-1,65
 90 50 90 50 111 50 c 256,66,67
 132 50 132 50 150 65 c 128,-1,68
 168 80 168 80 173 101 c 256,57,58
465 101 m 256,69,70
 470 122 470 122 457.5 137 c 128,-1,71
 445 152 445 152 424 152 c 256,72,73
 403 152 403 152 385 137 c 128,-1,74
 367 122 367 122 363 101 c 256,75,76
 358 80 358 80 370 65 c 128,-1,77
 382 50 382 50 403 50 c 256,78,79
 424 50 424 50 442 65 c 128,-1,80
 460 80 460 80 465 101 c 256,69,70
EndSplineSet
EndChar

StartChar: uni0E0D
Encoding: 3597 3597 226
Width: 849
VWidth: 1504
Flags: W
LayerCount: 2
Fore
SplineSet
702 -60 m 1,0,1
 678 -171 678 -171 615 -238 c 0,2,3
 544 -312 544 -312 430 -311 c 0,4,5
 356 -311 356 -311 311 -274 c 0,6,7
 260 -230 260 -230 275 -159 c 0,8,9
 284 -114 284 -114 322 -83.5 c 128,-1,10
 360 -53 360 -53 405 -53 c 0,11,12
 449 -53 449 -53 471 -84.5 c 128,-1,13
 493 -116 493 -116 484 -161 c 0,14,15
 470 -220 470 -220 421 -236 c 1,16,17
 442 -239 442 -239 450 -239 c 0,18,19
 576 -239 576 -239 621 -60 c 1,20,-1
 702 -60 l 1,0,1
736 141 m 2,21,22
 721 66 721 66 653 24 c 0,23,24
 594 -12 594 -12 517 -12 c 0,25,26
 439 -12 439 -12 399 24 c 0,27,28
 352 65 352 65 367 141 c 1,29,-1
 423 399 l 2,30,31
 435 458 435 458 406.5 494.5 c 128,-1,32
 378 531 378 531 323 531 c 0,33,34
 231 531 231 531 176 456 c 1,35,36
 238 444 238 444 260 388 c 1,37,38
 174 346 174 346 161 280 c 2,39,-1
 146 209 l 1,40,41
 158 215 158 215 176 215 c 0,42,43
 223 215 223 215 248.5 182.5 c 128,-1,44
 274 150 274 150 263 102 c 256,45,46
 252 54 252 54 212.5 21 c 128,-1,47
 173 -12 173 -12 125 -12 c 0,48,49
 75 -12 75 -12 48 22.5 c 128,-1,50
 21 57 21 57 32 110 c 2,51,-1
 69 286 l 2,52,53
 83 349 83 349 152 385 c 1,54,55
 120 411 120 411 63 403 c 1,56,57
 87 496 87 496 165 557 c 0,58,59
 239 613 239 613 335 612 c 0,60,61
 436 612 436 612 486.5 555 c 128,-1,62
 537 498 537 498 516 397 c 2,63,-1
 459 128 l 2,64,65
 451 96 451 96 475 82 c 128,-1,66
 499 68 499 68 535 68 c 0,67,68
 570 68 570 68 601.5 82 c 128,-1,69
 633 96 633 96 641 128 c 2,70,-1
 728 542 l 2,71,72
 746 626 746 626 799 651 c 1,73,-1
 881 617 l 1,74,75
 831 594 831 594 814 507 c 2,76,-1
 736 141 l 2,21,22
429 -158 m 256,77,78
 434 -138 434 -138 423 -124.5 c 128,-1,79
 412 -111 412 -111 391 -111 c 256,80,81
 370 -111 370 -111 354 -124.5 c 128,-1,82
 338 -138 338 -138 334 -158 c 256,83,84
 329 -178 329 -178 339 -192 c 128,-1,85
 349 -206 349 -206 370 -206 c 256,86,87
 391 -206 391 -206 407.5 -192 c 128,-1,88
 424 -178 424 -178 429 -158 c 256,77,78
203 101 m 256,89,90
 208 122 208 122 196 137 c 128,-1,91
 184 152 184 152 162 152 c 256,92,93
 141 152 141 152 123 137 c 128,-1,94
 105 122 105 122 101 101 c 256,95,96
 96 80 96 80 108 65 c 128,-1,97
 120 50 120 50 141 50 c 256,98,99
 162 50 162 50 180 65 c 128,-1,100
 198 80 198 80 203 101 c 256,89,90
EndSplineSet
Substitution2: "<23,16000>  in Thai lookup 65 nested-substitutions 7 subtable" uni0E0D.alt1
Substitution2: "Single Substitution lookup 58 subtable" uni0E0D.alt1
EndChar

StartChar: uni0E0E
Encoding: 3598 3598 227
Width: 639
VWidth: 1504
Flags: W
LayerCount: 2
Fore
SplineSet
423 -346 m 1,0,-1
 328 -346 l 1,1,2
 325 -266 325 -266 215 -220 c 1,3,4
 177 -352 177 -352 71 -352 c 0,5,6
 21 -352 21 -352 -7 -320.5 c 128,-1,7
 -35 -289 -35 -289 -26 -241 c 1,8,9
 -2 -134 -2 -134 138 -134 c 0,10,11
 159 -134 159 -134 171 -135 c 1,12,13
 185 -106 185 -106 197 -93 c 0,14,15
 218 -69 218 -69 253 -50 c 1,16,-1
 308 -83 l 1,17,18
 255 -109 255 -109 238 -150 c 1,19,20
 318 -180 318 -180 355 -226 c 1,21,-1
 487 399 l 2,22,23
 499 459 499 459 467.5 495.5 c 128,-1,24
 436 532 436 532 376 532 c 0,25,26
 284 532 284 532 226 456 c 1,27,28
 288 444 288 444 311 388 c 1,29,30
 266 365 266 365 250 350 c 0,31,32
 226 326 226 326 217 286 c 0,33,34
 209 253 209 253 204 190.5 c 128,-1,35
 199 128 199 128 193 102 c 0,36,37
 182 54 182 54 143 21 c 128,-1,38
 104 -12 104 -12 57 -12 c 0,39,40
 9 -12 9 -12 -16.5 21 c 128,-1,41
 -42 54 -42 54 -32 102 c 0,42,43
 -21 149 -21 149 18 182 c 128,-1,44
 57 215 57 215 102 215 c 0,45,46
 120 215 120 215 123 211 c 1,47,-1
 134 304 l 1,48,49
 146 357 146 357 203 385 c 1,50,51
 168 411 168 411 114 403 c 1,52,53
 137 496 137 496 217 557 c 1,54,55
 294 613 294 613 391 612 c 0,56,57
 496 612 496 612 548 553.5 c 128,-1,58
 600 495 600 495 581 397 c 2,59,-1
 423 -346 l 1,0,-1
150 -203 m 1,60,61
 136 -198 136 -198 114 -199 c 0,62,63
 52 -199 52 -199 44 -235 c 0,64,65
 33 -283 33 -283 83 -283 c 1,66,67
 112 -280 112 -280 127 -260.5 c 128,-1,68
 142 -241 142 -241 150 -203 c 1,60,61
132 102 m 256,69,70
 137 123 137 123 125 138 c 128,-1,71
 113 153 113 153 92 153 c 256,72,73
 71 153 71 153 53 138 c 128,-1,74
 35 123 35 123 30 102 c 256,75,76
 25 81 25 81 37.5 66 c 128,-1,77
 50 51 50 51 71 51 c 256,78,79
 92 51 92 51 109.5 66 c 128,-1,80
 127 81 127 81 132 102 c 256,69,70
EndSplineSet
Substitution2: "<23,16000>  in Thai lookup 75 nested-substitutions 0 subtable" uni0E0E.alt1
Substitution2: "Single Substitution lookup 58 subtable" uni0E0E.alt1
EndChar

StartChar: uni0E0F
Encoding: 3599 3599 228
Width: 639
VWidth: 1504
Flags: W
LayerCount: 2
Fore
SplineSet
78 -206 m 1,0,1
 64 -198 64 -198 38 -199 c 0,2,3
 -9 -199 -9 -199 -17 -239 c 1,4,5
 -26 -277 -26 -277 12 -277 c 0,6,7
 63 -277 63 -277 78 -206 c 1,0,1
132 102 m 256,8,9
 137 123 137 123 125 138 c 128,-1,10
 113 153 113 153 92 153 c 256,11,12
 71 153 71 153 53 138 c 128,-1,13
 35 123 35 123 30 102 c 256,14,15
 25 81 25 81 37.5 66 c 128,-1,16
 50 51 50 51 71 51 c 256,17,18
 92 51 92 51 109.5 66 c 128,-1,19
 127 81 127 81 132 102 c 256,8,9
421 -347 m 1,20,-1
 337 -347 l 1,21,-1
 281 -245 l 1,22,-1
 185 -347 l 1,23,-1
 137 -253 l 1,24,25
 122 -295 122 -295 83 -324 c 128,-1,26
 44 -353 44 -353 5 -353 c 0,27,28
 -43 -353 -43 -353 -69.5 -321 c 128,-1,29
 -96 -289 -96 -289 -87 -241 c 0,30,31
 -63 -130 -63 -130 63 -129 c 0,32,33
 92 -129 92 -129 104 -134 c 1,34,35
 133 -78 133 -78 200 -47 c 1,36,-1
 239 -110 l 1,37,38
 180 -125 180 -125 164 -171 c 1,39,-1
 208 -244 l 1,40,-1
 299 -152 l 1,41,-1
 353 -233 l 1,42,-1
 487 399 l 2,43,44
 499 459 499 459 467.5 495.5 c 128,-1,45
 436 532 436 532 376 532 c 0,46,47
 284 532 284 532 226 456 c 1,48,49
 288 444 288 444 311 388 c 1,50,51
 266 365 266 365 250 350 c 0,52,53
 226 326 226 326 217 286 c 0,54,55
 209 253 209 253 204 190.5 c 128,-1,56
 199 128 199 128 193 102 c 0,57,58
 182 54 182 54 143 21 c 128,-1,59
 104 -12 104 -12 57 -12 c 0,60,61
 9 -12 9 -12 -16.5 21 c 128,-1,62
 -42 54 -42 54 -32 102 c 0,63,64
 -21 149 -21 149 18 182 c 128,-1,65
 57 215 57 215 102 215 c 0,66,67
 120 215 120 215 123 211 c 1,68,-1
 134 304 l 1,69,70
 146 357 146 357 203 385 c 1,71,72
 168 411 168 411 114 403 c 1,73,74
 137 496 137 496 217 557 c 1,75,76
 294 613 294 613 391 612 c 0,77,78
 496 612 496 612 548 553.5 c 128,-1,79
 600 495 600 495 581 397 c 2,80,-1
 421 -347 l 1,20,-1
EndSplineSet
Substitution2: "<23,16000>  in Thai lookup 75 nested-substitutions 0 subtable" uni0E0F.alt1
Substitution2: "Single Substitution lookup 58 subtable" uni0E0F.alt1
EndChar

StartChar: uni0E10
Encoding: 3600 3600 229
Width: 559
VWidth: 1504
Flags: W
LayerCount: 2
Fore
SplineSet
18 -206 m 1,0,1
 0 -198 0 -198 -14 -199 c 0,2,3
 -71 -199 -71 -199 -78 -238 c 0,4,5
 -86 -276 -86 -276 -47 -275 c 0,6,7
 4 -275 4 -275 18 -206 c 1,0,1
353 -245 m 2,8,9
 332 -346 332 -346 232 -346 c 2,10,-1
 108 -346 l 1,11,-1
 60 -256 l 1,12,13
 49 -292 49 -292 16 -317.5 c 128,-1,14
 -17 -343 -17 -343 -53 -343 c 0,15,16
 -103 -343 -103 -343 -124.5 -313 c 128,-1,17
 -146 -283 -146 -283 -137 -236 c 0,18,19
 -126 -189 -126 -189 -88.5 -160 c 128,-1,20
 -51 -131 -51 -131 0 -131 c 0,21,22
 30 -131 30 -131 41 -138 c 1,23,24
 56 -88 56 -88 111 -62 c 1,25,-1
 152 -89 l 1,26,27
 102 -110 102 -110 89 -173 c 1,28,-1
 141 -272 l 1,29,-1
 220 -272 l 2,30,31
 268 -272 268 -272 274 -247 c 1,32,-1
 277 -227 l 1,33,-1
 259 -227 l 2,34,35
 218 -227 218 -227 195.5 -202 c 128,-1,36
 173 -177 173 -177 182 -141 c 1,37,38
 188 -106 188 -106 222 -81 c 128,-1,39
 256 -56 256 -56 296 -56 c 0,40,41
 335 -56 335 -56 358.5 -81.5 c 128,-1,42
 382 -107 382 -107 376 -141 c 2,43,-1
 353 -245 l 2,8,9
432 125 m 2,44,45
 403 -12 403 -12 260 -12 c 0,46,47
 122 -12 122 -12 149 117 c 2,48,-1
 159 167 l 1,49,50
 147 164 147 164 138 164 c 0,51,52
 94 164 94 164 72 193.5 c 128,-1,53
 50 223 50 223 59 265 c 0,54,55
 68 309 68 309 106 337.5 c 128,-1,56
 144 366 144 366 185 366 c 0,57,58
 230 366 230 366 256.5 338 c 128,-1,59
 283 310 283 310 274 266 c 2,60,-1
 244 120 l 2,61,62
 232 66 232 66 278 66 c 0,63,64
 326 66 326 66 338 120 c 2,65,-1
 384 337 l 2,66,67
 392 369 392 369 256 400 c 0,68,69
 140 426 140 426 75 426 c 1,70,71
 104 522 104 522 176 572 c 0,72,73
 236 613 236 613 311 612 c 0,74,75
 340 612 340 612 393.5 597 c 128,-1,76
 447 582 447 582 478 582 c 0,77,78
 514 582 514 582 534 650 c 1,79,-1
 606 630 l 1,80,81
 558 495 558 495 454 495 c 0,82,83
 425 495 425 495 375 513.5 c 128,-1,84
 325 532 325 532 295 532 c 0,85,86
 272 532 272 532 240 520 c 128,-1,87
 208 508 208 508 196 492 c 1,88,89
 363 463 363 463 438 426 c 0,90,91
 491 399 491 399 478 346 c 2,92,-1
 432 125 l 2,44,45
203 265 m 0,93,94
 206 283 206 283 196.5 295.5 c 128,-1,95
 187 308 187 308 168 308 c 256,96,97
 150 308 150 308 134.5 295.5 c 128,-1,98
 119 283 119 283 116 265 c 0,99,100
 111 247 111 247 121.5 234 c 128,-1,101
 132 221 132 221 150 221 c 256,102,103
 168 221 168 221 183 234 c 128,-1,104
 198 247 198 247 203 265 c 0,93,94
310 -141 m 0,105,106
 312 -127 312 -127 304 -118.5 c 128,-1,107
 296 -110 296 -110 281 -110 c 256,108,109
 266 -110 266 -110 255 -119 c 128,-1,110
 244 -128 244 -128 242 -141 c 0,111,112
 239 -155 239 -155 246 -164.5 c 128,-1,113
 253 -174 253 -174 268 -174 c 256,114,115
 283 -174 283 -174 295 -164.5 c 128,-1,116
 307 -155 307 -155 310 -141 c 0,105,106
EndSplineSet
Substitution2: "<23,16000>  in Thai lookup 65 nested-substitutions 7 subtable" uni0E10.alt1
Substitution2: "Single Substitution lookup 58 subtable" uni0E10.alt1
EndChar

StartChar: uni0E11
Encoding: 3601 3601 230
Width: 740
VWidth: 1504
Flags: W
LayerCount: 2
Fore
SplineSet
206 366 m 256,0,1
 211 386 211 386 200.5 399 c 128,-1,2
 190 412 190 412 170 412 c 256,3,4
 150 412 150 412 133.5 398.5 c 128,-1,5
 117 385 117 385 113 366 c 256,6,7
 108 346 108 346 119.5 332.5 c 128,-1,8
 131 319 131 319 150 319 c 256,9,10
 170 319 170 319 185.5 332.5 c 128,-1,11
 201 346 201 346 206 366 c 256,0,1
612 71 m 2,12,13
 594 -15 594 -15 542 -41 c 1,14,-1
 468 0 l 1,15,16
 512 26 512 26 526 105 c 1,17,-1
 606 483 l 2,18,19
 614 524 614 524 590 523 c 0,20,21
 569 523 569 523 557 502 c 2,22,-1
 275 0 l 1,23,-1
 170 0 l 1,24,-1
 203 161 l 2,25,26
 217 221 217 221 277.5 319.5 c 128,-1,27
 338 418 338 418 349 471 c 0,28,29
 360 522 360 522 334 542 c 1,30,-1
 266 483 l 1,31,-1
 215 543 l 1,32,33
 198 535 198 535 175.5 511 c 128,-1,34
 153 487 153 487 147 469 c 1,35,36
 158 474 158 474 181 474 c 0,37,38
 226 474 226 474 250.5 441.5 c 128,-1,39
 275 409 275 409 266 366 c 0,40,41
 257 321 257 321 219 289 c 128,-1,42
 181 257 181 257 135 257 c 0,43,44
 85 257 85 257 60.5 299 c 128,-1,45
 36 341 36 341 48 402 c 0,46,47
 65 480 65 480 120.5 543 c 128,-1,48
 176 606 176 606 244 612 c 1,49,-1
 283 561 l 1,50,-1
 341 614 l 1,51,52
 448 590 448 590 423 469 c 0,53,54
 412 421 412 421 358.5 330 c 128,-1,55
 305 239 305 239 293 181 c 1,56,57
 266 109 266 109 263 95 c 1,58,-1
 502 522 l 2,59,60
 553 612 553 612 621 612 c 0,61,62
 726 612 726 612 699 486 c 2,63,-1
 612 71 l 2,12,13
EndSplineSet
EndChar

StartChar: uni0E12
Encoding: 3602 3602 231
Width: 828
VWidth: 1504
Flags: W
LayerCount: 2
Fore
SplineSet
686 0 m 1,0,-1
 599 0 l 1,1,2
 575 65 575 65 523 98 c 1,3,4
 514 51 514 51 476.5 19.5 c 128,-1,5
 439 -12 439 -12 387 -12 c 0,6,7
 339 -12 339 -12 314 22 c 128,-1,8
 289 56 289 56 299 105 c 0,9,10
 307 140 307 140 337 170 c 128,-1,11
 367 200 367 200 402 209 c 1,12,-1
 441 394 l 2,13,14
 464 496 464 496 426 531 c 1,15,-1
 319 465 l 1,16,-1
 250 531 l 1,17,18
 178 498 178 498 153 384 c 0,19,20
 148 361 148 361 153.5 285 c 128,-1,21
 159 209 159 209 152 171 c 0,22,23
 147 148 147 148 135 129 c 1,24,25
 183 204 183 204 259 245 c 1,26,27
 220 248 220 248 202.5 276.5 c 128,-1,28
 185 305 185 305 193 341 c 0,29,30
 201 382 201 382 235 410 c 128,-1,31
 269 438 269 438 310 438 c 0,32,33
 349 438 349 438 372.5 409.5 c 128,-1,34
 396 381 396 381 388 341 c 0,35,36
 371 267 371 267 260.5 167.5 c 128,-1,37
 150 68 150 68 137 0 c 1,38,-1
 39 0 l 1,39,40
 48 42 48 42 60 96 c 0,41,42
 78 183 78 183 71 229 c 0,43,44
 51 334 51 334 60 382 c 0,45,46
 78 466 78 466 133 529.5 c 128,-1,47
 188 593 188 593 271 614 c 1,48,-1
 337 546 l 1,49,-1
 424 614 l 1,50,51
 576 591 576 591 535 397 c 1,52,-1
 492 197 l 1,53,54
 521 188 521 188 562 161 c 128,-1,55
 603 134 603 134 617 114 c 1,56,-1
 707 542 l 2,57,58
 725 626 725 626 778 651 c 1,59,-1
 860 617 l 1,60,61
 810 594 810 594 793 507 c 2,62,-1
 686 0 l 1,0,-1
337 341 m 256,63,64
 342 361 342 361 330.5 374.5 c 128,-1,65
 319 388 319 388 299 388 c 256,66,67
 279 388 279 388 263.5 374.5 c 128,-1,68
 248 361 248 361 244 341 c 256,69,70
 239 321 239 321 249.5 308 c 128,-1,71
 260 295 260 295 280 295 c 256,72,73
 300 295 300 295 316 308 c 128,-1,74
 332 321 332 321 337 341 c 256,63,64
459 101 m 256,75,76
 464 122 464 122 453 135.5 c 128,-1,77
 442 149 442 149 421 149 c 256,78,79
 400 149 400 149 384.5 135.5 c 128,-1,80
 369 122 369 122 364 101 c 256,81,82
 359 80 359 80 369 67 c 128,-1,83
 379 54 379 54 400 54 c 256,84,85
 421 54 421 54 437.5 67 c 128,-1,86
 454 80 454 80 459 101 c 256,75,76
EndSplineSet
EndChar

StartChar: uni0E13
Encoding: 3603 3603 232
Width: 866
VWidth: 1504
Flags: W
LayerCount: 2
Fore
SplineSet
772 102 m 0,0,1
 761 55 761 55 724 21.5 c 128,-1,2
 687 -12 687 -12 638 -12 c 0,3,4
 594 -12 594 -12 567 16 c 128,-1,5
 540 44 540 44 542 86 c 1,6,7
 495 59 495 59 433 0 c 1,8,-1
 338 0 l 1,9,-1
 423 399 l 2,10,11
 435 458 435 458 406.5 494.5 c 128,-1,12
 378 531 378 531 323 531 c 0,13,14
 231 531 231 531 176 456 c 1,15,16
 233 451 233 451 260 388 c 1,17,18
 174 346 174 346 161 280 c 2,19,-1
 146 209 l 1,20,21
 158 215 158 215 176 215 c 0,22,23
 223 215 223 215 248.5 182.5 c 128,-1,24
 274 150 274 150 263 102 c 256,25,26
 252 54 252 54 212.5 21 c 128,-1,27
 173 -12 173 -12 125 -12 c 0,28,29
 75 -12 75 -12 48 22.5 c 128,-1,30
 21 57 21 57 32 110 c 2,31,-1
 69 286 l 2,32,33
 83 349 83 349 152 385 c 1,34,35
 120 411 120 411 63 403 c 1,36,37
 87 496 87 496 165 557 c 0,38,39
 239 613 239 613 335 612 c 0,40,41
 436 612 436 612 486.5 555.5 c 128,-1,42
 537 499 537 499 516 399 c 2,43,-1
 451 95 l 1,44,45
 480 122 480 122 548 168 c 0,46,47
 643 231 643 231 660 245 c 1,48,49
 687 272 687 272 696 316 c 2,50,-1
 745 542 l 2,51,52
 763 626 763 626 815 651 c 1,53,-1
 898 617 l 1,54,55
 848 594 848 594 830 507 c 2,56,-1
 784 284 l 2,57,58
 770 225 770 225 734 202 c 1,59,60
 786 168 786 168 772 102 c 0,0,1
710 104 m 256,61,62
 715 125 715 125 702.5 140 c 128,-1,63
 690 155 690 155 669 155 c 256,64,65
 648 155 648 155 630 140 c 128,-1,66
 612 125 612 125 608 104 c 256,67,68
 603 83 603 83 615 68 c 128,-1,69
 627 53 627 53 648 53 c 256,70,71
 669 53 669 53 687 68 c 128,-1,72
 705 83 705 83 710 104 c 256,61,62
203 101 m 256,73,74
 208 122 208 122 196 137 c 128,-1,75
 184 152 184 152 162 152 c 256,76,77
 141 152 141 152 123 137 c 128,-1,78
 105 122 105 122 101 101 c 256,79,80
 96 80 96 80 108 65 c 128,-1,81
 120 50 120 50 141 50 c 256,82,83
 162 50 162 50 180 65 c 128,-1,84
 198 80 198 80 203 101 c 256,73,74
EndSplineSet
EndChar

StartChar: uni0E14
Encoding: 3604 3604 233
Width: 609
VWidth: 1504
Flags: W
LayerCount: 2
Fore
SplineSet
349 363 m 0,0,1
 352 383 352 383 342 395.5 c 128,-1,2
 332 408 332 408 313 408 c 256,3,4
 293 408 293 408 277.5 395 c 128,-1,5
 262 382 262 382 259 363 c 0,6,7
 254 343 254 343 264 330 c 128,-1,8
 274 317 274 317 293 317 c 256,9,10
 313 317 313 317 328.5 330 c 128,-1,11
 344 343 344 343 349 363 c 0,0,1
481 71 m 2,12,13
 463 -15 463 -15 411 -41 c 1,14,-1
 337 0 l 1,15,16
 381 26 381 26 396 105 c 2,17,-1
 457 403 l 1,18,19
 471 460 471 460 435.5 496 c 128,-1,20
 400 532 400 532 341 532 c 0,21,22
 278 532 278 532 222.5 489.5 c 128,-1,23
 167 447 167 447 153 387 c 0,24,25
 145 349 145 349 155 280 c 128,-1,26
 165 211 165 211 158 176 c 0,27,28
 156 165 156 165 149 147 c 1,29,30
 208 218 208 218 272 266 c 1,31,32
 231 269 231 269 214 299 c 1,33,34
 196 325 196 325 205 363 c 1,35,36
 213 402 213 402 248.5 431 c 128,-1,37
 284 460 284 460 325 460 c 256,38,39
 366 460 366 460 387.5 431 c 128,-1,40
 409 402 409 402 402 363 c 0,41,42
 387 295 387 295 302 212 c 0,43,44
 188 99 188 99 170 77 c 0,45,46
 140 38 140 38 132 0 c 1,47,-1
 38 0 l 1,48,49
 50 56 50 56 60 102 c 0,50,51
 77 183 77 183 69 227 c 0,52,53
 63 266 63 266 58.5 307.5 c 128,-1,54
 54 349 54 349 60 381 c 0,55,56
 83 483 83 483 168 547.5 c 128,-1,57
 253 612 253 612 355 612 c 0,58,59
 459 612 459 612 513 558 c 0,60,61
 572 499 572 499 551 397 c 2,62,-1
 481 71 l 2,12,13
EndSplineSet
EndChar

StartChar: uni0E15
Encoding: 3605 3605 234
Width: 609
VWidth: 1504
Flags: W
LayerCount: 2
Fore
SplineSet
343 340 m 0,0,1
 346 360 346 360 336 372.5 c 128,-1,2
 326 385 326 385 307 385 c 256,3,4
 287 385 287 385 271.5 372.5 c 128,-1,5
 256 360 256 360 253 340 c 0,6,7
 248 320 248 320 258 307.5 c 128,-1,8
 268 295 268 295 287 295 c 256,9,10
 307 295 307 295 322.5 307.5 c 128,-1,11
 338 320 338 320 343 340 c 0,0,1
481 71 m 2,12,13
 463 -15 463 -15 411 -41 c 1,14,-1
 337 0 l 1,15,16
 381 26 381 26 396 105 c 1,17,-1
 456 394 l 2,18,19
 477 490 477 490 433 532 c 1,20,-1
 325 465 l 1,21,-1
 248 532 l 1,22,23
 177 500 177 500 155 390 c 1,24,25
 146 354 146 354 152.5 283 c 128,-1,26
 159 212 159 212 153 177 c 1,27,28
 147 153 147 153 134 128 c 1,29,30
 148 149 148 149 190 186.5 c 128,-1,31
 232 224 232 224 268 244 c 1,32,33
 227 247 227 247 210 275.5 c 128,-1,34
 193 304 193 304 200 338 c 0,35,36
 209 379 209 379 243 407.5 c 128,-1,37
 277 436 277 436 317 436 c 256,38,39
 358 436 358 436 380.5 407.5 c 128,-1,40
 403 379 403 379 394 338 c 0,41,42
 380 273 380 273 298 202 c 0,43,44
 187 106 187 106 165 77 c 0,45,46
 133 33 133 33 128 0 c 1,47,-1
 33 0 l 1,48,49
 48 57 48 57 60 116 c 0,50,51
 72 176 72 176 66 227 c 0,52,53
 51 335 51 335 63 390 c 0,54,55
 80 473 80 473 134 533 c 128,-1,56
 188 593 188 593 269 614 c 1,57,-1
 341 549 l 1,58,-1
 435 614 l 1,59,60
 591 590 591 590 551 397 c 2,61,-1
 481 71 l 2,12,13
EndSplineSet
EndChar

StartChar: uni0E16
Encoding: 3606 3606 235
Width: 588
VWidth: 1504
Flags: W
LayerCount: 2
Fore
SplineSet
203 101 m 256,0,1
 208 122 208 122 196 137 c 128,-1,2
 184 152 184 152 162 152 c 256,3,4
 141 152 141 152 123 137 c 128,-1,5
 105 122 105 122 101 101 c 256,6,7
 96 80 96 80 108 65 c 128,-1,8
 120 50 120 50 141 50 c 256,9,10
 162 50 162 50 180 65 c 128,-1,11
 198 80 198 80 203 101 c 256,0,1
460 71 m 2,12,13
 442 -15 442 -15 390 -41 c 1,14,-1
 316 0 l 1,15,16
 360 26 360 26 375 105 c 1,17,-1
 436 399 l 2,18,19
 450 461 450 461 420 496.5 c 128,-1,20
 390 532 390 532 328 532 c 0,21,22
 238 532 238 532 174 456 c 1,23,24
 242 442 242 442 260 388 c 1,25,26
 174 343 174 343 161 280 c 2,27,-1
 146 209 l 1,28,29
 158 215 158 215 176 215 c 0,30,31
 223 215 223 215 248.5 182.5 c 128,-1,32
 274 150 274 150 263 102 c 256,33,34
 252 54 252 54 212.5 21 c 128,-1,35
 173 -12 173 -12 125 -12 c 0,36,37
 75 -12 75 -12 48 22.5 c 128,-1,38
 21 57 21 57 32 110 c 2,39,-1
 69 286 l 2,40,41
 83 349 83 349 152 385 c 1,42,43
 120 411 120 411 63 403 c 1,44,45
 87 496 87 496 168 557 c 0,46,47
 243 613 243 613 341 612 c 0,48,49
 449 612 449 612 500 554 c 128,-1,50
 551 496 551 496 529 397 c 2,51,-1
 460 71 l 2,12,13
EndSplineSet
EndChar

StartChar: uni0E17
Encoding: 3607 3607 236
Width: 658
VWidth: 1504
Flags: W
LayerCount: 2
Fore
SplineSet
531 71 m 2,0,1
 513 -15 513 -15 460 -41 c 1,2,-1
 387 0 l 1,3,4
 431 26 431 26 445 105 c 1,5,-1
 525 486 l 2,6,7
 536 533 536 533 513 532 c 0,8,9
 493 532 493 532 481 510 c 2,10,-1
 194 0 l 1,11,-1
 89 0 l 1,12,-1
 170 387 l 1,13,14
 155 384 155 384 144 384 c 0,15,16
 96 384 96 384 70 417.5 c 128,-1,17
 44 451 44 451 54 499 c 0,18,19
 65 546 65 546 104.5 579 c 128,-1,20
 144 612 144 612 193 612 c 0,21,22
 244 612 244 612 270 577.5 c 128,-1,23
 296 543 296 543 286 490 c 2,24,-1
 238 266 l 2,25,26
 227 215 227 215 187 107 c 1,27,28
 217 173 217 173 259 254 c 2,29,-1
 400 522 l 2,30,31
 448 614 448 614 532 612 c 0,32,33
 645 610 645 610 618 484 c 2,34,-1
 531 71 l 2,0,1
220 498 m 256,35,36
 225 519 225 519 212.5 534 c 128,-1,37
 200 549 200 549 179 549 c 256,38,39
 158 549 158 549 140 534 c 128,-1,40
 122 519 122 519 117 498 c 256,41,42
 112 477 112 477 124.5 462 c 128,-1,43
 137 447 137 447 158 447 c 256,44,45
 179 447 179 447 197 462 c 128,-1,46
 215 477 215 477 220 498 c 256,35,36
EndSplineSet
EndChar

StartChar: uni0E18
Encoding: 3608 3608 237
Width: 538
VWidth: 1504
Flags: W
LayerCount: 2
Fore
SplineSet
412 128 m 2,0,1
 382 -12 382 -12 194 -12 c 0,2,3
 7 -12 7 -12 38 128 c 2,4,-1
 59 229 l 2,5,6
 77 313 77 313 129 338 c 1,7,-1
 212 304 l 1,8,9
 162 281 162 281 144 194 c 2,10,-1
 129 122 l 2,11,12
 117 68 117 68 212 68 c 0,13,14
 305 68 305 68 317 122 c 2,15,-1
 360 320 l 2,16,17
 368 355 368 355 255.5 381.5 c 128,-1,18
 143 408 143 408 60 424 c 1,19,20
 90 520 90 520 137 564 c 1,21,22
 191 612 191 612 284 612 c 0,23,24
 317 612 317 612 371.5 598 c 128,-1,25
 426 584 426 584 450 584 c 0,26,27
 483 584 483 584 507 651 c 1,28,-1
 576 632 l 1,29,30
 538 549 538 549 510.5 526.5 c 128,-1,31
 483 504 483 504 427 504 c 0,32,33
 400 504 400 504 350.5 519 c 128,-1,34
 301 534 301 534 271 534 c 0,35,36
 190 534 190 534 173 484 c 1,37,38
 313 452 313 452 390.5 424 c 128,-1,39
 468 396 468 396 454 326 c 2,40,-1
 412 128 l 2,0,1
EndSplineSet
EndChar

StartChar: uni0E19
Encoding: 3609 3609 238
Width: 651
VWidth: 1504
Flags: W
LayerCount: 2
Fore
SplineSet
557 101 m 0,0,1
 546 53 546 53 506 20.5 c 128,-1,2
 466 -12 466 -12 420 -12 c 0,3,4
 376 -12 376 -12 350.5 16 c 128,-1,5
 325 44 325 44 328 86 c 1,6,7
 274 62 274 62 251 50 c 0,8,9
 209 27 209 27 184 0 c 1,10,-1
 89 0 l 1,11,-1
 170 387 l 1,12,13
 155 384 155 384 144 384 c 0,14,15
 96 384 96 384 70 417.5 c 128,-1,16
 44 451 44 451 54 499 c 0,17,18
 65 546 65 546 104.5 579 c 128,-1,19
 144 612 144 612 193 612 c 0,20,21
 244 612 244 612 270 577.5 c 128,-1,22
 296 543 296 543 286 490 c 2,23,-1
 205 108 l 1,24,25
 232 126 232 126 323 161 c 0,26,27
 406 193 406 193 441 224 c 0,28,29
 467 247 467 247 477 296 c 2,30,-1
 529 542 l 2,31,32
 547 626 547 626 600 651 c 1,33,-1
 683 617 l 1,34,35
 633 594 633 594 615 507 c 2,36,-1
 569 284 l 2,37,38
 555 224 555 224 519 202 c 1,39,40
 571 169 571 169 557 101 c 0,0,1
220 498 m 256,41,42
 225 519 225 519 212.5 534 c 128,-1,43
 200 549 200 549 179 549 c 256,44,45
 158 549 158 549 140 534 c 128,-1,46
 122 519 122 519 117 498 c 256,47,48
 112 477 112 477 124.5 462 c 128,-1,49
 137 447 137 447 158 447 c 256,50,51
 179 447 179 447 197 462 c 128,-1,52
 215 477 215 477 220 498 c 256,41,42
493 101 m 256,53,54
 498 122 498 122 486 137 c 128,-1,55
 474 152 474 152 453 152 c 256,56,57
 432 152 432 152 414 137 c 128,-1,58
 396 122 396 122 391 101 c 256,59,60
 386 80 386 80 398.5 65 c 128,-1,61
 411 50 411 50 432 50 c 256,62,63
 453 50 453 50 470.5 65 c 128,-1,64
 488 80 488 80 493 101 c 256,53,54
EndSplineSet
EndChar

StartChar: uni0E1A
Encoding: 3610 3610 239
Width: 669
VWidth: 1504
Flags: W
LayerCount: 2
Fore
SplineSet
220 498 m 256,0,1
 225 519 225 519 212.5 534 c 128,-1,2
 200 549 200 549 179 549 c 256,3,4
 158 549 158 549 140 534 c 128,-1,5
 122 519 122 519 117 498 c 256,6,7
 112 477 112 477 124.5 462 c 128,-1,8
 137 447 137 447 158 447 c 256,9,10
 179 447 179 447 197 462 c 128,-1,11
 215 477 215 477 220 498 c 256,0,1
555 135 m 2,12,13
 523 -12 523 -12 305 -12 c 0,14,15
 85 -12 85 -12 117 135 c 2,16,-1
 170 387 l 1,17,18
 155 384 155 384 144 384 c 0,19,20
 96 384 96 384 70 417.5 c 128,-1,21
 44 451 44 451 54 499 c 0,22,23
 65 546 65 546 104.5 579 c 128,-1,24
 144 612 144 612 193 612 c 0,25,26
 244 612 244 612 270 577.5 c 128,-1,27
 296 543 296 543 286 490 c 2,28,-1
 209 134 l 2,29,30
 203 104 203 104 240 86 c 128,-1,31
 277 68 277 68 322 68 c 0,32,33
 366 68 366 68 410 86 c 128,-1,34
 454 104 454 104 460 134 c 2,35,-1
 548 542 l 2,36,37
 566 626 566 626 618 651 c 1,38,-1
 701 617 l 1,39,40
 651 594 651 594 633 507 c 2,41,-1
 555 135 l 2,12,13
EndSplineSet
EndChar

StartChar: uni0E1B
Encoding: 3611 3611 240
Width: 669
VWidth: 1504
Flags: W
LayerCount: 2
Fore
SplineSet
555 135 m 2,0,1
 523 -12 523 -12 305 -12 c 0,2,3
 85 -12 85 -12 117 135 c 2,4,-1
 170 387 l 1,5,6
 155 384 155 384 144 384 c 0,7,8
 96 384 96 384 70 417.5 c 128,-1,9
 44 451 44 451 54 499 c 0,10,11
 65 546 65 546 104.5 579 c 128,-1,12
 144 612 144 612 193 612 c 0,13,14
 244 612 244 612 270 577.5 c 128,-1,15
 296 543 296 543 286 490 c 2,16,-1
 209 134 l 2,17,18
 203 104 203 104 240 86 c 128,-1,19
 277 68 277 68 322 68 c 0,20,21
 366 68 366 68 410 86 c 128,-1,22
 454 104 454 104 460 134 c 2,23,-1
 594 763 l 2,24,25
 612 847 612 847 665 872 c 1,26,-1
 748 838 l 1,27,28
 698 815 698 815 680 728 c 2,29,-1
 555 135 l 2,0,1
220 498 m 256,30,31
 225 519 225 519 212.5 534 c 128,-1,32
 200 549 200 549 179 549 c 256,33,34
 158 549 158 549 140 534 c 128,-1,35
 122 519 122 519 117 498 c 256,36,37
 112 477 112 477 124.5 462 c 128,-1,38
 137 447 137 447 158 447 c 256,39,40
 179 447 179 447 197 462 c 128,-1,41
 215 477 215 477 220 498 c 256,30,31
EndSplineSet
EndChar

StartChar: uni0E1C
Encoding: 3612 3612 241
Width: 622
VWidth: 1504
Flags: W
LayerCount: 2
Fore
SplineSet
480 0 m 1,0,-1
 387 0 l 1,1,-1
 287 241 l 1,2,-1
 86 0 l 1,3,-1
 -6 0 l 1,4,-1
 98 490 l 2,5,6
 109 543 109 543 151.5 577.5 c 128,-1,7
 194 612 194 612 244 612 c 0,8,9
 292 612 292 612 317.5 578.5 c 128,-1,10
 343 545 343 545 334 498 c 0,11,12
 323 450 323 450 283.5 417 c 128,-1,13
 244 384 244 384 196 384 c 0,14,15
 175 384 175 384 168 385 c 1,16,-1
 114 128 l 1,17,-1
 272 313 l 1,18,-1
 332 313 l 1,19,-1
 412 126 l 1,20,-1
 501 542 l 2,21,22
 519 626 519 626 572 651 c 1,23,-1
 654 617 l 1,24,25
 604 594 604 594 587 507 c 2,26,-1
 480 0 l 1,0,-1
271 498 m 256,27,28
 276 519 276 519 263.5 534 c 128,-1,29
 251 549 251 549 230 549 c 256,30,31
 209 549 209 549 191 534 c 128,-1,32
 173 519 173 519 168 498 c 256,33,34
 163 477 163 477 175.5 462 c 128,-1,35
 188 447 188 447 209 447 c 256,36,37
 230 447 230 447 248 462 c 128,-1,38
 266 477 266 477 271 498 c 256,27,28
EndSplineSet
EndChar

StartChar: uni0E1D
Encoding: 3613 3613 242
Width: 622
VWidth: 1504
Flags: W
LayerCount: 2
Fore
SplineSet
271 498 m 256,0,1
 276 519 276 519 263.5 534 c 128,-1,2
 251 549 251 549 230 549 c 256,3,4
 209 549 209 549 191 534 c 128,-1,5
 173 519 173 519 168 498 c 256,6,7
 163 477 163 477 175.5 462 c 128,-1,8
 188 447 188 447 209 447 c 256,9,10
 230 447 230 447 248 462 c 128,-1,11
 266 477 266 477 271 498 c 256,0,1
480 0 m 1,12,-1
 387 0 l 1,13,-1
 287 241 l 1,14,-1
 86 0 l 1,15,-1
 -6 0 l 1,16,-1
 98 490 l 2,17,18
 109 543 109 543 151.5 577.5 c 128,-1,19
 194 612 194 612 244 612 c 0,20,21
 292 612 292 612 317.5 578.5 c 128,-1,22
 343 545 343 545 334 498 c 0,23,24
 323 450 323 450 283.5 417 c 128,-1,25
 244 384 244 384 196 384 c 0,26,27
 175 384 175 384 168 385 c 1,28,-1
 114 128 l 1,29,-1
 272 313 l 1,30,-1
 332 313 l 1,31,-1
 412 126 l 1,32,-1
 548 763 l 2,33,34
 566 847 566 847 618 872 c 1,35,-1
 701 838 l 1,36,37
 651 815 651 815 633 728 c 2,38,-1
 480 0 l 1,12,-1
EndSplineSet
EndChar

StartChar: uni0E1E
Encoding: 3614 3614 243
Width: 725
VWidth: 1504
Flags: W
LayerCount: 2
Fore
SplineSet
582 0 m 1,0,-1
 477 0 l 1,1,-1
 433 466 l 1,2,-1
 190 0 l 1,3,-1
 89 0 l 1,4,-1
 170 387 l 1,5,6
 155 384 155 384 144 384 c 0,7,8
 96 384 96 384 70 417.5 c 128,-1,9
 44 451 44 451 54 499 c 0,10,11
 65 546 65 546 104.5 579 c 128,-1,12
 144 612 144 612 193 612 c 0,13,14
 244 612 244 612 270 577.5 c 128,-1,15
 296 543 296 543 286 490 c 2,16,-1
 238 266 l 2,17,18
 230 227 230 227 187 107 c 1,19,20
 249 244 249 244 254 254 c 2,21,-1
 429 575 l 1,22,-1
 486 575 l 1,23,-1
 522 254 l 2,24,25
 524 245 524 245 529 107 c 1,26,27
 537 227 537 227 545 266 c 2,28,-1
 603 542 l 2,29,30
 621 626 621 626 674 651 c 1,31,-1
 757 617 l 1,32,33
 707 594 707 594 689 507 c 2,34,-1
 582 0 l 1,0,-1
220 498 m 256,35,36
 225 519 225 519 212.5 534 c 128,-1,37
 200 549 200 549 179 549 c 256,38,39
 158 549 158 549 140 534 c 128,-1,40
 122 519 122 519 117 498 c 256,41,42
 112 477 112 477 124.5 462 c 128,-1,43
 137 447 137 447 158 447 c 256,44,45
 179 447 179 447 197 462 c 128,-1,46
 215 477 215 477 220 498 c 256,35,36
EndSplineSet
EndChar

StartChar: uni0E1F
Encoding: 3615 3615 244
Width: 725
VWidth: 1504
Flags: W
LayerCount: 2
Fore
SplineSet
582 0 m 1,0,-1
 477 0 l 1,1,-1
 433 466 l 1,2,-1
 190 0 l 1,3,-1
 89 0 l 1,4,-1
 170 387 l 1,5,6
 155 384 155 384 144 384 c 0,7,8
 96 384 96 384 70 417.5 c 128,-1,9
 44 451 44 451 54 499 c 0,10,11
 65 546 65 546 104.5 579 c 128,-1,12
 144 612 144 612 193 612 c 0,13,14
 244 612 244 612 270 577.5 c 128,-1,15
 296 543 296 543 286 490 c 2,16,-1
 238 266 l 2,17,18
 230 227 230 227 187 107 c 1,19,20
 249 244 249 244 254 254 c 2,21,-1
 429 575 l 1,22,-1
 486 575 l 1,23,-1
 522 254 l 2,24,25
 524 245 524 245 529 107 c 1,26,27
 537 227 537 227 545 266 c 2,28,-1
 650 763 l 2,29,30
 668 847 668 847 721 872 c 1,31,-1
 803 838 l 1,32,33
 753 815 753 815 736 728 c 2,34,-1
 582 0 l 1,0,-1
220 498 m 256,35,36
 225 519 225 519 212.5 534 c 128,-1,37
 200 549 200 549 179 549 c 256,38,39
 158 549 158 549 140 534 c 128,-1,40
 122 519 122 519 117 498 c 256,41,42
 112 477 112 477 124.5 462 c 128,-1,43
 137 447 137 447 158 447 c 256,44,45
 179 447 179 447 197 462 c 128,-1,46
 215 477 215 477 220 498 c 256,35,36
EndSplineSet
EndChar

StartChar: uni0E20
Encoding: 3616 3616 245
Width: 639
VWidth: 1504
Flags: W
LayerCount: 2
Fore
SplineSet
132 102 m 256,0,1
 137 123 137 123 125 138 c 128,-1,2
 113 153 113 153 92 153 c 256,3,4
 71 153 71 153 53 138 c 128,-1,5
 35 123 35 123 30 102 c 256,6,7
 25 81 25 81 37.5 66 c 128,-1,8
 50 51 50 51 71 51 c 256,9,10
 92 51 92 51 109.5 66 c 128,-1,11
 127 81 127 81 132 102 c 256,0,1
511 71 m 2,12,13
 493 -15 493 -15 441 -41 c 1,14,-1
 367 0 l 1,15,16
 411 26 411 26 426 105 c 1,17,-1
 487 399 l 2,18,19
 499 459 499 459 467.5 495.5 c 128,-1,20
 436 532 436 532 376 532 c 0,21,22
 284 532 284 532 226 456 c 1,23,24
 297 441 297 441 311 388 c 1,25,26
 266 365 266 365 250 350 c 0,27,28
 226 326 226 326 217 286 c 0,29,30
 209 253 209 253 204 190.5 c 128,-1,31
 199 128 199 128 193 102 c 0,32,33
 182 54 182 54 143 21 c 128,-1,34
 104 -12 104 -12 57 -12 c 0,35,36
 9 -12 9 -12 -16.5 21 c 128,-1,37
 -42 54 -42 54 -32 102 c 0,38,39
 -21 149 -21 149 18 182 c 128,-1,40
 57 215 57 215 102 215 c 0,41,42
 120 215 120 215 123 211 c 1,43,-1
 134 304 l 1,44,45
 146 357 146 357 203 385 c 1,46,47
 168 411 168 411 114 403 c 1,48,49
 137 496 137 496 217 557 c 1,50,51
 294 613 294 613 391 612 c 0,52,53
 496 612 496 612 548 553.5 c 128,-1,54
 600 495 600 495 581 397 c 2,55,-1
 511 71 l 2,12,13
EndSplineSet
EndChar

StartChar: uni0E21
Encoding: 3617 3617 246
Width: 627
VWidth: 1504
Flags: W
LayerCount: 2
Fore
SplineSet
236 498 m 256,0,1
 241 519 241 519 229 534 c 128,-1,2
 217 549 217 549 196 549 c 256,3,4
 175 549 175 549 156.5 534 c 128,-1,5
 138 519 138 519 134 498 c 256,6,7
 129 477 129 477 141 462 c 128,-1,8
 153 447 153 447 174 447 c 256,9,10
 195 447 195 447 213 462 c 128,-1,11
 231 477 231 477 236 498 c 256,0,1
168 110 m 256,12,13
 173 131 173 131 161 146 c 128,-1,14
 149 161 149 161 128 161 c 256,15,16
 107 161 107 161 89 146 c 128,-1,17
 71 131 71 131 66 110 c 256,18,19
 61 89 61 89 73.5 74 c 128,-1,20
 86 59 86 59 107 59 c 256,21,22
 128 59 128 59 145.5 74 c 128,-1,23
 163 89 163 89 168 110 c 256,12,13
484 0 m 1,24,-1
 391 0 l 1,25,26
 320 78 320 78 238 110 c 1,27,-1
 236 102 l 2,28,29
 225 54 225 54 181.5 21 c 128,-1,30
 138 -12 138 -12 92 -12 c 0,31,32
 42 -12 42 -12 14 24 c 128,-1,33
 -14 60 -14 60 -3 110 c 0,34,35
 6 160 6 160 49.5 195 c 128,-1,36
 93 230 93 230 143 230 c 2,37,-1
 153 230 l 1,38,-1
 187 387 l 1,39,40
 172 384 172 384 161 384 c 0,41,42
 113 384 113 384 86.5 417.5 c 128,-1,43
 60 451 60 451 71 499 c 0,44,45
 82 546 82 546 121.5 579 c 128,-1,46
 161 612 161 612 209 612 c 0,47,48
 260 612 260 612 286.5 577.5 c 128,-1,49
 313 543 313 543 302 490 c 2,50,-1
 241 205 l 1,51,52
 352 164 352 164 411 98 c 1,53,-1
 505 542 l 2,54,55
 523 626 523 626 576 651 c 1,56,-1
 659 617 l 1,57,58
 609 594 609 594 591 507 c 2,59,-1
 484 0 l 1,24,-1
EndSplineSet
EndChar

StartChar: uni0E22
Encoding: 3618 3618 247
Width: 580
VWidth: 1504
Flags: W
LayerCount: 2
Fore
SplineSet
286 510 m 256,0,1
 291 531 291 531 279.5 544.5 c 128,-1,2
 268 558 268 558 247 558 c 256,3,4
 226 558 226 558 210 544.5 c 128,-1,5
 194 531 194 531 190 510 c 256,6,7
 185 489 185 489 195.5 475.5 c 128,-1,8
 206 462 206 462 227 462 c 256,9,10
 248 462 248 462 264.5 475.5 c 128,-1,11
 281 489 281 489 286 510 c 256,0,1
469 152 m 2,12,13
 434 -12 434 -12 212 -12 c 0,14,15
 -8 -12 -8 -12 26 152 c 1,16,-1
 41 221 l 2,17,18
 56 293 56 293 123 323 c 1,19,20
 64 370 64 370 84 460 c 0,21,22
 98 526 98 526 144 569 c 128,-1,23
 190 612 190 612 254 612 c 0,24,25
 299 612 299 612 324.5 584.5 c 128,-1,26
 350 557 350 557 341 511 c 0,27,28
 332 470 332 470 297.5 440.5 c 128,-1,29
 263 411 263 411 217 411 c 0,30,31
 193 411 193 411 176 418 c 1,32,33
 176 361 176 361 218 361 c 2,34,-1
 325 361 l 1,35,-1
 308 287 l 1,36,-1
 202 287 l 2,37,38
 178 287 178 287 158 266 c 128,-1,39
 138 245 138 245 132 218 c 2,40,-1
 119 149 l 1,41,42
 101 68 101 68 229 68 c 0,43,44
 358 68 358 68 376 149 c 2,45,-1
 459 542 l 2,46,47
 477 626 477 626 529 651 c 1,48,-1
 612 617 l 1,49,50
 562 594 562 594 545 507 c 2,51,-1
 469 152 l 2,12,13
EndSplineSet
EndChar

StartChar: uni0E23
Encoding: 3619 3619 248
Width: 494
VWidth: 1504
Flags: W
LayerCount: 2
Fore
SplineSet
363 101 m 2,0,1
 352 53 352 53 311.5 20.5 c 128,-1,2
 271 -12 271 -12 223 -12 c 256,3,4
 175 -12 175 -12 147.5 21 c 128,-1,5
 120 54 120 54 131 102 c 256,6,7
 142 150 142 150 182.5 183.5 c 128,-1,8
 223 217 223 217 271 217 c 0,9,10
 289 217 289 217 293 215 c 1,11,-1
 320 344 l 2,12,13
 326 368 326 368 230.5 391.5 c 128,-1,14
 135 415 135 415 57 429 c 1,15,16
 78 512 78 512 129.5 562 c 128,-1,17
 181 612 181 612 257 612 c 0,18,19
 289 612 289 612 341 598 c 128,-1,20
 393 584 393 584 417 584 c 0,21,22
 450 584 450 584 462 651 c 1,23,-1
 531 632 l 1,24,25
 493 506 493 506 403 505 c 0,26,27
 376 505 376 505 328.5 518.5 c 128,-1,28
 281 532 281 532 256 532 c 0,29,30
 190 532 190 532 170 481 c 1,31,32
 280 457 280 457 353 430 c 128,-1,33
 426 403 426 403 412 337 c 2,34,-1
 363 101 l 2,0,1
298 102 m 256,35,36
 303 123 303 123 290.5 138 c 128,-1,37
 278 153 278 153 257 153 c 256,38,39
 236 153 236 153 218 138 c 128,-1,40
 200 123 200 123 196 102 c 256,41,42
 191 81 191 81 203 66 c 128,-1,43
 215 51 215 51 236 51 c 256,44,45
 257 51 257 51 275 66 c 128,-1,46
 293 81 293 81 298 102 c 256,35,36
EndSplineSet
EndChar

StartChar: uni0E24
Encoding: 3620 3620 249
Width: 588
VWidth: 1504
Flags: W
LayerCount: 2
Fore
SplineSet
411 -161 m 2,0,1
 393 -247 393 -247 340 -272 c 1,2,-1
 266 -232 l 1,3,4
 310 -206 310 -206 325 -126 c 1,5,-1
 436 399 l 2,6,7
 450 461 450 461 420 496.5 c 128,-1,8
 390 532 390 532 328 532 c 0,9,10
 238 532 238 532 174 456 c 1,11,12
 242 442 242 442 260 388 c 1,13,14
 174 343 174 343 161 280 c 2,15,-1
 146 209 l 1,16,17
 158 215 158 215 176 215 c 0,18,19
 223 215 223 215 248.5 182.5 c 128,-1,20
 274 150 274 150 263 102 c 256,21,22
 252 54 252 54 212.5 21 c 128,-1,23
 173 -12 173 -12 125 -12 c 0,24,25
 75 -12 75 -12 48 22.5 c 128,-1,26
 21 57 21 57 32 110 c 2,27,-1
 69 286 l 2,28,29
 83 349 83 349 152 385 c 1,30,31
 120 411 120 411 63 403 c 1,32,33
 87 496 87 496 168 557 c 0,34,35
 243 613 243 613 341 612 c 0,36,37
 449 612 449 612 500 554 c 128,-1,38
 551 496 551 496 529 397 c 2,39,-1
 411 -161 l 2,0,1
203 101 m 256,40,41
 208 122 208 122 196 137 c 128,-1,42
 184 152 184 152 162 152 c 256,43,44
 141 152 141 152 123 137 c 128,-1,45
 105 122 105 122 101 101 c 256,46,47
 96 80 96 80 108 65 c 128,-1,48
 120 50 120 50 141 50 c 256,49,50
 162 50 162 50 180 65 c 128,-1,51
 198 80 198 80 203 101 c 256,40,41
EndSplineSet
EndChar

StartChar: uni0E25
Encoding: 3621 3621 250
Width: 600
VWidth: 1504
Flags: W
LayerCount: 2
Fore
SplineSet
548 430 m 2,0,-1
 478 101 l 2,1,2
 455 -10 455 -10 420 -30 c 1,3,-1
 347 3 l 1,4,5
 380 44 380 44 381 114 c 0,6,7
 381 180 381 180 348.5 253 c 128,-1,8
 316 326 316 326 277 352 c 1,9,10
 232 347 232 347 191 302 c 0,11,12
 156 264 156 264 143 218 c 1,13,-1
 177 218 l 2,14,15
 218 218 218 218 246 190 c 128,-1,16
 274 162 274 162 274 123 c 0,17,18
 274 64 274 64 228 26.5 c 128,-1,19
 182 -11 182 -11 128 -11 c 0,20,21
 84 -11 84 -11 57 14 c 128,-1,22
 30 39 30 39 30 80 c 0,23,24
 30 251 30 251 128 347 c 0,25,26
 205 424 205 424 296 424 c 1,27,28
 373 376 373 376 406 301 c 1,29,30
 420 251 420 251 433 202 c 1,31,32
 428 289 428 289 436 331 c 2,33,-1
 457 441 l 2,34,35
 457 444 457 444 459 448 c 0,36,37
 459 453 459 453 459 454 c 0,38,39
 459 490 459 490 420.5 511 c 128,-1,40
 382 532 382 532 328 532 c 0,41,42
 266 532 266 532 217 503 c 128,-1,43
 168 474 168 474 149 424 c 1,44,-1
 59 424 l 1,45,46
 83 511 83 511 161 561.5 c 128,-1,47
 239 612 239 612 347 612 c 0,48,49
 430 612 430 612 487 578 c 0,50,51
 552 537 552 537 552 466 c 0,52,53
 553 451 553 451 548 430 c 2,0,-1
205 104 m 256,54,55
 210 125 210 125 197.5 140 c 128,-1,56
 185 155 185 155 164 155 c 256,57,58
 143 155 143 155 125 140 c 128,-1,59
 107 125 107 125 102 104 c 256,60,61
 97 83 97 83 109.5 68 c 128,-1,62
 122 53 122 53 143 53 c 256,63,64
 164 53 164 53 182 68 c 128,-1,65
 200 83 200 83 205 104 c 256,54,55
EndSplineSet
EndChar

StartChar: uni0E26
Encoding: 3622 3622 251
Width: 639
VWidth: 1504
Flags: W
LayerCount: 2
Fore
SplineSet
132 102 m 256,0,1
 137 123 137 123 125 138 c 128,-1,2
 113 153 113 153 92 153 c 256,3,4
 71 153 71 153 53 138 c 128,-1,5
 35 123 35 123 30 102 c 256,6,7
 25 81 25 81 37.5 66 c 128,-1,8
 50 51 50 51 71 51 c 256,9,10
 92 51 92 51 109.5 66 c 128,-1,11
 127 81 127 81 132 102 c 256,0,1
462 -161 m 2,12,13
 444 -247 444 -247 391 -272 c 1,14,-1
 317 -232 l 1,15,16
 361 -206 361 -206 376 -126 c 1,17,-1
 487 399 l 2,18,19
 499 459 499 459 467.5 495.5 c 128,-1,20
 436 532 436 532 376 532 c 0,21,22
 284 532 284 532 226 456 c 1,23,24
 297 441 297 441 311 388 c 1,25,26
 266 365 266 365 250 350 c 0,27,28
 226 326 226 326 217 286 c 0,29,30
 209 253 209 253 204 190.5 c 128,-1,31
 199 128 199 128 193 102 c 0,32,33
 182 54 182 54 143 21 c 128,-1,34
 104 -12 104 -12 57 -12 c 0,35,36
 9 -12 9 -12 -16.5 21 c 128,-1,37
 -42 54 -42 54 -32 102 c 0,38,39
 -21 149 -21 149 18 182 c 128,-1,40
 57 215 57 215 102 215 c 0,41,42
 120 215 120 215 123 211 c 1,43,-1
 134 304 l 1,44,45
 146 357 146 357 203 385 c 1,46,47
 167 403 167 403 114 402 c 1,48,49
 137 497 137 497 217 557 c 1,50,51
 294 613 294 613 391 612 c 0,52,53
 496 612 496 612 548 553.5 c 128,-1,54
 600 495 600 495 581 397 c 2,55,-1
 462 -161 l 2,12,13
EndSplineSet
EndChar

StartChar: uni0E27
Encoding: 3623 3623 252
Width: 570
VWidth: 1504
Flags: W
LayerCount: 2
Fore
SplineSet
450 110 m 2,0,1
 439 57 439 57 397 23 c 128,-1,2
 355 -11 355 -11 304 -11 c 0,3,4
 256 -11 256 -11 229.5 22.5 c 128,-1,5
 203 56 203 56 214 102 c 0,6,7
 225 150 225 150 264.5 183.5 c 128,-1,8
 304 217 304 217 352 217 c 0,9,10
 369 217 369 217 379 215 c 1,11,-1
 426 436 l 2,12,13
 447 532 447 532 308 532 c 0,14,15
 251 532 251 532 203.5 497 c 128,-1,16
 156 462 156 462 143 403 c 1,17,-1
 53 403 l 1,18,19
 79 502 79 502 151.5 557 c 128,-1,20
 224 612 224 612 325 612 c 0,21,22
 424 612 424 612 475 573 c 0,23,24
 538 526 538 526 517 430 c 2,25,-1
 450 110 l 2,0,1
379 104 m 256,26,27
 384 125 384 125 372 140 c 128,-1,28
 360 155 360 155 338 155 c 256,29,30
 317 155 317 155 299 140 c 128,-1,31
 281 125 281 125 277 104 c 256,32,33
 272 83 272 83 284 68 c 128,-1,34
 296 53 296 53 317 53 c 256,35,36
 338 53 338 53 356 68 c 128,-1,37
 374 83 374 83 379 104 c 256,26,27
EndSplineSet
EndChar

StartChar: uni0E28
Encoding: 3624 3624 253
Width: 606
VWidth: 1504
Flags: W
LayerCount: 2
Fore
SplineSet
478 71 m 2,0,1
 460 -15 460 -15 408 -41 c 1,2,-1
 334 0 l 1,3,4
 376 26 376 26 393 105 c 2,5,-1
 457 411 l 2,6,7
 460 425 460 425 460 433 c 0,8,9
 460 480 460 480 418 508 c 0,10,11
 382 532 382 532 335 532 c 0,12,13
 270 532 270 532 219 487 c 128,-1,14
 168 442 168 442 153 381 c 0,15,16
 150 364 150 364 148.5 325.5 c 128,-1,17
 147 287 147 287 141 259 c 2,18,-1
 132 220 l 1,19,-1
 161 296 l 1,20,21
 241 455 241 455 332 456 c 0,22,23
 367 456 367 456 390.5 433.5 c 128,-1,24
 414 411 414 411 414 378 c 0,25,26
 414 330 414 330 374 295 c 128,-1,27
 334 260 334 260 290 260 c 0,28,29
 254 260 254 260 229 287 c 1,30,31
 155 150 155 150 123 0 c 1,32,-1
 30 0 l 1,33,-1
 50 96 l 2,34,35
 61 147 61 147 60 194 c 0,36,37
 60 217 60 217 57 255 c 128,-1,38
 54 293 54 293 54 310 c 0,39,40
 54 438 54 438 143 525 c 128,-1,41
 232 612 232 612 360 612 c 0,42,43
 419 612 419 612 463 591 c 1,44,45
 523 653 523 653 575 672 c 1,46,-1
 642 627 l 1,47,48
 582 601 582 601 526 543 c 1,49,50
 553 505 553 505 554 453 c 0,51,52
 554 429 554 429 549 408 c 2,53,-1
 478 71 l 2,0,1
358 369 m 0,54,55
 358 405 358 405 320 405 c 0,56,57
 297 405 297 405 280 387 c 128,-1,58
 263 369 263 369 263 347 c 0,59,60
 263 312 263 312 301 313 c 0,61,62
 324 313 324 313 341 330.5 c 128,-1,63
 358 348 358 348 358 369 c 0,54,55
EndSplineSet
EndChar

StartChar: uni0E29
Encoding: 3625 3625 254
Width: 693
VWidth: 1504
Flags: W
LayerCount: 2
Fore
SplineSet
220 498 m 256,0,1
 225 519 225 519 212.5 534 c 128,-1,2
 200 549 200 549 179 549 c 256,3,4
 158 549 158 549 140 534 c 128,-1,5
 122 519 122 519 117 498 c 256,6,7
 112 477 112 477 124.5 462 c 128,-1,8
 137 447 137 447 158 447 c 256,9,10
 179 447 179 447 197 462 c 128,-1,11
 215 477 215 477 220 498 c 256,0,1
429 352 m 256,12,13
 434 372 434 372 424 385.5 c 128,-1,14
 414 399 414 399 394 399 c 256,15,16
 374 399 374 399 358.5 385.5 c 128,-1,17
 343 372 343 372 338 352 c 256,18,19
 333 332 333 332 344 318.5 c 128,-1,20
 355 305 355 305 375 305 c 256,21,22
 395 305 395 305 409.5 318.5 c 128,-1,23
 424 332 424 332 429 352 c 256,12,13
713 356 m 1,24,25
 674 308 674 308 608 269 c 1,26,-1
 579 135 l 2,27,28
 547 -12 547 -12 317 -12 c 0,29,30
 85 -12 85 -12 117 135 c 2,31,-1
 170 387 l 1,32,33
 155 384 155 384 144 384 c 0,34,35
 96 384 96 384 70 417.5 c 128,-1,36
 44 451 44 451 54 499 c 0,37,38
 65 546 65 546 104.5 579 c 128,-1,39
 144 612 144 612 193 612 c 0,40,41
 244 612 244 612 270 577.5 c 128,-1,42
 296 543 296 543 286 490 c 2,43,-1
 211 140 l 2,44,45
 205 110 205 110 235.5 89 c 128,-1,46
 266 68 266 68 332 68 c 0,47,48
 400 68 400 68 440 89 c 128,-1,49
 480 110 480 110 486 140 c 2,50,-1
 505 230 l 1,51,52
 469 222 469 222 441 223 c 0,53,54
 257 223 257 223 284 347 c 0,55,56
 293 389 293 389 327 418.5 c 128,-1,57
 361 448 361 448 408 448 c 0,58,59
 452 448 452 448 472.5 420.5 c 128,-1,60
 493 393 493 393 484 353 c 1,61,62
 475 305 475 305 438 283 c 1,63,64
 480 286 480 286 520 298 c 1,65,-1
 572 542 l 2,66,67
 590 626 590 626 642 651 c 1,68,-1
 725 617 l 1,69,70
 675 594 675 594 657 507 c 2,71,-1
 624 350 l 1,72,73
 653 373 653 373 674 406 c 1,74,-1
 713 356 l 1,24,25
EndSplineSet
EndChar

StartChar: uni0E2A
Encoding: 3626 3626 255
Width: 600
VWidth: 1504
Flags: W
LayerCount: 2
Fore
SplineSet
548 430 m 2,0,-1
 478 101 l 2,1,2
 455 -10 455 -10 420 -30 c 1,3,-1
 347 3 l 1,4,5
 380 44 380 44 381 114 c 0,6,7
 381 180 381 180 348.5 253 c 128,-1,8
 316 326 316 326 277 352 c 1,9,10
 232 347 232 347 191 302 c 0,11,12
 156 264 156 264 143 218 c 1,13,-1
 177 218 l 2,14,15
 218 218 218 218 246 190 c 128,-1,16
 274 162 274 162 274 123 c 0,17,18
 274 64 274 64 228 26.5 c 128,-1,19
 182 -11 182 -11 128 -11 c 0,20,21
 84 -11 84 -11 57 14 c 128,-1,22
 30 39 30 39 30 80 c 0,23,24
 30 251 30 251 128 347 c 0,25,26
 205 424 205 424 296 424 c 1,27,28
 373 376 373 376 406 301 c 1,29,30
 420 251 420 251 433 202 c 1,31,32
 428 289 428 289 436 331 c 2,33,-1
 457 441 l 2,34,35
 459 449 459 449 459 454 c 0,36,37
 459 490 459 490 420.5 511 c 128,-1,38
 382 532 382 532 328 532 c 0,39,40
 266 532 266 532 217 503 c 128,-1,41
 168 474 168 474 149 424 c 1,42,-1
 59 424 l 1,43,44
 83 511 83 511 161 561.5 c 128,-1,45
 239 612 239 612 347 612 c 0,46,47
 410 612 410 612 462 590 c 1,48,49
 527 658 527 658 575 672 c 1,50,-1
 642 627 l 1,51,52
 579 601 579 601 526 543 c 1,53,54
 552 510 552 510 552 466 c 0,55,56
 553 451 553 451 548 430 c 2,0,-1
205 104 m 256,57,58
 210 125 210 125 197.5 140 c 128,-1,59
 185 155 185 155 164 155 c 256,60,61
 143 155 143 155 125 140 c 128,-1,62
 107 125 107 125 102 104 c 256,63,64
 97 83 97 83 109.5 68 c 128,-1,65
 122 53 122 53 143 53 c 256,66,67
 164 53 164 53 182 68 c 128,-1,68
 200 83 200 83 205 104 c 256,57,58
EndSplineSet
EndChar

StartChar: uni0E2B
Encoding: 3627 3627 256
Width: 658
VWidth: 1504
Flags: W
LayerCount: 2
Fore
SplineSet
531 71 m 2,0,1
 513 -15 513 -15 460 -41 c 1,2,-1
 387 0 l 1,3,4
 431 26 431 26 445 105 c 1,5,-1
 493 334 l 2,6,7
 501 375 501 375 484 375 c 0,8,9
 472 375 472 375 442 337 c 2,10,-1
 176 0 l 1,11,-1
 89 0 l 1,12,-1
 170 387 l 1,13,14
 155 384 155 384 144 384 c 0,15,16
 96 384 96 384 70 417.5 c 128,-1,17
 44 451 44 451 54 499 c 0,18,19
 65 546 65 546 104.5 579 c 128,-1,20
 144 612 144 612 193 612 c 0,21,22
 244 612 244 612 270 577.5 c 128,-1,23
 296 543 296 543 286 490 c 2,24,-1
 238 266 l 2,25,26
 230 227 230 227 187 107 c 1,27,28
 216 172 216 172 256 226 c 1,29,-1
 370 369 l 2,30,31
 406 414 406 414 429 420 c 1,32,33
 406 458 406 458 415 498 c 0,34,35
 426 546 426 546 465.5 579 c 128,-1,36
 505 612 505 612 554 612 c 256,37,38
 602 612 602 612 628 579 c 128,-1,39
 654 546 654 546 644 498 c 0,40,41
 633 448 633 448 584 411 c 1,42,43
 595 373 595 373 585 329 c 2,44,-1
 531 71 l 2,0,1
220 498 m 256,45,46
 225 519 225 519 212.5 534 c 128,-1,47
 200 549 200 549 179 549 c 256,48,49
 158 549 158 549 140 534 c 128,-1,50
 122 519 122 519 117 498 c 256,51,52
 112 477 112 477 124.5 462 c 128,-1,53
 137 447 137 447 158 447 c 256,54,55
 179 447 179 447 197 462 c 128,-1,56
 215 477 215 477 220 498 c 256,45,46
581 498 m 256,57,58
 586 519 586 519 573.5 534 c 128,-1,59
 561 549 561 549 540 549 c 256,60,61
 519 549 519 549 501 534 c 128,-1,62
 483 519 483 519 478 498 c 256,63,64
 473 477 473 477 485.5 462 c 128,-1,65
 498 447 498 447 519 447 c 256,66,67
 540 447 540 447 558 462 c 128,-1,68
 576 477 576 477 581 498 c 256,57,58
EndSplineSet
EndChar

StartChar: uni0E2C
Encoding: 3628 3628 257
Width: 703
VWidth: 1504
Flags: W
LayerCount: 2
Fore
SplineSet
561 0 m 1,0,-1
 466 0 l 1,1,-1
 381 268 l 1,2,-1
 185 0 l 1,3,-1
 89 0 l 1,4,-1
 170 387 l 1,5,6
 155 384 155 384 144 384 c 0,7,8
 96 384 96 384 70 417.5 c 128,-1,9
 44 451 44 451 54 499 c 0,10,11
 65 546 65 546 104.5 579 c 128,-1,12
 144 612 144 612 193 612 c 0,13,14
 244 612 244 612 270 577.5 c 128,-1,15
 296 543 296 543 286 490 c 2,16,-1
 235 250 l 2,17,18
 224 203 224 203 185 102 c 1,19,20
 206 138 206 138 233 174 c 1,21,-1
 361 332 l 1,22,-1
 427 332 l 1,23,-1
 489 174 l 1,24,25
 501 138 501 138 507 102 c 1,26,27
 510 203 510 203 520 250 c 2,28,-1
 549 387 l 1,29,30
 534 384 534 384 523 384 c 0,31,32
 475 384 475 384 449 417.5 c 128,-1,33
 423 451 423 451 433 499 c 0,34,35
 444 546 444 546 483.5 579 c 128,-1,36
 523 612 523 612 572 612 c 0,37,38
 599 612 599 612 620 600 c 1,39,40
 668 650 668 650 722 672 c 1,41,-1
 790 627 l 1,42,43
 703 589 703 589 663 545 c 1,44,45
 671 521 671 521 665 490 c 2,46,-1
 561 0 l 1,0,-1
599 498 m 256,47,48
 604 519 604 519 591.5 534 c 128,-1,49
 579 549 579 549 558 549 c 256,50,51
 537 549 537 549 519 534 c 128,-1,52
 501 519 501 519 496 498 c 256,53,54
 491 477 491 477 503.5 462 c 128,-1,55
 516 447 516 447 537 447 c 256,56,57
 558 447 558 447 576 462 c 128,-1,58
 594 477 594 477 599 498 c 256,47,48
220 498 m 256,59,60
 225 519 225 519 212.5 534 c 128,-1,61
 200 549 200 549 179 549 c 256,62,63
 158 549 158 549 140 534 c 128,-1,64
 122 519 122 519 117 498 c 256,65,66
 112 477 112 477 124.5 462 c 128,-1,67
 137 447 137 447 158 447 c 256,68,69
 179 447 179 447 197 462 c 128,-1,70
 215 477 215 477 220 498 c 256,59,60
EndSplineSet
Substitution2: "<23,16000>  in Thai lookup 77 nested-substitutions 0 subtable" uni0E2C.alt1
Substitution2: "Single Substitution lookup 58 subtable" uni0E2C.alt1
EndChar

StartChar: uni0E2D
Encoding: 3629 3629 258
Width: 592
VWidth: 1504
Flags: W
LayerCount: 2
Fore
SplineSet
478 135 m 2,0,1
 461 57 461 57 382 20 c 1,2,3
 319 -12 319 -12 229 -12 c 256,4,5
 139 -12 139 -12 89 20 c 0,6,7
 30 58 30 58 47 135 c 2,8,-1
 78 287 l 2,9,10
 90 341 90 341 127.5 378 c 128,-1,11
 165 415 165 415 221 415 c 0,12,13
 269 415 269 415 295.5 382.5 c 128,-1,14
 322 350 322 350 311 302 c 0,15,16
 302 255 302 255 261.5 222.5 c 128,-1,17
 221 190 221 190 173 190 c 0,18,19
 159 190 159 190 152 193 c 1,20,-1
 141 146 l 2,21,22
 124 68 124 68 247 68 c 256,23,24
 370 68 370 68 387 147 c 2,25,-1
 448 436 l 2,26,27
 459 486 459 486 418 511 c 0,28,29
 383 532 383 532 326 532 c 0,30,31
 183 532 183 532 155 459 c 1,32,-1
 65 459 l 1,33,34
 118 611 118 611 335 612 c 0,35,36
 436 612 436 612 493 575 c 1,37,38
 561 527 561 527 540 430 c 2,39,-1
 478 135 l 2,0,1
248 302 m 256,40,41
 253 323 253 323 241 338 c 128,-1,42
 229 353 229 353 208 353 c 256,43,44
 187 353 187 353 168.5 338 c 128,-1,45
 150 323 150 323 146 302 c 256,46,47
 141 281 141 281 153 266 c 128,-1,48
 165 251 165 251 187 251 c 256,49,50
 208 251 208 251 225.5 266 c 128,-1,51
 243 281 243 281 248 302 c 256,40,41
EndSplineSet
EndChar

StartChar: uni0E2E
Encoding: 3630 3630 259
Width: 579
VWidth: 1504
Flags: W
LayerCount: 2
Fore
SplineSet
465 135 m 2,0,1
 448 57 448 57 369 20 c 1,2,3
 306 -12 306 -12 215 -12 c 256,4,5
 125 -12 125 -12 75 20 c 0,6,7
 16 58 16 58 33 135 c 2,8,-1
 59 259 l 2,9,10
 71 313 71 313 108.5 350 c 128,-1,11
 146 387 146 387 202 387 c 0,12,13
 250 387 250 387 276 354.5 c 128,-1,14
 302 322 302 322 292 274 c 0,15,16
 283 227 283 227 242.5 194 c 128,-1,17
 202 161 202 161 153 161 c 0,18,19
 139 161 139 161 132 164 c 1,20,-1
 128 146 l 1,21,22
 111 68 111 68 233 68 c 0,23,24
 356 68 356 68 373 147 c 2,25,-1
 444 477 l 1,26,27
 382 423 382 423 263 423 c 0,28,29
 72 423 72 423 89 502 c 0,30,31
 113 613 113 613 334 614 c 0,32,33
 400 614 400 614 447 591 c 1,34,35
 498 645 498 645 558 672 c 1,36,-1
 626 627 l 1,37,38
 546 592 546 592 510 543 c 1,39,40
 539 499 539 499 526 426 c 1,41,-1
 465 135 l 2,0,1
412 534 m 1,42,43
 365 546 365 546 307 546 c 0,44,45
 187 546 187 546 177 508 c 0,46,47
 172 484 172 484 284 484 c 0,48,49
 374 484 374 484 412 534 c 1,42,43
229 274 m 256,50,51
 234 295 234 295 221.5 310 c 128,-1,52
 209 325 209 325 188 325 c 256,53,54
 167 325 167 325 149 310 c 128,-1,55
 131 295 131 295 126 274 c 256,56,57
 121 253 121 253 133.5 238 c 128,-1,58
 146 223 146 223 167 223 c 256,59,60
 188 223 188 223 206 238 c 128,-1,61
 224 253 224 253 229 274 c 256,50,51
EndSplineSet
EndChar

StartChar: uni0E2F
Encoding: 3631 3631 260
Width: 571
VWidth: 1504
Flags: W
LayerCount: 2
Fore
SplineSet
241 496 m 256,0,1
 246 517 246 517 233.5 532.5 c 128,-1,2
 221 548 221 548 200 548 c 256,3,4
 179 548 179 548 161 532.5 c 128,-1,5
 143 517 143 517 138 496 c 256,6,7
 133 475 133 475 144.5 460 c 128,-1,8
 156 445 156 445 177 445 c 256,9,10
 198 445 198 445 217 460 c 128,-1,11
 236 475 236 475 241 496 c 256,0,1
442 71 m 2,12,13
 424 -15 424 -15 372 -41 c 1,14,-1
 298 0 l 1,15,16
 342 26 342 26 356 105 c 1,17,-1
 433 474 l 2,18,19
 445 528 445 528 430 531 c 1,20,21
 409 460 409 460 337 417.5 c 128,-1,22
 265 375 265 375 191 375 c 0,23,24
 132 375 132 375 101 405 c 1,25,26
 62 438 62 438 75 496 c 1,27,28
 84 544 84 544 124.5 578 c 128,-1,29
 165 612 165 612 214 612 c 256,30,31
 262 612 262 612 288 578.5 c 128,-1,32
 314 545 314 545 305 496 c 0,33,34
 303 488 303 488 296 474 c 1,35,36
 355 512 355 512 384 600 c 1,37,-1
 451 600 l 2,38,39
 553 600 553 600 531 492 c 2,40,-1
 442 71 l 2,12,13
EndSplineSet
EndChar

StartChar: uni0E30
Encoding: 3632 3632 261
Width: 511
VWidth: 1504
Flags: W
LayerCount: 2
Fore
SplineSet
514 597 m 1,0,1
 455 358 455 358 239 358 c 0,2,3
 149 358 149 358 109 395 c 128,-1,4
 69 432 69 432 81 489 c 0,5,6
 90 533 90 533 126 563 c 128,-1,7
 162 593 162 593 206 593 c 0,8,9
 253 593 253 593 276 562 c 128,-1,10
 299 531 299 531 290 489 c 0,11,12
 281 448 281 448 254 429 c 1,13,14
 395 435 395 435 430 597 c 1,15,-1
 514 597 l 1,0,1
230 489 m 0,16,17
 233 509 233 509 222.5 522 c 128,-1,18
 212 535 212 535 193 535 c 256,19,20
 173 535 173 535 157 521.5 c 128,-1,21
 141 508 141 508 138 489 c 0,22,23
 133 469 133 469 143 456.5 c 128,-1,24
 153 444 153 444 173 444 c 256,25,26
 193 444 193 444 209 456.5 c 128,-1,27
 225 469 225 469 230 489 c 0,16,17
442 256 m 1,28,29
 383 17 383 17 167 17 c 0,30,31
 77 17 77 17 37 53.5 c 128,-1,32
 -3 90 -3 90 8 147 c 0,33,34
 17 191 17 191 53.5 221 c 128,-1,35
 90 251 90 251 134 251 c 0,36,37
 181 251 181 251 203.5 220.5 c 128,-1,38
 226 190 226 190 217 147 c 0,39,40
 209 106 209 106 182 87 c 1,41,42
 323 93 323 93 358 256 c 1,43,-1
 442 256 l 1,28,29
156 147 m 0,44,45
 161 167 161 167 150.5 180.5 c 128,-1,46
 140 194 140 194 120 194 c 256,47,48
 100 194 100 194 84.5 180.5 c 128,-1,49
 69 167 69 167 65 147 c 0,50,51
 62 127 62 127 71.5 114.5 c 128,-1,52
 81 102 81 102 101 102 c 256,53,54
 121 102 121 102 137 114.5 c 128,-1,55
 153 127 153 127 156 147 c 0,44,45
EndSplineSet
EndChar

StartChar: uni0E31
Encoding: 3633 3633 262
Width: 0
VWidth: 1504
Flags: W
LayerCount: 2
Fore
SplineSet
214 967 m 1,0,1
 122 717 122 717 -108 718 c 0,2,3
 -198 718 -198 718 -239 754.5 c 128,-1,4
 -280 791 -280 791 -268 848 c 0,5,6
 -257 892 -257 892 -221 922 c 128,-1,7
 -185 952 -185 952 -141 952 c 0,8,9
 -94 952 -94 952 -72 921 c 128,-1,10
 -50 890 -50 890 -59 848 c 0,11,12
 -67 807 -67 807 -93 788 c 1,13,14
 63 794 63 794 125 967 c 1,15,-1
 214 967 l 1,0,1
-119 848 m 0,16,17
 -114 868 -114 868 -124.5 881.5 c 128,-1,18
 -135 895 -135 895 -155 895 c 256,19,20
 -175 895 -175 895 -190.5 881.5 c 128,-1,21
 -206 868 -206 868 -211 848 c 0,22,23
 -214 828 -214 828 -204 815.5 c 128,-1,24
 -194 803 -194 803 -174 803 c 256,25,26
 -154 803 -154 803 -138 815.5 c 128,-1,27
 -122 828 -122 828 -119 848 c 0,16,17
EndSplineSet
Substitution2: "<23,16000>  in Thai lookup 65 nested-substitutions 2 subtable" uni0E31.alt1
Substitution2: "Single Substitution lookup 58 subtable" uni0E31.alt1
EndChar

StartChar: uni0E32
Encoding: 3634 3634 263
Width: 515
VWidth: 1504
Flags: W
LayerCount: 2
Fore
SplineSet
388 71 m 2,0,1
 370 -15 370 -15 317 -41 c 1,2,-1
 244 0 l 1,3,4
 288 26 288 26 302 105 c 1,5,-1
 372 438 l 2,6,7
 381 480 381 480 358 506 c 128,-1,8
 335 532 335 532 286 532 c 256,9,10
 236 532 236 532 197 499 c 128,-1,11
 158 466 158 466 146 415 c 1,12,-1
 56 415 l 1,13,14
 80 505 80 505 146 558.5 c 128,-1,15
 212 612 212 612 302 612 c 0,16,17
 386 612 386 612 435 569 c 128,-1,18
 484 526 484 526 466 439 c 2,19,-1
 388 71 l 2,0,1
EndSplineSet
Substitution2: "<23,16000>  in Thai lookup 65 nested-substitutions 8 subtable" uni0E45
EndChar

StartChar: uni0E33
Encoding: 3635 3635 264
Width: 515
VWidth: 1504
Flags: W
LayerCount: 2
Fore
SplineSet
388 71 m 2,0,1
 370 -15 370 -15 317 -41 c 1,2,-1
 244 0 l 1,3,4
 288 26 288 26 302 105 c 1,5,-1
 372 438 l 2,6,7
 381 480 381 480 358 506 c 128,-1,8
 335 532 335 532 286 532 c 256,9,10
 236 532 236 532 197 499 c 128,-1,11
 158 466 158 466 146 415 c 1,12,-1
 56 415 l 1,13,14
 80 505 80 505 146 558.5 c 128,-1,15
 212 612 212 612 302 612 c 0,16,17
 386 612 386 612 435 569 c 128,-1,18
 484 526 484 526 466 439 c 2,19,-1
 388 71 l 2,0,1
92 826 m 0,20,21
 81 773 81 773 36.5 736 c 128,-1,22
 -8 699 -8 699 -60 699 c 0,23,24
 -114 699 -114 699 -142.5 736 c 128,-1,25
 -171 773 -171 773 -161 826 c 0,26,27
 -149 879 -149 879 -104 916.5 c 128,-1,28
 -59 954 -59 954 -6 954 c 0,29,30
 45 954 45 954 74.5 917 c 128,-1,31
 104 880 104 880 92 826 c 0,20,21
26 826 m 0,32,33
 32 852 32 852 18.5 869.5 c 128,-1,34
 5 887 5 887 -20 887 c 0,35,36
 -46 887 -46 887 -67.5 869 c 128,-1,37
 -89 851 -89 851 -95 826 c 0,38,39
 -100 800 -100 800 -85.5 783 c 128,-1,40
 -71 766 -71 766 -45 766 c 256,41,42
 -19 766 -19 766 1 783 c 128,-1,43
 21 800 21 800 26 826 c 0,32,33
EndSplineSet
Substitution2: "<23,16000>  in Thai lookup 65 nested-substitutions 2 subtable" uni0E33.alt1
Substitution2: "Single Substitution lookup 58 subtable" uni0E33.alt1
EndChar

StartChar: uni0E34
Encoding: 3636 3636 265
Width: 0
VWidth: 1504
Flags: W
LayerCount: 2
Fore
SplineSet
3 677 m 1,0,1
 -168 737 -168 737 -323 737 c 0,2,3
 -394 737 -394 737 -469 728 c 1,4,5
 -407 930 -407 930 -206 930 c 0,6,7
 -90 930 -90 930 -38 860 c 128,-1,8
 14 790 14 790 3 677 c 1,0,1
-72 766 m 1,9,10
 -74 804 -74 804 -112 836.5 c 128,-1,11
 -150 869 -150 869 -208 869 c 0,12,13
 -262 869 -262 869 -305.5 847.5 c 128,-1,14
 -349 826 -349 826 -367 790 c 1,15,16
 -340 796 -340 796 -286 796 c 0,17,18
 -174 796 -174 796 -72 766 c 1,9,10
EndSplineSet
Substitution2: "<23,16000>  in Thai lookup 65 nested-substitutions 2 subtable" uni0E34.alt1
Substitution2: "Single Substitution lookup 58 subtable" uni0E34.alt1
EndChar

StartChar: uni0E35
Encoding: 3637 3637 266
Width: 0
VWidth: 1504
Flags: W
LayerCount: 2
Fore
SplineSet
3 677 m 1,0,1
 -168 737 -168 737 -323 737 c 0,2,3
 -394 737 -394 737 -469 728 c 1,4,5
 -407 930 -407 930 -206 930 c 0,6,7
 -99 930 -99 930 -47 871 c 1,8,-1
 -26 975 l 1,9,-1
 63 975 l 1,10,-1
 5 698 l 1,11,12
 5 688 5 688 3 677 c 1,0,1
-72 766 m 1,13,14
 -74 804 -74 804 -112 836.5 c 128,-1,15
 -150 869 -150 869 -208 869 c 0,16,17
 -262 869 -262 869 -305.5 847.5 c 128,-1,18
 -349 826 -349 826 -367 790 c 1,19,20
 -340 796 -340 796 -286 796 c 0,21,22
 -174 796 -174 796 -72 766 c 1,13,14
EndSplineSet
Substitution2: "<23,16000>  in Thai lookup 65 nested-substitutions 2 subtable" uni0E35.alt1
Substitution2: "Single Substitution lookup 58 subtable" uni0E35.alt1
EndChar

StartChar: uni0E36
Encoding: 3638 3638 267
Width: 0
VWidth: 1504
Flags: W
LayerCount: 2
Fore
SplineSet
-72 766 m 1,0,1
 -74 804 -74 804 -112 836.5 c 128,-1,2
 -150 869 -150 869 -208 869 c 0,3,4
 -262 869 -262 869 -305.5 847.5 c 128,-1,5
 -349 826 -349 826 -367 790 c 1,6,7
 -340 796 -340 796 -286 796 c 0,8,9
 -174 796 -174 796 -72 766 c 1,0,1
21 900 m 0,10,11
 24 918 24 918 14.5 930.5 c 128,-1,12
 5 943 5 943 -11 943 c 0,13,14
 -28 943 -28 943 -44 930.5 c 128,-1,15
 -60 918 -60 918 -63 900 c 0,16,17
 -68 882 -68 882 -56.5 869.5 c 128,-1,18
 -45 857 -45 857 -29 857 c 256,19,20
 -12 857 -12 857 2 869.5 c 128,-1,21
 16 882 16 882 21 900 c 0,10,11
68 900 m 0,22,23
 60 870 60 870 38.5 845.5 c 128,-1,24
 17 821 17 821 -12 814 c 1,25,26
 11 755 11 755 3 677 c 1,27,28
 -168 737 -168 737 -323 737 c 0,29,30
 -394 737 -394 737 -469 728 c 1,31,32
 -407 930 -407 930 -206 930 c 0,33,34
 -147 930 -147 930 -105 912 c 1,35,36
 -93 945 -93 945 -64.5 967.5 c 128,-1,37
 -36 990 -36 990 -2 990 c 0,38,39
 34 990 34 990 55 964 c 128,-1,40
 76 938 76 938 68 900 c 0,22,23
EndSplineSet
Substitution2: "<23,16000>  in Thai lookup 65 nested-substitutions 2 subtable" uni0E36.alt1
Substitution2: "Single Substitution lookup 58 subtable" uni0E36.alt1
EndChar

StartChar: uni0E37
Encoding: 3639 3639 268
Width: 0
VWidth: 1504
Flags: W
LayerCount: 2
Fore
SplineSet
3 677 m 1,0,1
 -168 737 -168 737 -323 737 c 0,2,3
 -394 737 -394 737 -469 728 c 1,4,5
 -407 930 -407 930 -206 930 c 0,6,7
 -183 930 -183 930 -165 927 c 1,8,-1
 -155 975 l 1,9,-1
 -87 975 l 1,10,-1
 -101 912 l 1,11,12
 -71 898 -71 898 -47 871 c 1,13,-1
 -26 975 l 1,14,-1
 63 975 l 1,15,-1
 5 698 l 1,16,-1
 3 677 l 1,0,1
-72 766 m 1,17,18
 -74 804 -74 804 -112 836.5 c 128,-1,19
 -150 869 -150 869 -208 869 c 0,20,21
 -262 869 -262 869 -305.5 847.5 c 128,-1,22
 -349 826 -349 826 -367 790 c 1,23,24
 -340 796 -340 796 -286 796 c 0,25,26
 -174 796 -174 796 -72 766 c 1,17,18
EndSplineSet
Substitution2: "<23,16000>  in Thai lookup 65 nested-substitutions 2 subtable" uni0E37.alt1
Substitution2: "Single Substitution lookup 58 subtable" uni0E37.alt1
EndChar

StartChar: uni0E38
Encoding: 3640 3640 269
Width: 0
VWidth: 1504
Flags: W
LayerCount: 2
Fore
SplineSet
-226 -146 m 256,0,1
 -223 -129 -223 -129 -232 -117 c 128,-1,2
 -241 -105 -241 -105 -257 -105 c 256,3,4
 -274 -105 -274 -105 -289.5 -117 c 128,-1,5
 -305 -129 -305 -129 -308 -146 c 256,6,7
 -311 -163 -311 -163 -301.5 -175.5 c 128,-1,8
 -292 -188 -292 -188 -275 -188 c 256,9,10
 -258 -188 -258 -188 -243.5 -175.5 c 128,-1,11
 -229 -163 -229 -163 -226 -146 c 256,0,1
-205 -296 m 2,12,13
 -223 -382 -223 -382 -275 -408 c 1,14,-1
 -341 -370 l 1,15,16
 -303 -344 -303 -344 -287 -290 c 1,17,-1
 -275 -238 l 1,18,-1
 -289 -239 l 1,19,20
 -327 -239 -327 -239 -348 -213 c 128,-1,21
 -369 -187 -369 -187 -361 -150 c 0,22,23
 -352 -112 -352 -112 -320.5 -85.5 c 128,-1,24
 -289 -59 -289 -59 -250 -59 c 0,25,26
 -212 -59 -212 -59 -188.5 -83 c 128,-1,27
 -165 -107 -165 -107 -174 -149 c 2,28,-1
 -205 -296 l 2,12,13
EndSplineSet
Substitution2: "<23,16000>  in Thai lookup 65 nested-substitutions 6 subtable" uni0E38.alt1
Substitution2: "Single Substitution lookup 59 subtable" a
Substitution2: "Single Substitution lookup 58 subtable" uni0E38.alt1
EndChar

StartChar: uni0E39
Encoding: 3641 3641 270
Width: 0
VWidth: 1504
Flags: W
LayerCount: 2
Fore
SplineSet
-200 -274 m 2,0,1
 -211 -324 -211 -324 -259 -349 c 0,2,3
 -300 -372 -300 -372 -358 -372 c 0,4,5
 -409 -372 -409 -372 -442 -350 c 0,6,7
 -480 -326 -480 -326 -471 -284 c 2,8,-1
 -460 -239 l 1,9,-1
 -469 -239 l 2,10,11
 -507 -239 -507 -239 -528 -213 c 128,-1,12
 -549 -187 -549 -187 -542 -150 c 0,13,14
 -533 -112 -533 -112 -501 -85.5 c 128,-1,15
 -469 -59 -469 -59 -430 -59 c 0,16,17
 -392 -59 -392 -59 -369 -83 c 128,-1,18
 -346 -107 -346 -107 -355 -149 c 2,19,-1
 -384 -284 l 2,20,21
 -389 -307 -389 -307 -343 -307 c 0,22,23
 -295 -307 -295 -307 -290 -284 c 2,24,-1
 -265 -164 l 2,25,26
 -247 -78 -247 -78 -194 -53 c 1,27,-1
 -128 -90 l 1,28,29
 -166 -116 -166 -116 -179 -170 c 1,30,-1
 -200 -274 l 2,0,1
-406 -146 m 256,31,32
 -403 -129 -403 -129 -412 -117 c 128,-1,33
 -421 -105 -421 -105 -438 -105 c 256,34,35
 -455 -105 -455 -105 -470.5 -117 c 128,-1,36
 -486 -129 -486 -129 -489 -146 c 256,37,38
 -492 -163 -492 -163 -482 -175.5 c 128,-1,39
 -472 -188 -472 -188 -456 -188 c 256,40,41
 -439 -188 -439 -188 -424 -175.5 c 128,-1,42
 -409 -163 -409 -163 -406 -146 c 256,31,32
EndSplineSet
Substitution2: "<23,16000>  in Thai lookup 65 nested-substitutions 6 subtable" uni0E39.alt1
Substitution2: "Single Substitution lookup 59 subtable" b
Substitution2: "Single Substitution lookup 58 subtable" uni0E39.alt1
EndChar

StartChar: uni0E3A
Encoding: 3642 3642 271
Width: 0
VWidth: 1504
Flags: W
LayerCount: 2
Fore
SplineSet
-146 -114 m 256,0,1
 -151 -135 -151 -135 -169.5 -151 c 128,-1,2
 -188 -167 -188 -167 -209 -167 c 256,3,4
 -230 -167 -230 -167 -243 -151 c 128,-1,5
 -256 -135 -256 -135 -251 -114 c 256,6,7
 -246 -93 -246 -93 -227 -77.5 c 128,-1,8
 -208 -62 -208 -62 -187 -62 c 256,9,10
 -166 -62 -166 -62 -153.5 -77.5 c 128,-1,11
 -141 -93 -141 -93 -146 -114 c 256,0,1
EndSplineSet
Substitution2: "<23,16000>  in Thai lookup 65 nested-substitutions 6 subtable" uni0E3A.alt1
Substitution2: "Single Substitution lookup 59 subtable" c
Substitution2: "Single Substitution lookup 58 subtable" uni0E3A.alt1
EndChar

StartChar: uni0E3F
Encoding: 3647 3647 272
Width: 585
VWidth: 1504
Flags: W
LayerCount: 2
Fore
SplineSet
486 227 m 0,0,1
 451 66 451 66 260 38 c 1,2,-1
 235 -84 l 1,3,-1
 152 -84 l 1,4,-1
 176 32 l 1,5,6
 123 32 123 32 39 47 c 1,7,-1
 170 665 l 1,8,9
 262 685 262 685 314 686 c 1,10,-1
 335 785 l 1,11,-1
 418 785 l 1,12,-1
 397 681 l 1,13,14
 552 655 552 655 522 514 c 0,15,16
 505 431 505 431 423 379 c 1,17,18
 506 323 506 323 486 227 c 0,0,1
399 226 m 0,19,20
 423 336 423 336 257 335 c 2,21,-1
 190 335 l 1,22,-1
 143 116 l 1,23,24
 167 111 167 111 199 111 c 0,25,26
 270 111 270 111 323 137 c 0,27,28
 387 167 387 167 399 226 c 0,19,20
433 513 m 0,29,30
 453 606 453 606 305 606 c 0,31,32
 296 606 296 606 245 599 c 1,33,-1
 208 418 l 1,34,-1
 290 418 l 2,35,36
 347 418 347 418 385.5 445 c 128,-1,37
 424 472 424 472 433 513 c 0,29,30
EndSplineSet
EndChar

StartChar: uni0E40
Encoding: 3648 3648 273
Width: 312
VWidth: 1504
Flags: W
LayerCount: 2
Fore
SplineSet
262 102 m 256,0,1
 251 54 251 54 210.5 21 c 128,-1,2
 170 -12 170 -12 123 -12 c 0,3,4
 72 -12 72 -12 45 22.5 c 128,-1,5
 18 57 18 57 29 110 c 2,6,-1
 120 542 l 2,7,8
 138 626 138 626 191 651 c 1,9,-1
 274 617 l 1,10,11
 224 594 224 594 206 507 c 2,12,-1
 144 214 l 1,13,14
 152 217 152 217 171 217 c 0,15,16
 218 217 218 217 245.5 183.5 c 128,-1,17
 273 150 273 150 262 102 c 256,0,1
199 102 m 256,18,19
 204 123 204 123 191.5 138 c 128,-1,20
 179 153 179 153 158 153 c 256,21,22
 137 153 137 153 119 138 c 128,-1,23
 101 123 101 123 96 102 c 256,24,25
 91 81 91 81 103.5 66 c 128,-1,26
 116 51 116 51 137 51 c 256,27,28
 158 51 158 51 176 66 c 128,-1,29
 194 81 194 81 199 102 c 256,18,19
EndSplineSet
EndChar

StartChar: uni0E41
Encoding: 3649 3649 274
Width: 594
VWidth: 1504
Flags: W
LayerCount: 2
Fore
SplineSet
262 102 m 256,0,1
 251 54 251 54 210.5 21 c 128,-1,2
 170 -12 170 -12 123 -12 c 0,3,4
 72 -12 72 -12 45 22.5 c 128,-1,5
 18 57 18 57 29 110 c 2,6,-1
 120 542 l 2,7,8
 138 626 138 626 191 651 c 1,9,-1
 274 617 l 1,10,11
 224 594 224 594 206 507 c 2,12,-1
 144 214 l 1,13,14
 152 217 152 217 171 217 c 0,15,16
 218 217 218 217 245.5 183.5 c 128,-1,17
 273 150 273 150 262 102 c 256,0,1
543 102 m 256,18,19
 532 54 532 54 491.5 21 c 128,-1,20
 451 -12 451 -12 405 -12 c 0,21,22
 354 -12 354 -12 326.5 22.5 c 128,-1,23
 299 57 299 57 310 110 c 2,24,-1
 402 542 l 2,25,26
 420 626 420 626 472 651 c 1,27,-1
 555 617 l 1,28,29
 505 594 505 594 487 507 c 2,30,-1
 426 214 l 1,31,32
 434 217 434 217 453 217 c 0,33,34
 500 217 500 217 527 183.5 c 128,-1,35
 554 150 554 150 543 102 c 256,18,19
199 102 m 256,36,37
 204 123 204 123 191.5 138 c 128,-1,38
 179 153 179 153 158 153 c 256,39,40
 137 153 137 153 119 138 c 128,-1,41
 101 123 101 123 96 102 c 256,42,43
 91 81 91 81 103.5 66 c 128,-1,44
 116 51 116 51 137 51 c 256,45,46
 158 51 158 51 176 66 c 128,-1,47
 194 81 194 81 199 102 c 256,36,37
480 102 m 256,48,49
 485 123 485 123 472.5 138 c 128,-1,50
 460 153 460 153 439 153 c 256,51,52
 418 153 418 153 400 138 c 128,-1,53
 382 123 382 123 378 102 c 256,54,55
 373 81 373 81 385 66 c 128,-1,56
 397 51 397 51 418 51 c 256,57,58
 439 51 439 51 457 66 c 128,-1,59
 475 81 475 81 480 102 c 256,48,49
EndSplineSet
EndChar

StartChar: uni0E42
Encoding: 3650 3650 275
Width: 379
VWidth: 1504
Flags: W
LayerCount: 2
Fore
SplineSet
328 102 m 256,0,1
 317 54 317 54 276.5 21 c 128,-1,2
 236 -12 236 -12 190 -12 c 0,3,4
 139 -12 139 -12 111.5 22.5 c 128,-1,5
 84 57 84 57 95 110 c 2,6,-1
 221 707 l 1,7,8
 226 758 226 758 164 790 c 0,9,10
 114 816 114 816 57 815 c 1,11,12
 101 986 101 986 247 987 c 0,13,14
 286 987 286 987 329.5 962 c 128,-1,15
 373 937 373 937 393 937 c 0,16,17
 431 937 431 937 459 996 c 1,18,-1
 525 978 l 1,19,20
 471 862 471 862 388 862 c 0,21,22
 359 862 359 862 312 887 c 128,-1,23
 265 912 265 912 230 912 c 0,24,25
 177 912 177 912 153 874 c 1,26,27
 340 823 340 823 313 699 c 2,28,-1
 211 214 l 1,29,30
 219 217 219 217 238 217 c 0,31,32
 285 217 285 217 312 183.5 c 128,-1,33
 339 150 339 150 328 102 c 256,0,1
265 102 m 256,34,35
 270 123 270 123 257.5 138 c 128,-1,36
 245 153 245 153 224 153 c 256,37,38
 203 153 203 153 185 138 c 128,-1,39
 167 123 167 123 162 102 c 256,40,41
 157 81 157 81 169.5 66 c 128,-1,42
 182 51 182 51 203 51 c 256,43,44
 224 51 224 51 242 66 c 128,-1,45
 260 81 260 81 265 102 c 256,34,35
EndSplineSet
EndChar

StartChar: uni0E43
Encoding: 3651 3651 276
Width: 404
VWidth: 1504
Flags: W
LayerCount: 2
Fore
SplineSet
353 102 m 256,0,1
 342 54 342 54 302 21 c 128,-1,2
 262 -12 262 -12 215 -12 c 0,3,4
 164 -12 164 -12 137 22.5 c 128,-1,5
 110 57 110 57 120 110 c 2,6,-1
 241 677 l 2,7,8
 249 712 249 712 287 768 c 128,-1,9
 325 824 325 824 331 853 c 0,10,11
 339 886 339 886 319 905.5 c 128,-1,12
 299 925 299 925 266 925 c 0,13,14
 215 925 215 925 188 907 c 1,15,16
 226 907 226 907 245 878 c 1,17,18
 260 852 260 852 253 818 c 0,19,20
 244 777 244 777 209 748 c 128,-1,21
 174 719 174 719 132 719 c 0,22,23
 88 719 88 719 68 750.5 c 128,-1,24
 48 782 48 782 57 824 c 0,25,26
 74 905 74 905 138 951 c 0,27,28
 197 992 197 992 278 991 c 0,29,30
 344 991 344 991 387 957 c 0,31,32
 434 918 434 918 420 856 c 1,33,34
 414 821 414 821 376 758.5 c 128,-1,35
 338 696 338 696 331 665 c 2,36,-1
 236 214 l 1,37,38
 244 217 244 217 263 217 c 0,39,40
 310 217 310 217 337 183.5 c 128,-1,41
 364 150 364 150 353 102 c 256,0,1
290 102 m 256,42,43
 295 123 295 123 283 138 c 128,-1,44
 271 153 271 153 250 153 c 256,45,46
 229 153 229 153 211 138 c 128,-1,47
 193 123 193 123 188 102 c 256,48,49
 183 81 183 81 195.5 66 c 128,-1,50
 208 51 208 51 229 51 c 256,51,52
 250 51 250 51 267.5 66 c 128,-1,53
 285 81 285 81 290 102 c 256,42,43
200 817 m 256,54,55
 205 837 205 837 194.5 850 c 128,-1,56
 184 863 184 863 164 863 c 256,57,58
 144 863 144 863 127.5 849.5 c 128,-1,59
 111 836 111 836 107 817 c 256,60,61
 102 797 102 797 112.5 783.5 c 128,-1,62
 123 770 123 770 143 770 c 256,63,64
 163 770 163 770 179 783.5 c 128,-1,65
 195 797 195 797 200 817 c 256,54,55
EndSplineSet
EndChar

StartChar: uni0E44
Encoding: 3652 3652 277
Width: 379
VWidth: 1504
Flags: W
LayerCount: 2
Fore
SplineSet
328 102 m 256,0,1
 317 54 317 54 276.5 21 c 128,-1,2
 236 -12 236 -12 190 -12 c 0,3,4
 139 -12 139 -12 111.5 22.5 c 128,-1,5
 84 57 84 57 95 110 c 2,6,-1
 253 853 l 1,7,-1
 134 721 l 1,8,-1
 78 739 l 1,9,10
 102 880 102 880 92 1002 c 1,11,-1
 173 1002 l 1,12,13
 165 883 165 883 155 823 c 1,14,-1
 296 990 l 1,15,16
 326 985 326 985 345 961 c 128,-1,17
 364 937 364 937 356 904 c 2,18,-1
 211 214 l 1,19,20
 219 217 219 217 238 217 c 0,21,22
 285 217 285 217 312 183.5 c 128,-1,23
 339 150 339 150 328 102 c 256,0,1
265 102 m 256,24,25
 270 123 270 123 257.5 138 c 128,-1,26
 245 153 245 153 224 153 c 256,27,28
 203 153 203 153 185 138 c 128,-1,29
 167 123 167 123 162 102 c 256,30,31
 157 81 157 81 169.5 66 c 128,-1,32
 182 51 182 51 203 51 c 256,33,34
 224 51 224 51 242 66 c 128,-1,35
 260 81 260 81 265 102 c 256,24,25
EndSplineSet
EndChar

StartChar: uni0E45
Encoding: 3653 3653 278
Width: 314
VWidth: 1504
Flags: W
LayerCount: 2
Fore
SplineSet
137 -161 m 2,0,1
 119 -247 119 -247 66 -272 c 1,2,-1
 -8 -232 l 1,3,4
 36 -206 36 -206 51 -126 c 1,5,-1
 170 438 l 2,6,7
 179 480 179 480 156.5 506 c 128,-1,8
 134 532 134 532 84 532 c 256,9,10
 34 532 34 532 -4 499 c 128,-1,11
 -42 466 -42 466 -54 415 c 1,12,-1
 -144 415 l 1,13,14
 -120 505 -120 505 -54.5 558.5 c 128,-1,15
 11 612 11 612 101 612 c 0,16,17
 185 612 185 612 234 569 c 128,-1,18
 283 526 283 526 265 439 c 2,19,-1
 137 -161 l 2,0,1
EndSplineSet
EndChar

StartChar: uni0E46
Encoding: 3654 3654 279
Width: 657
VWidth: 1504
Flags: W
LayerCount: 2
Fore
SplineSet
475 -147 m 2,0,1
 457 -233 457 -233 405 -259 c 1,2,-1
 331 -218 l 1,3,4
 375 -192 375 -192 390 -113 c 1,5,-1
 505 435 l 2,6,7
 519 497 519 497 468 534 c 1,8,-1
 387 480 l 1,9,-1
 310 535 l 1,10,11
 281 518 281 518 265 489 c 1,12,-1
 275 489 l 2,13,14
 323 489 323 489 349.5 455 c 128,-1,15
 376 421 376 421 366 373 c 256,16,17
 355 325 355 325 314.5 291 c 128,-1,18
 274 257 274 257 226 257 c 0,19,20
 166 257 166 257 141 303.5 c 128,-1,21
 116 350 116 350 129 412 c 0,22,23
 144 487 144 487 204.5 545 c 128,-1,24
 265 603 265 603 341 621 c 1,25,-1
 402 564 l 1,26,-1
 478 621 l 1,27,28
 547 603 547 603 580.5 554 c 128,-1,29
 614 505 614 505 599 436 c 2,30,-1
 475 -147 l 2,0,1
302 373 m 256,31,32
 307 396 307 396 294 412.5 c 128,-1,33
 281 429 281 429 259 429 c 256,34,35
 236 429 236 429 216 412.5 c 128,-1,36
 196 396 196 396 191 373 c 256,37,38
 186 350 186 350 199 333.5 c 128,-1,39
 212 317 212 317 235 317 c 256,40,41
 258 317 258 317 277.5 333.5 c 128,-1,42
 297 350 297 350 302 373 c 256,31,32
EndSplineSet
EndChar

StartChar: uni0E47
Encoding: 3655 3655 280
Width: 0
VWidth: 1504
Flags: W
LayerCount: 2
Fore
SplineSet
5 784 m 1,0,1
 0 752 0 752 -28 728.5 c 128,-1,2
 -56 705 -56 705 -89 705 c 0,3,4
 -163 705 -163 705 -244 769 c 1,5,6
 -265 763 -265 763 -292.5 739.5 c 128,-1,7
 -320 716 -320 716 -328 698 c 1,8,9
 -396 751 -396 751 -381 826 c 0,10,11
 -369 885 -369 885 -314 918 c 0,12,13
 -267 948 -267 948 -203 948 c 2,14,-1
 -101 948 l 2,15,16
 -27 948 -27 948 -12 1014 c 2,17,-1
 -5 1048 l 1,18,-1
 66 1048 l 1,19,-1
 59 1015 l 2,20,21
 45 953 45 953 -1.5 920 c 128,-1,22
 -48 887 -48 887 -111 887 c 2,23,-1
 -221 887 l 2,24,25
 -245 887 -245 887 -268.5 871.5 c 128,-1,26
 -292 856 -292 856 -296 830 c 1,27,28
 -302 806 -302 806 -296 791 c 1,29,30
 -266 826 -266 826 -220 829 c 1,31,32
 -191 806 -191 806 -146 790 c 1,33,34
 -140 820 -140 820 -112 841 c 128,-1,35
 -84 862 -84 862 -56 862 c 0,36,37
 -23 862 -23 862 -5 839 c 128,-1,38
 13 816 13 816 5 784 c 1,0,1
-39 784 m 256,39,40
 -36 798 -36 798 -43.5 807.5 c 128,-1,41
 -51 817 -51 817 -65 817 c 256,42,43
 -79 817 -79 817 -90.5 807 c 128,-1,44
 -102 797 -102 797 -105 784 c 256,45,46
 -108 770 -108 770 -100 760.5 c 128,-1,47
 -92 751 -92 751 -78 751 c 256,48,49
 -64 751 -64 751 -53 760.5 c 128,-1,50
 -42 770 -42 770 -39 784 c 256,39,40
EndSplineSet
Substitution2: "<23,16000>  in Thai lookup 65 nested-substitutions 2 subtable" uni0E47.alt1
Substitution2: "Single Substitution lookup 58 subtable" uni0E47.alt1
EndChar

StartChar: uni0E48
Encoding: 3656 3656 281
Width: 0
VWidth: 1504
Flags: W
LayerCount: 2
Fore
SplineSet
72 1018 m 1,0,-1
 -17 1018 l 1,1,-1
 20 1190 l 1,2,-1
 110 1190 l 1,3,-1
 72 1018 l 1,0,-1
EndSplineSet
Substitution2: "<23,16000>  in Thai lookup 65 nested-substitutions 5 subtable" uni0E48.alt3
Substitution2: "<23,16000>  in Thai lookup 65 nested-substitutions 3 subtable" uni0E48.alt1
Substitution2: "<23,16000>  in Thai lookup 65 nested-substitutions 2 subtable" uni0E48.alt3
Substitution2: "<23,16000>  in Thai lookup 65 nested-substitutions 0 subtable" uni0E48.alt2
Substitution2: "Single Substitution lookup 58 subtable" uni0E48.alt2
EndChar

StartChar: uni0E49
Encoding: 3657 3657 282
Width: 0
VWidth: 1504
Flags: W
LayerCount: 2
Fore
SplineSet
233 1256 m 1,0,1
 176 1113 176 1113 91 1058 c 128,-1,2
 6 1003 6 1003 -132 1003 c 2,3,-1
 -174 1003 l 1,4,-1
 -164 1053 l 1,5,6
 -102 1058 -102 1058 -81 1097 c 1,7,8
 -153 1117 -153 1117 -138 1185 c 0,9,10
 -130 1221 -130 1221 -99.5 1245.5 c 128,-1,11
 -69 1270 -69 1270 -33 1270 c 0,12,13
 6 1270 6 1270 24 1245 c 128,-1,14
 42 1220 42 1220 33 1181 c 0,15,16
 21 1122 21 1122 -57 1056 c 1,17,18
 18 1071 18 1071 76 1126 c 128,-1,19
 134 1181 134 1181 155 1256 c 1,20,-1
 233 1256 l 1,0,1
-14 1182 m 0,21,22
 -11 1199 -11 1199 -20 1210 c 128,-1,23
 -29 1221 -29 1221 -45 1221 c 256,24,25
 -62 1221 -62 1221 -75.5 1210 c 128,-1,26
 -89 1199 -89 1199 -92 1182 c 0,27,28
 -97 1165 -97 1165 -87.5 1154 c 128,-1,29
 -78 1143 -78 1143 -62 1143 c 256,30,31
 -45 1143 -45 1143 -32 1154 c 128,-1,32
 -19 1165 -19 1165 -14 1182 c 0,21,22
EndSplineSet
Substitution2: "<23,16000>  in Thai lookup 65 nested-substitutions 5 subtable" uni0E49.alt3
Substitution2: "<23,16000>  in Thai lookup 65 nested-substitutions 3 subtable" uni0E49.alt1
Substitution2: "<23,16000>  in Thai lookup 65 nested-substitutions 2 subtable" uni0E49.alt3
Substitution2: "<23,16000>  in Thai lookup 65 nested-substitutions 0 subtable" uni0E49.alt2
Substitution2: "Single Substitution lookup 58 subtable" uni0E49.alt2
EndChar

StartChar: uni0E4A
Encoding: 3658 3658 283
Width: 0
VWidth: 1504
Flags: W
LayerCount: 2
Fore
SplineSet
289 1247 m 1,0,1
 232 1011 232 1011 11 1011 c 1,2,-1
 21 1054 l 1,3,4
 86 1083 86 1083 98 1145 c 0,5,6
 106 1189 106 1189 66 1200 c 1,7,-1
 9 1152 l 1,8,-1
 -27 1203 l 1,9,10
 -54 1197 -54 1197 -80 1170 c 1,11,12
 -44 1170 -44 1170 -24.5 1146 c 128,-1,13
 -5 1122 -5 1122 -12 1086 c 0,14,15
 -20 1053 -20 1053 -49 1029 c 128,-1,16
 -78 1005 -78 1005 -113 1005 c 0,17,18
 -149 1005 -149 1005 -168 1028 c 128,-1,19
 -187 1051 -187 1051 -177 1092 c 0,20,21
 -171 1119 -171 1119 -157 1146 c 128,-1,22
 -143 1173 -143 1173 -120.5 1197 c 128,-1,23
 -98 1221 -98 1221 -68 1237 c 128,-1,24
 -38 1253 -38 1253 -2 1258 c 1,25,-1
 26 1218 l 1,26,-1
 68 1258 l 1,27,28
 113 1256 113 1256 137 1226 c 128,-1,29
 161 1196 161 1196 152 1149 c 0,30,31
 143 1107 143 1107 117 1074 c 1,32,33
 197 1118 197 1118 226 1247 c 1,34,-1
 289 1247 l 1,0,1
-59 1086 m 256,35,36
 -56 1103 -56 1103 -64 1114 c 128,-1,37
 -72 1125 -72 1125 -89 1125 c 256,38,39
 -106 1125 -106 1125 -119 1114 c 128,-1,40
 -132 1103 -132 1103 -135 1086 c 256,41,42
 -138 1069 -138 1069 -129 1058.5 c 128,-1,43
 -120 1048 -120 1048 -104 1048 c 256,44,45
 -87 1048 -87 1048 -74.5 1058.5 c 128,-1,46
 -62 1069 -62 1069 -59 1086 c 256,35,36
EndSplineSet
Substitution2: "<23,16000>  in Thai lookup 65 nested-substitutions 5 subtable" uni0E4A.alt3
Substitution2: "<23,16000>  in Thai lookup 65 nested-substitutions 3 subtable" uni0E4A.alt1
Substitution2: "<23,16000>  in Thai lookup 65 nested-substitutions 2 subtable" uni0E4A.alt3
Substitution2: "<23,16000>  in Thai lookup 65 nested-substitutions 0 subtable" uni0E4A.alt2
Substitution2: "Single Substitution lookup 58 subtable" uni0E4A.alt2
EndChar

StartChar: uni0E4B
Encoding: 3659 3659 284
Width: 0
VWidth: 1504
Flags: W
LayerCount: 2
Fore
SplineSet
162 1085 m 1,0,-1
 84 1085 l 1,1,-1
 69 1018 l 1,2,-1
 -12 1018 l 1,3,-1
 2 1085 l 1,4,-1
 -69 1085 l 1,5,-1
 -57 1146 l 1,6,-1
 14 1146 l 1,7,-1
 27 1209 l 1,8,-1
 110 1209 l 1,9,-1
 96 1146 l 1,10,-1
 174 1146 l 1,11,-1
 162 1085 l 1,0,-1
EndSplineSet
Substitution2: "<23,16000>  in Thai lookup 65 nested-substitutions 5 subtable" uni0E4B.alt3
Substitution2: "<23,16000>  in Thai lookup 65 nested-substitutions 3 subtable" uni0E4B.alt1
Substitution2: "<23,16000>  in Thai lookup 65 nested-substitutions 2 subtable" uni0E4B.alt3
Substitution2: "<23,16000>  in Thai lookup 65 nested-substitutions 0 subtable" uni0E4B.alt2
Substitution2: "Single Substitution lookup 58 subtable" uni0E4B.alt2
EndChar

StartChar: uni0E4C
Encoding: 3660 3660 285
Width: 0
VWidth: 1504
Flags: W
LayerCount: 2
Fore
SplineSet
185 1256 m 1,0,1
 168 1200 168 1200 129 1172 c 1,2,3
 99 1148 99 1148 35 1131 c 1,4,5
 80 1107 80 1107 68 1051 c 0,6,7
 60 1013 60 1013 28.5 987 c 128,-1,8
 -3 961 -3 961 -41 961 c 256,9,10
 -79 961 -79 961 -99 988 c 128,-1,11
 -119 1015 -119 1015 -111 1053 c 0,12,13
 -90 1148 -90 1148 17 1181 c 0,14,15
 67 1196 67 1196 83 1205 c 0,16,17
 116 1223 116 1223 123 1256 c 1,18,-1
 185 1256 l 1,0,1
17 1051 m 256,19,20
 20 1068 20 1068 12.5 1079.5 c 128,-1,21
 5 1091 5 1091 -11 1091 c 0,22,23
 -28 1091 -28 1091 -42 1079.5 c 128,-1,24
 -56 1068 -56 1068 -59 1051 c 256,25,26
 -62 1034 -62 1034 -53 1024 c 128,-1,27
 -44 1014 -44 1014 -27 1014 c 256,28,29
 -10 1014 -10 1014 2 1024 c 128,-1,30
 14 1034 14 1034 17 1051 c 256,19,20
EndSplineSet
Substitution2: "<23,16000>  in Thai lookup 65 nested-substitutions 5 subtable" uni0E4C.alt3
Substitution2: "<23,16000>  in Thai lookup 65 nested-substitutions 3 subtable" uni0E4C.alt1
Substitution2: "<23,16000>  in Thai lookup 65 nested-substitutions 2 subtable" uni0E4C.alt3
Substitution2: "<23,16000>  in Thai lookup 65 nested-substitutions 0 subtable" uni0E4C.alt2
Substitution2: "Single Substitution lookup 58 subtable" uni0E4C.alt2
EndChar

StartChar: uni0E4D
Encoding: 3661 3661 286
Width: 0
VWidth: 1504
Flags: W
LayerCount: 2
Fore
SplineSet
92 826 m 0,0,1
 81 773 81 773 36.5 736 c 128,-1,2
 -8 699 -8 699 -60 699 c 0,3,4
 -114 699 -114 699 -142.5 736 c 128,-1,5
 -171 773 -171 773 -161 826 c 0,6,7
 -149 879 -149 879 -104 916.5 c 128,-1,8
 -59 954 -59 954 -6 954 c 0,9,10
 45 954 45 954 74.5 917 c 128,-1,11
 104 880 104 880 92 826 c 0,0,1
26 826 m 0,12,13
 32 852 32 852 18.5 869.5 c 128,-1,14
 5 887 5 887 -20 887 c 0,15,16
 -46 887 -46 887 -67.5 869 c 128,-1,17
 -89 851 -89 851 -95 826 c 0,18,19
 -100 800 -100 800 -85.5 783 c 128,-1,20
 -71 766 -71 766 -45 766 c 256,21,22
 -19 766 -19 766 1 783 c 128,-1,23
 21 800 21 800 26 826 c 0,12,13
EndSplineSet
Substitution2: "<23,16000>  in Thai lookup 65 nested-substitutions 2 subtable" uni0E4D.alt1
Substitution2: "Single Substitution lookup 58 subtable" uni0E4D.alt1
EndChar

StartChar: uni0E4E
Encoding: 3662 3662 287
Width: 0
VWidth: 1504
Flags: W
LayerCount: 2
Fore
SplineSet
-71 698 m 1,0,1
 -104 684 -104 684 -149 684 c 0,2,3
 -190 684 -190 684 -214.5 709 c 128,-1,4
 -239 734 -239 734 -230 773 c 0,5,6
 -222 809 -222 809 -193.5 835.5 c 128,-1,7
 -165 862 -165 862 -129 868 c 1,8,9
 -140 891 -140 891 -134 915 c 0,10,11
 -123 965 -123 965 -80 990 c 1,12,13
 -41 1011 -41 1011 8 1011 c 0,14,15
 50 1011 50 1011 86 996 c 1,16,-1
 51 940 l 1,17,18
 24 951 24 951 -5 951 c 0,19,20
 -61 951 -61 951 -68 915 c 0,21,22
 -77 874 -77 874 0 866 c 1,23,-1
 -36 809 l 1,24,25
 -63 820 -63 820 -83 820 c 0,26,27
 -158 820 -158 820 -167 772 c 1,28,29
 -175 742 -175 742 -117 742 c 0,30,31
 -94 742 -94 742 -59 755 c 1,32,-1
 -71 698 l 1,0,1
EndSplineSet
Substitution2: "<23,16000>  in Thai lookup 65 nested-substitutions 2 subtable" uni0E4E.alt1
Substitution2: "Single Substitution lookup 58 subtable" uni0E4E.alt1
EndChar

StartChar: uni0E4F
Encoding: 3663 3663 288
Width: 676
VWidth: 1504
Flags: W
LayerCount: 2
Fore
SplineSet
420 245 m 0,0,1
 429 284 429 284 407 312.5 c 128,-1,2
 385 341 385 341 344 341 c 256,3,4
 303 341 303 341 269.5 312.5 c 128,-1,5
 236 284 236 284 227 245 c 0,6,7
 218 204 218 204 240.5 176.5 c 128,-1,8
 263 149 263 149 304 149 c 256,9,10
 345 149 345 149 378 176.5 c 128,-1,11
 411 204 411 204 420 245 c 0,0,1
472 245 m 256,12,13
 458 183 458 183 405.5 139 c 128,-1,14
 353 95 353 95 292 95 c 256,15,16
 230 95 230 95 195.5 139.5 c 128,-1,17
 161 184 161 184 174 245 c 256,18,19
 188 307 188 307 240.5 350.5 c 128,-1,20
 293 394 293 394 355 394 c 256,21,22
 417 394 417 394 451.5 350.5 c 128,-1,23
 486 307 486 307 472 245 c 256,12,13
525 245 m 0,24,25
 543 329 543 329 497 388 c 128,-1,26
 451 447 451 447 367 447 c 0,27,28
 284 447 284 447 212 388 c 128,-1,29
 140 329 140 329 122 245 c 256,30,31
 104 161 104 161 150.5 101.5 c 128,-1,32
 197 42 197 42 280 42 c 256,33,34
 363 42 363 42 435 102 c 128,-1,35
 507 162 507 162 525 245 c 0,24,25
578 245 m 0,36,37
 555 140 555 140 465 65.5 c 128,-1,38
 375 -9 375 -9 269 -9 c 256,39,40
 164 -9 164 -9 105.5 65.5 c 128,-1,41
 47 140 47 140 69 245 c 256,42,43
 92 350 92 350 182 424.5 c 128,-1,44
 272 499 272 499 378 499 c 0,45,46
 480 499 480 499 540.5 423 c 128,-1,47
 601 347 601 347 578 245 c 0,36,37
EndSplineSet
EndChar

StartChar: uni0E50
Encoding: 3664 3664 289
Width: 685
VWidth: 1504
Flags: W
LayerCount: 2
Fore
SplineSet
489 220 m 0,0,1
 503 289 503 289 463 329.5 c 128,-1,2
 423 370 423 370 355 370 c 256,3,4
 287 370 287 370 229 329.5 c 128,-1,5
 171 289 171 289 158 220 c 0,6,7
 143 151 143 151 183 110 c 128,-1,8
 223 69 223 69 290 69 c 256,9,10
 358 69 358 69 416 110 c 128,-1,11
 474 151 474 151 489 220 c 0,0,1
588 220 m 0,12,13
 565 116 565 116 465 48 c 0,14,15
 375 -14 375 -14 274 -14 c 0,16,17
 172 -14 172 -14 105 48 c 0,18,19
 34 116 34 116 57 220 c 0,20,21
 78 324 78 324 179 391 c 0,22,23
 269 453 269 453 372 453 c 0,24,25
 473 453 473 453 539 391 c 0,26,27
 609 324 609 324 588 220 c 0,12,13
EndSplineSet
EndChar

StartChar: uni0E51
Encoding: 3665 3665 290
Width: 685
VWidth: 1504
Flags: W
LayerCount: 2
Fore
SplineSet
585 179 m 0,0,1
 559 59 559 59 460 -30 c 1,2,-1
 349 -30 l 1,3,4
 472 68 472 68 496 179 c 0,5,6
 514 265 514 265 475 317 c 128,-1,7
 436 369 436 369 350 369 c 0,8,9
 276 369 276 369 214.5 323 c 128,-1,10
 153 277 153 277 138 209 c 0,11,12
 126 149 126 149 150 107.5 c 128,-1,13
 174 66 174 66 230 66 c 0,14,15
 253 66 253 66 277 74 c 1,16,17
 224 74 224 74 200 110 c 0,18,19
 177 142 177 142 187 184 c 0,20,21
 198 231 198 231 239 263 c 128,-1,22
 280 295 280 295 325 295 c 0,23,24
 381 295 381 295 406.5 257.5 c 128,-1,25
 432 220 432 220 420 164 c 0,26,27
 403 87 403 87 340.5 38 c 128,-1,28
 278 -11 278 -11 199 -11 c 0,29,30
 112 -11 112 -11 70.5 53 c 128,-1,31
 29 117 29 117 48 206 c 0,32,33
 71 313 71 313 166.5 382 c 128,-1,34
 262 451 262 451 370 451 c 0,35,36
 490 451 490 451 549.5 371.5 c 128,-1,37
 609 292 609 292 585 179 c 0,0,1
353 184 m 256,38,39
 358 205 358 205 346.5 220 c 128,-1,40
 335 235 335 235 314 235 c 256,41,42
 293 235 293 235 274.5 220 c 128,-1,43
 256 205 256 205 251 184 c 256,44,45
 246 163 246 163 258.5 147.5 c 128,-1,46
 271 132 271 132 292 132 c 256,47,48
 313 132 313 132 330.5 147.5 c 128,-1,49
 348 163 348 163 353 184 c 256,38,39
EndSplineSet
EndChar

StartChar: uni0E52
Encoding: 3666 3666 291
Width: 685
VWidth: 1504
Flags: W
LayerCount: 2
Fore
SplineSet
588 105 m 1,0,1
 567 0 567 0 466 0 c 2,2,-1
 77 0 l 2,3,4
 -7 0 -7 0 12 98 c 2,5,-1
 102 523 l 2,6,7
 107 543 107 543 93 549 c 0,8,9
 91 549 91 549 68 552 c 1,10,-1
 83 629 l 1,11,12
 149 629 149 629 176 609 c 0,13,14
 208 585 208 585 194 522 c 2,15,-1
 110 126 l 2,16,17
 101 78 101 78 143 78 c 2,18,-1
 453 78 l 2,19,20
 492 78 492 78 499 114 c 2,21,-1
 542 317 l 2,22,23
 554 371 554 371 520 372 c 0,24,25
 472 372 472 372 454 284 c 1,26,-1
 394 284 l 1,27,28
 396 374 396 374 341 375 c 0,29,30
 318 375 318 375 300.5 355 c 128,-1,31
 283 335 283 335 275 311 c 1,32,-1
 287 311 l 2,33,34
 331 311 331 311 354.5 282 c 128,-1,35
 378 253 378 253 369 211 c 0,36,37
 360 167 360 167 324.5 137.5 c 128,-1,38
 289 108 289 108 245 108 c 0,39,40
 128 108 128 108 156 244 c 0,41,42
 174 333 174 333 226 390 c 0,43,44
 282 455 282 455 360 454 c 0,45,46
 434 454 434 454 442 396 c 1,47,48
 481 455 481 455 545 454 c 0,49,50
 601 454 601 454 623 413.5 c 128,-1,51
 645 373 645 373 635 320 c 2,52,-1
 588 105 l 1,0,1
311 209 m 256,53,54
 316 229 316 229 305.5 241.5 c 128,-1,55
 295 254 295 254 275 254 c 256,56,57
 255 254 255 254 241 241.5 c 128,-1,58
 227 229 227 229 223 209 c 256,59,60
 218 189 218 189 228 177 c 128,-1,61
 238 165 238 165 257 165 c 256,62,63
 277 165 277 165 291.5 177 c 128,-1,64
 306 189 306 189 311 209 c 256,53,54
EndSplineSet
EndChar

StartChar: uni0E53
Encoding: 3667 3667 292
Width: 685
VWidth: 1504
Flags: W
LayerCount: 2
Fore
SplineSet
560 0 m 1,0,-1
 472 0 l 1,1,-1
 532 286 l 2,2,3
 550 372 550 372 490 372 c 0,4,5
 460 372 460 372 433 343 c 128,-1,6
 406 314 406 314 399 281 c 2,7,-1
 340 0 l 1,8,-1
 251 0 l 1,9,-1
 310 281 l 2,10,11
 330 370 330 370 233 370 c 0,12,13
 179 370 179 370 140 305 c 0,14,15
 111 258 111 258 98 197 c 1,16,17
 125 211 125 211 153 211 c 0,18,19
 200 211 200 211 227 180 c 128,-1,20
 254 149 254 149 244 101 c 0,21,22
 233 56 233 56 197 26 c 0,23,24
 158 -9 158 -9 105 -11 c 0,25,26
 33 -13 33 -13 12 59 c 1,27,28
 -2 115 -2 115 14 194 c 0,29,30
 35 296 35 296 95 369 c 1,31,32
 163 453 163 453 254 453 c 0,33,34
 343 453 343 453 375 385 c 1,35,36
 432 454 432 454 510 453 c 0,37,38
 579 453 579 453 607 405.5 c 128,-1,39
 635 358 635 358 620 287 c 2,40,-1
 560 0 l 1,0,-1
179 96 m 256,41,42
 184 117 184 117 172.5 131.5 c 128,-1,43
 161 146 161 146 140 146 c 256,44,45
 119 146 119 146 102.5 131.5 c 128,-1,46
 86 117 86 117 81 96 c 256,47,48
 76 75 76 75 87 61.5 c 128,-1,49
 98 48 98 48 119 48 c 256,50,51
 140 48 140 48 157 61.5 c 128,-1,52
 174 75 174 75 179 96 c 256,41,42
EndSplineSet
EndChar

StartChar: uni0E54
Encoding: 3668 3668 293
Width: 685
VWidth: 1504
Flags: W
LayerCount: 2
Fore
SplineSet
535 -14 m 1,0,1
 458 27 458 27 403 27 c 0,2,3
 365 27 365 27 291 8 c 128,-1,4
 217 -11 217 -11 181 -11 c 0,5,6
 82 -11 82 -11 33 54 c 0,7,8
 -12 114 -12 114 6 208 c 1,9,10
 59 456 59 456 381 456 c 0,11,12
 509 456 509 456 567 475 c 0,13,14
 662 507 662 507 707 629 c 1,15,-1
 793 629 l 1,16,17
 725 465 725 465 621 411 c 0,18,19
 547 373 547 373 384 373 c 0,20,21
 268 373 268 373 212 352 c 0,22,23
 122 316 122 316 101 214 c 0,24,25
 87 155 87 155 118 110.5 c 128,-1,26
 149 66 149 66 194 66 c 0,27,28
 203 66 203 66 311 83 c 1,29,30
 180 119 180 119 205 227 c 0,31,32
 216 277 216 277 255.5 308.5 c 128,-1,33
 295 340 295 340 340 340 c 0,34,35
 388 340 388 340 410.5 306 c 128,-1,36
 433 272 433 272 424 229 c 0,37,38
 412 176 412 176 360 140 c 1,39,40
 383 128 383 128 421 120 c 1,41,42
 462 114 462 114 501 104.5 c 128,-1,43
 540 95 540 95 594 57 c 1,44,-1
 535 -14 l 1,0,1
358 230 m 256,45,46
 363 250 363 250 352 262.5 c 128,-1,47
 341 275 341 275 322 275 c 256,48,49
 302 275 302 275 287 262.5 c 128,-1,50
 272 250 272 250 268 230 c 256,51,52
 263 210 263 210 273.5 197.5 c 128,-1,53
 284 185 284 185 304 185 c 256,54,55
 324 185 324 185 338.5 197.5 c 128,-1,56
 353 210 353 210 358 230 c 256,45,46
EndSplineSet
EndChar

